<svg width="550" height="277" viewBox="0 0 550 277" fill="none" xmlns="http://www.w3.org/2000/svg">
<g clip-path="url(#clip0_122_1600)">
<g filter="url(#filter0_f_122_1600)">
<path d="M56.1061 276.863C14.5009 218.433 14.1323 129.96 76.6277 79.8679C133.15 34.5631 227.286 65.7716 275.307 38.4726C333.476 5.40367 482.003 11.653 513.832 115.592C537.491 192.851 499.471 265.144 470.252 276.863C235.866 276.863 56.1061 276.863 56.1061 276.863Z" fill="#C9DDFF"/>
</g>
<path d="M143.558 230.927L141.613 230.559L133.164 275.141L135.109 275.51L143.558 230.927Z" fill="#3C8F7C"/>
<path d="M225.144 275.722H227.484L218.763 230.559L216.817 230.928L225.144 275.722Z" fill="#3C8F7C"/>
<path d="M156.824 275.722H159.164L150.443 230.559L148.497 230.928L156.824 275.722Z" fill="#3C8F7C"/>
<path d="M203.822 275.722L201.921 275.744L210.282 230.762L212.228 231.131L203.822 275.722Z" fill="#184655"/>
<path d="M170.146 132.686C159.758 133.798 146.316 134.972 132.82 157.873C118.07 182.904 125.835 220.293 137.476 230.683C149.118 241.073 187.14 253.901 219.102 234.696C219.102 234.696 238.401 223.057 228.497 203.741C213.255 174.015 215.409 167.816 208.594 156.167C201.779 144.518 192.196 130.324 170.146 132.686Z" fill="#F47458"/>
<path d="M132.82 157.873C142.031 142.242 151.218 136.734 159.425 134.458C156.25 137.744 153.032 141.97 149.811 147.437C135.061 172.467 142.825 209.856 154.467 220.246C164.791 229.46 195.861 240.588 225.054 229.595C222.052 232.917 219.102 234.696 219.102 234.696C187.14 253.902 149.118 241.073 137.476 230.683C125.835 220.293 118.07 182.904 132.82 157.873Z" fill="#B75742"/>
<path d="M203.496 170.73L206.166 178.74L198.029 175.54L203.496 170.73Z" fill="#F79C8D"/>
<path d="M195.108 146.894C195.651 146.917 197.137 147.412 199.311 151.507C202.087 156.735 206.143 172.528 206.143 172.528L194.034 177.023L192.478 173.726L189.916 148.348C189.916 148.348 194.958 146.888 195.108 146.894Z" fill="#6394DB"/>
<path d="M179.1 144.618C182.563 144.622 191.131 145.63 195.108 146.896C195.108 146.896 198.029 171.92 192.478 190.936C191.235 195.192 193.506 208.582 193.506 208.582L157.622 208.11C157.622 208.11 161.873 175.742 160.272 170.513C158.67 165.285 158.632 147.064 158.632 147.064C158.632 147.064 158.878 147.026 166.694 145.679C170.34 145.051 175.403 144.613 179.1 144.618Z" fill="#86B1F2"/>
<path d="M174.919 255.029C174.919 255.029 175.713 264.16 177.172 266.689C178.632 269.217 177.095 273.516 177.019 274.106C176.942 274.696 173.946 275.539 169.183 275.033C164.42 274.527 164.497 273.432 164.881 271.662C165.265 269.892 167.8 267.616 167.954 265.93C168.107 264.244 166.494 258.175 166.494 258.175L174.919 255.029Z" fill="#F7A491"/>
<path d="M189.457 201.045C189.457 201.045 214.227 199.674 219.759 203.013C225.29 206.351 218.759 213.207 218.759 213.207C218.759 213.207 198.593 221.945 164.832 223.886C156.838 224.346 156.148 203.112 157.643 201.355C159.138 199.597 189.457 201.045 189.457 201.045Z" fill="#E5B05C"/>
<path d="M168.589 275.742C163.684 275.221 164.291 272.82 164.686 270.997C164.934 269.856 166.341 268.511 167.18 267.238C167.618 267.586 168.331 268.2 170.461 268.827C172.673 269.478 175.705 268.19 177.637 267.383C178.325 269.937 178.357 273.194 178.292 273.688C178.213 274.296 173.493 276.263 168.589 275.742Z" fill="#F47458"/>
<path d="M171.296 218.705C172.285 226.169 177.185 263.323 177.185 263.323L165.816 264.727C165.816 264.727 151.835 216.233 152.552 208.815C153.269 201.398 158.502 200.774 158.502 200.774C158.502 200.774 168.677 198.949 171.296 218.705Z" fill="#F7CC7F"/>
<path d="M158.242 149.846C161.597 148.591 163.238 178.719 163.69 191.119C169.632 191.689 179.988 191.123 182.566 190.93C183.779 190.839 186.575 189.819 187.781 189.661C189.017 189.5 190.137 189.416 190.745 189.522C190.968 189.56 197.161 192.084 197.691 192.638C198.348 193.324 200.124 195.056 199.824 195.805C199.524 196.553 196.408 193.718 196.408 193.718L194.885 192.867C196.781 194.713 200.397 197.144 199.876 198.029C199.368 198.892 196.106 196.425 193.781 194.744C195.775 196.539 198.253 199.751 197.682 200.252C197.169 200.702 194.351 196.983 191.34 195.912C190.224 195.515 189.111 196.614 188.233 196.747C187.588 196.844 186.592 197.052 185.959 196.873L182.698 195.952C181.588 196.052 181.56 196.707 180.438 196.945C179.136 197.221 176.999 197.512 175.341 197.915C165.791 200.241 162.606 201.32 159.682 201.319C150.826 201.313 150.312 152.81 158.242 149.846Z" fill="#F7A491"/>
<path d="M151.875 178.13C151.246 165.428 151.338 149.772 158.483 147.101C161.302 146.047 166.271 152.384 165.378 178.388C161.563 178.702 155.964 178.954 151.875 178.13Z" fill="#86B1F2"/>
<path d="M208.165 262.839C208.165 262.839 207.173 266.009 208.95 268.106C210.726 270.202 218.107 272.259 219.076 273.394C220.045 274.529 219.972 275.496 219.972 275.496L199.254 274.928L199.48 268.692L200.434 264.212L208.165 262.839Z" fill="#F7A491"/>
<path d="M210.238 269.151C210.238 269.151 204.915 271.297 202.343 270.026C199.772 268.756 199.849 268.403 199.106 268.877C198.362 269.351 198.095 275.722 198.095 275.722L221.391 275.879C223.012 275.841 223.832 274.652 222.515 273.633C221.611 272.935 220.568 272.467 219.975 272.128C218.152 271.087 210.238 269.151 210.238 269.151Z" fill="#F47458"/>
<path d="M207.38 206.896C208.981 203.538 212.623 199.165 219.031 201.799C225.142 204.311 226.782 210.483 224.854 216.804C222.926 223.125 210.232 260.283 209.789 265.392L199.654 265.459C199.654 265.459 201.496 236.037 201.948 228.925C202.383 222.082 204.609 212.708 207.38 206.896Z" fill="#F7CC7F"/>
<path d="M223.834 172.672H189.954C189.058 172.672 188.25 173.214 187.91 174.043L177.478 199.486H158.8C158.278 199.486 157.854 199.909 157.854 200.431C157.854 200.953 158.278 201.376 158.8 201.376H211.959C213.421 201.376 214.746 200.518 215.345 199.185L225.849 175.786C226.505 174.324 225.436 172.672 223.834 172.672Z" fill="#355389"/>
<path d="M205.593 187.488C205.364 188.63 204.367 189.395 203.366 189.195C202.366 188.994 201.74 187.906 201.969 186.763C202.197 185.62 203.194 184.856 204.195 185.056C205.196 185.256 205.822 186.345 205.593 187.488Z" fill="white"/>
<path d="M174.983 133.891L173.325 144.816C173.325 144.816 179.379 157.825 182.993 156.697C186.025 155.75 184.16 144.24 184.16 144.24C184.16 144.24 182.507 138.058 183.002 134.965C183.498 131.872 174.983 133.891 174.983 133.891Z" fill="#F7A491"/>
<path opacity="0.2" d="M183.002 134.965C183.498 131.872 174.983 133.891 174.983 133.891L174.845 134.797C175.094 135.403 175.399 135.922 175.769 136.32C177.671 138.367 180.644 139.596 183.214 139.689C182.957 138.021 182.799 136.234 183.002 134.965Z" fill="#F47458"/>
<path d="M173.585 118.434C173.345 118.346 171.657 130.877 174.86 134.325C178.065 137.773 184.307 138.902 186.547 136.186C189.023 133.183 188.899 119.715 183.917 116.168C178.936 112.621 173.585 118.434 173.585 118.434Z" fill="#F7A491"/>
<path d="M182.021 109.465C178.171 110.25 175.676 112.603 174.76 113.606C173.012 113.812 170.635 114.778 168.181 118.841C165.164 123.837 167.392 129.372 170.905 132.087C174.417 134.803 174.368 137.94 174.368 137.94L174.923 136.318C175.333 135.088 175.5 133.785 175.363 132.496C175.281 131.722 175.115 130.886 174.795 130.198C173.95 128.385 176.61 127.18 177.355 125.671C177.93 124.509 177.957 121.851 178.862 119.931L179.943 118.465C179.943 118.465 182.435 116.525 184.874 117.073C187.312 117.62 186.961 108.457 182.021 109.465Z" fill="#184655"/>
<path d="M177.192 127.901C177.217 129.43 176.522 130.681 175.64 130.696C174.757 130.711 174.021 129.484 173.995 127.956C173.97 126.427 174.665 125.175 175.548 125.16C176.43 125.145 177.166 126.372 177.192 127.901Z" fill="#F7A491"/>
<path d="M235.232 74.9865C212.698 75.0163 194.433 86.2922 194.437 100.172C194.439 107.112 199.008 113.389 206.393 117.927L196.395 130.117L216.495 122.47C222.109 124.255 228.486 125.259 235.246 125.25C257.781 125.22 276.045 113.944 276.041 100.064C276.037 86.1848 257.766 74.9569 235.232 74.9865Z" fill="#F7CC7F"/>
<path d="M436.386 231.063L438.332 230.694L446.781 275.276L444.835 275.645L436.386 231.063Z" fill="#3C8F7C"/>
<path d="M354.8 275.857H352.46L361.181 230.695L363.126 231.063L354.8 275.857Z" fill="#3C8F7C"/>
<path d="M423.121 275.857H420.78L429.502 230.695L431.447 231.063L423.121 275.857Z" fill="#3C8F7C"/>
<path d="M404.986 132.279C415.373 133.391 428.816 134.565 442.312 157.467C457.062 182.497 449.297 219.886 437.656 230.276C426.014 240.666 387.992 253.495 356.03 234.289C356.03 234.289 336.731 222.65 346.635 203.334C361.877 173.608 359.723 167.41 366.538 155.76C373.353 144.111 382.936 129.918 404.986 132.279Z" fill="#F47458"/>
<path d="M443.217 158.15C434.006 142.519 424.82 137.011 416.612 134.735C419.787 138.02 423.005 142.246 426.227 147.713C440.976 172.744 433.212 210.133 421.57 220.523C411.246 229.737 380.176 240.865 350.983 229.872C353.985 233.193 356.935 234.973 356.935 234.973C388.897 254.178 426.919 241.35 438.561 230.96C450.203 220.569 457.967 183.18 443.217 158.15Z" fill="#B75742"/>
<path d="M318.587 272.802C318.584 273.349 318.561 273.867 318.532 274.334C318.529 274.376 318.525 274.418 318.525 274.46C318.467 275.309 318.38 275.982 318.322 276.368H291.302C291.499 275.623 291.891 274.991 292.416 274.454C292.454 274.415 292.493 274.373 292.535 274.334C295.039 271.915 300.243 271.41 302.066 270.571C303.643 269.846 306.573 265.234 308.28 262.375C308.656 261.747 308.973 261.203 309.199 260.801C309.459 260.351 309.608 260.082 309.608 260.082L312.606 260.348L316.984 260.733C316.984 260.733 317.003 260.898 317.039 261.187C317.113 261.776 317.259 262.887 317.45 264.205V264.208C317.671 265.714 317.956 267.491 318.266 269.072C318.516 270.331 318.593 271.636 318.587 272.802Z" fill="#163560"/>
<path d="M377.718 155.485C377.718 155.485 363.346 194.879 360.502 194.664C354.31 194.196 352.001 195.692 350.819 195.643C349.638 195.594 356.306 197.655 358.377 197.36C360.447 197.064 376.226 196.581 376.226 196.581L385.783 162.845L377.718 155.485Z" fill="#FFB27D"/>
<path d="M342.199 274.334C342.195 274.379 342.192 274.421 342.192 274.464C342.13 275.309 342.047 275.982 341.988 276.368H314.968C315.166 275.623 315.554 274.995 316.076 274.457C316.118 274.415 316.16 274.376 316.202 274.334C316.853 273.706 317.682 273.207 318.589 272.802C321.176 271.63 324.382 271.193 325.736 270.571C327.28 269.859 330.12 267.061 331.83 265.287C332.681 264.403 333.255 263.771 333.255 263.771L335.114 263.344L337.53 262.79L340.778 262.045C340.778 262.045 340.829 262.453 340.93 263.136C341.011 263.722 341.131 264.516 341.279 265.432C341.458 266.52 341.678 267.78 341.934 269.072C342.299 270.921 342.292 272.867 342.199 274.334Z" fill="#1F426D"/>
<path d="M305.384 260.197C305.384 260.197 308.095 262.57 309.749 263.12C312.352 263.988 319.656 264.35 319.656 264.35C319.656 264.35 328.733 239.601 331.348 233.52C333.827 227.755 336.256 215.504 336.256 215.504C338.148 215.402 354.197 217.305 366.635 215.96C373.253 215.246 378.849 213.612 380.745 210.27C386.21 200.644 372.97 197.533 372.97 197.533C372.97 197.533 333.634 192.673 325.795 197.621C317.956 202.568 305.384 260.197 305.384 260.197Z" fill="#1C468A"/>
<path d="M336.259 215.504C338.151 215.402 354.2 217.305 366.639 215.96C370.014 209.82 374.449 201.728 374.449 201.728C374.449 201.728 351.668 199.152 336.259 215.504Z" fill="#163560"/>
<path d="M330.196 264.693C330.196 264.693 330.996 265.284 332.734 265.405C334.352 265.517 343.089 265.414 343.089 265.414C343.089 265.414 352.773 244.661 356.541 234.613C358.305 229.911 358.343 223.499 358.752 220.495C358.88 219.556 359.043 218.951 359.306 218.833C359.306 218.833 359.307 218.833 359.31 218.831C359.374 218.802 359.458 218.778 359.559 218.755C359.561 218.754 359.563 218.754 359.566 218.754C363.756 217.84 398.599 221.459 403.558 211.871C404.362 210.316 404.643 208.814 404.544 207.389C404.026 199.805 395.247 197.533 395.247 197.533C395.247 197.533 355.798 196.121 348.158 201.37C340.516 206.619 330.196 264.693 330.196 264.693Z" fill="#1C468A"/>
<path d="M309.752 263.12C312.356 263.988 319.66 264.349 319.66 264.349C319.66 264.349 328.736 239.6 331.351 233.52C333.83 227.755 336.259 215.504 336.259 215.504C336.259 215.504 317.257 258.636 309.752 263.12Z" fill="#163560"/>
<path d="M359.566 218.754C363.756 217.84 398.599 221.459 403.558 211.87C404.362 210.316 404.643 208.814 404.545 207.388L396.506 198.514C396.506 198.514 395.877 211.137 385.424 212.557C375.76 213.872 361.645 218.118 359.566 218.754Z" fill="#163560"/>
<path d="M332.736 265.405C334.353 265.517 343.091 265.414 343.091 265.414C343.091 265.414 352.775 244.661 356.543 234.613C358.307 229.911 358.345 223.499 358.754 220.495C354.933 228.629 338.691 262.606 332.736 265.405Z" fill="#163560"/>
<path d="M413.098 147.613C408.905 152.801 400.985 161.364 395.718 159.43C393.95 158.782 379.09 153.552 387.112 148.555C389.144 147.291 392.811 145.648 395.854 145.341C395.776 144.381 395.731 143.552 395.704 142.866C395.643 141.37 395.675 140.557 395.675 140.557L401.713 136.143L401.721 136.138C401.814 136.167 401.907 136.196 402.001 136.228C403.398 136.674 404.675 137.082 405.374 137.303C405.409 137.676 405.452 138.042 405.505 138.399C405.921 141.218 406.863 143.488 407.846 145.2C408.62 146.544 410.017 147.408 411.57 147.504C412.1 147.539 412.612 147.576 413.098 147.613Z" fill="#FFB27D"/>
<path d="M405.505 138.4C404.047 141.056 401.286 142.216 395.705 142.867C395.643 141.37 395.675 140.557 395.675 140.557L401.713 136.143L401.721 136.141C401.814 136.17 401.908 136.199 402.001 136.229C403.398 136.674 404.676 137.082 405.375 137.303C405.409 137.677 405.452 138.042 405.505 138.4Z" fill="#ED985F"/>
<path d="M393.575 141.117C393.575 141.117 405.437 143.198 406.62 135.791C407.801 128.384 410.128 123.664 402.605 122.022C395.081 120.381 393.155 122.972 392.159 125.348C391.163 127.725 390.52 140.385 393.575 141.117Z" fill="#FFB27D"/>
<path d="M405.376 138.629C405.376 138.629 406.346 136.287 405.355 134.399C405.355 134.399 406.712 132.186 405.904 131.458C405.096 130.73 404.19 132.672 403.867 132.204C403.544 131.735 402.139 129.554 402.09 127.052C402.04 124.55 393.513 124.553 392.489 124.639C391.465 124.725 389.138 122.264 389.003 120.885C389.003 120.885 391.027 120.179 392.071 119.483C393.115 118.786 400.341 114.147 406.645 118.411C412.949 122.674 412.728 126.323 411.332 129.024C409.935 131.726 408.556 138.678 405.376 138.629Z" fill="#494949"/>
<path d="M370.897 192.955C371.311 194.025 372.296 194.999 380.385 198.702C391.929 203.99 406.256 209.277 408.997 206.908C411.131 205.065 412.149 192.452 412.626 179.313C413.193 163.74 412.705 147.584 412.705 147.584C412.705 147.584 403.323 152.675 398.536 150.597C393.818 148.55 395.277 145.498 395.338 145.396L383.131 157.383C383.131 157.383 369.894 190.358 370.897 192.955Z" fill="#F99746"/>
<path d="M380.387 198.702C391.932 203.99 406.259 209.277 408.999 206.908C411.133 205.065 412.151 192.452 412.629 179.313C412.11 171.893 411.402 166.051 411.402 166.051C411.402 166.051 405.893 178.927 400.573 182.507C388.045 190.936 371.496 187.286 380.387 198.702Z" fill="#ED7D2B"/>
<path d="M424.072 161.414C424.072 161.414 421.501 185.484 417.236 195.034C417.236 195.034 404.563 197.907 383.434 195.034L383.941 191.02C383.941 191.02 410.212 185.789 410.212 184.978C410.212 184.168 412.003 155.787 411.915 153.963C411.827 152.139 424.072 161.414 424.072 161.414Z" fill="#FFB27D"/>
<path d="M409.393 165.682C412.142 166.385 414.856 166.226 417.235 165.714C421.755 164.742 425.056 162.502 425.056 162.502C425.056 162.502 424.448 156.651 423.233 152.432C422.819 150.997 421.503 149.961 419.947 149.216C416.927 147.77 412.705 147.584 412.705 147.584C412.705 147.584 401.423 163.642 409.393 165.682Z" fill="#F99746"/>
<path d="M395.34 145.396C395.34 145.396 387.279 145.465 383.087 148.515C378.894 151.564 376.226 155.073 376.226 155.073C376.226 155.073 377.229 160.446 381.168 161.377C385.108 162.308 395.34 145.396 395.34 145.396Z" fill="#F99746"/>
<path d="M388.875 194.96C388.875 194.96 381.281 195.638 380.626 195.46C379.971 195.282 374.379 190.736 374.184 190.335C373.989 189.934 373.275 187.353 374 187.26C376.186 186.98 378.262 189.862 381.648 190.184C383.608 190.37 388.454 191.589 388.454 191.589L388.875 194.96Z" fill="#FFB27D"/>
<path d="M336.439 66.8391C363.362 66.8744 385.184 80.3467 385.18 96.9301C385.177 105.222 379.719 112.721 370.895 118.143L382.841 132.708L358.826 123.571C352.117 125.703 344.499 126.904 336.422 126.893C309.498 126.857 287.676 113.385 287.681 96.8018C287.685 80.2185 309.515 66.8037 336.439 66.8391Z" fill="#86B1F2"/>
</g>
<defs>
<filter id="filter0_f_122_1600" x="-3.03906" y="-9.33008" width="554.281" height="316.193" filterUnits="userSpaceOnUse" color-interpolation-filters="sRGB">
<feFlood flood-opacity="0" result="BackgroundImageFix"/>
<feBlend mode="normal" in="SourceGraphic" in2="BackgroundImageFix" result="shape"/>
<feGaussianBlur stdDeviation="15" result="effect1_foregroundBlur_122_1600"/>
</filter>
<clipPath id="clip0_122_1600">
<rect width="550" height="276.797" fill="white"/>
</clipPath>
</defs>
</svg>
