<svg width="550" height="373" viewBox="0 0 550 373" fill="none" xmlns="http://www.w3.org/2000/svg">
<g clip-path="url(#clip0_118_1215)">
<g filter="url(#filter0_f_118_1215)">
<path d="M60.7286 371.741H496.738C532.877 341.595 514.279 250.88 484.093 232.49C451.6 212.696 503.196 144.236 453.143 122.016C420.462 107.507 368.485 123.321 375.476 84.5039C385.171 30.6773 271.853 16.8864 188.368 31.3956C98.1115 47.082 180.534 124.206 81.2781 139.745C30.2399 147.735 40.1024 216.096 44.8613 230.223C49.0063 242.527 76.4282 262.043 38.3177 288.918C-17.5661 328.327 59.4113 371.016 60.7286 371.741Z" fill="#FFD4DD"/>
</g>
<path d="M145.424 262.781C145.548 259.775 145.107 256.807 143.768 254.008C142.616 251.601 139.765 250.234 137.165 250.231C128.91 250.22 127.86 261.174 122.606 265.399C121 266.69 119.205 267.742 117.686 269.134C112.075 274.275 114.602 283.792 119.754 288.3C123.329 291.427 128.948 293.205 133.354 290.759C135.654 289.483 137.4 287.361 138.643 285.037C140.409 281.738 141.547 277.931 142.803 274.415C144.139 270.672 145.259 266.776 145.424 262.781Z" fill="#13375B"/>
<path d="M146.772 277.337C144.194 269.515 140.79 269.637 140.79 269.637L143.54 286.292C145.132 285.857 147.206 284.888 148.796 284.439C148.269 281.966 147.407 279.263 146.772 277.337Z" fill="#F7CC7F"/>
<path d="M159.804 304.014L150.377 296.823C150.377 296.823 149.428 290.114 148.159 284.16C146.568 284.61 145.132 285.857 143.54 286.293L145.937 299.625L158.293 305.999L161.782 310.484L162.576 305.88L159.804 304.014Z" fill="#F48C7F"/>
<path d="M233.927 301.822C236.417 301.822 238.752 302.477 240.772 303.625C241.027 303.77 241.304 303.903 241.599 304.024C247.759 306.554 254.499 301.868 254.499 295.209V262.458H221.748C215.089 262.458 210.404 255.718 212.933 249.558C213.055 249.262 213.187 248.985 213.332 248.73C214.48 246.711 215.136 244.375 215.136 241.886C215.136 233.998 208.559 227.646 200.59 228.015C193.378 228.349 187.571 234.273 187.369 241.49C187.298 244.056 187.923 246.471 189.071 248.558C189.214 248.818 189.345 249.1 189.465 249.4C191.974 255.66 187.214 262.458 180.469 262.458H148V337.083C148 354.687 162.27 368.957 179.874 368.957H254.499V336.316C254.499 329.624 247.737 324.909 241.539 327.43C241.242 327.551 240.964 327.683 240.708 327.827C238.5 329.066 235.918 329.719 233.174 329.574C226.103 329.2 220.391 323.454 220.057 316.381C219.681 308.406 226.035 301.822 233.927 301.822Z" fill="#F47458"/>
<path d="M215.872 215.651C216.002 218.246 215.441 220.716 214.35 222.881C214.212 223.155 214.089 223.451 213.978 223.765C211.663 230.319 216.901 237.102 223.844 236.752L257.99 235.035L256.273 200.89C255.924 193.947 262.706 188.708 269.261 191.023C269.575 191.134 269.871 191.257 270.145 191.395C272.31 192.486 274.779 193.047 277.375 192.917C285.599 192.503 291.876 185.313 291.074 177.024C290.348 169.523 283.867 163.778 276.333 163.947C273.653 164.006 271.168 164.786 269.052 166.091C268.789 166.254 268.502 166.405 268.196 166.546C261.8 169.491 254.463 164.884 254.109 157.852L252.407 124L174.603 127.912C156.25 128.835 142.12 144.462 143.043 162.815L146.955 240.619L180.987 238.907C187.964 238.557 192.525 231.259 189.571 224.929C189.43 224.626 189.278 224.343 189.115 224.083C187.707 221.846 186.89 219.189 186.898 216.32C186.917 208.928 192.609 202.672 199.965 201.953C208.26 201.143 215.458 207.422 215.872 215.651Z" fill="#49BA98"/>
<path d="M298.572 192.136C296.083 192.136 293.747 191.48 291.728 190.332C291.472 190.187 291.195 190.054 290.901 189.934C284.74 187.404 278 192.089 278 198.748V231.499H310.751C317.41 231.499 322.096 238.24 319.566 244.4C319.445 244.695 319.312 244.972 319.167 245.227C318.019 247.246 317.364 249.582 317.364 252.071C317.364 259.959 323.94 266.311 331.91 265.942C339.121 265.608 344.929 259.684 345.13 252.468C345.202 249.901 344.576 247.487 343.429 245.399C343.286 245.139 343.155 244.858 343.035 244.558C340.525 238.297 345.285 231.499 352.03 231.499H384.499V156.874C384.499 139.271 370.229 125 352.625 125H278V157.642C278 164.334 284.762 169.049 290.961 166.527C291.257 166.406 291.535 166.275 291.792 166.131C294 164.891 296.581 164.238 299.326 164.383C306.397 164.757 312.108 170.504 312.442 177.577C312.819 185.552 306.464 192.136 298.572 192.136Z" fill="#3E5F72"/>
<path d="M119.619 359.554C119.619 359.554 119.037 363.597 118.036 364.902C117.701 365.34 117.087 365.894 116.684 366.685C116.058 367.917 116.404 369.751 116.866 370.762C117.104 371.28 116.85 371.279 117.39 371.446C118.991 371.94 120.693 371.107 121.375 369.571C121.755 368.713 122.089 367.568 122.156 366.125C122.327 362.454 123.466 360.588 123.466 360.588L119.619 359.554Z" fill="#F7A491"/>
<path d="M137.123 361.403C137.123 361.403 137.482 365.962 137.191 367.444C137.035 368.238 136.166 369.871 136.565 370.617C136.963 371.364 137.419 371.551 137.419 371.551L147.752 371.718C148.315 371.727 147.943 371.364 147.489 371.029C146.746 370.482 146.147 370.12 143.774 368.969C143.619 368.894 143.056 368.535 142.853 368.411C142.337 368.096 141.82 367.599 141.374 367.102C140.633 366.274 140.568 362.259 140.568 362.259L137.123 361.403Z" fill="#F7A491"/>
<path d="M145.199 300.799C145.199 300.799 146.501 308.202 145.646 313.055C144.792 317.908 140.691 362.892 140.691 362.892L136.134 363.15C136.134 363.15 135.179 344.359 135.35 341.746C135.521 339.132 136.873 334.759 136.873 334.759L136.42 319.588L142.17 299.657L145.199 300.799Z" fill="#355389"/>
<path d="M131.807 299.242C131.807 299.242 128.218 304.655 127.364 309.135C126.51 313.615 127.991 327.382 126.348 333.253C125.458 336.43 122.086 341.338 121.574 345.444C121.061 349.551 119.05 360.307 119.05 360.307L123.605 361.212L134.191 334.349L142.494 310.068L144.621 297.563L131.807 299.242Z" fill="#466EB6"/>
<path d="M134.711 268.444C134.711 268.444 129.961 268.14 128.081 270.194C126.202 272.247 132.25 288.489 132.592 291.102C132.934 293.715 130.85 300.664 130.85 300.664C130.85 300.664 142.01 302.915 145.2 300.799C145.2 300.799 145.541 282.008 145.2 280.141C144.858 278.275 142.01 270.684 141.326 269.937C140.643 269.19 134.711 268.444 134.711 268.444Z" fill="#F7CC7F"/>
<path d="M136.293 262.081C136.293 262.081 136.269 262.221 136.225 262.46C136.013 263.605 135.197 267.402 134.646 268.447C133.98 269.708 136.926 273.732 139.761 273.241C140.605 273.095 139.048 269.544 139.123 269.168C139.266 268.448 139.46 267.465 139.659 266.458C139.771 265.89 139.885 265.314 139.991 264.773C140.294 263.234 140.542 261.975 140.542 261.975L136.293 262.081Z" fill="#F7A491"/>
<path d="M136.224 262.46C136.268 262.221 136.293 262.081 136.293 262.081L140.542 261.975C140.542 261.975 140.294 263.233 139.991 264.772C139.885 265.31 139.772 265.883 139.66 266.448C139.004 266.351 138.319 266.032 137.632 265.429C136.883 264.772 136.392 263.982 136.095 263.138C136.148 262.869 136.191 262.638 136.224 262.46Z" fill="#F47458"/>
<path d="M139.152 252.402C139.152 252.402 137.15 252.17 135.894 253.798C134.639 255.425 133.286 260.457 136.404 263.192C139.523 265.928 142.603 262.831 143.06 259.548C143.517 256.264 143.695 252.284 139.152 252.402Z" fill="#F7A491"/>
<path d="M143.983 259.5C143.611 260.225 142.986 260.626 142.588 260.396C142.189 260.167 142.168 259.392 142.54 258.667C142.912 257.942 143.537 257.541 143.936 257.77C144.334 258 144.355 258.774 143.983 259.5Z" fill="#F7A491"/>
<path d="M139.376 251.864C139.376 251.864 136.701 256.649 134.787 256.87C132.873 257.091 132.622 259.634 132.622 259.634C132.622 259.634 133.306 253.775 135.201 252.645C137.096 251.516 139.376 251.864 139.376 251.864Z" fill="#13375B"/>
<path d="M121.685 368.763C119.203 369.216 117.551 367.761 116.691 366.671C116.06 367.906 115.752 369.747 116.217 370.761C116.625 371.655 117.82 371.629 118.761 371.664C119.755 371.701 120.524 371.147 121.018 370.279C121.248 369.874 121.486 369.369 121.685 368.763Z" fill="#F47458"/>
<path d="M142.851 368.41C140.118 369.113 138.098 368.635 136.968 368.178C136.677 369.006 136.291 370.045 136.495 370.644C136.746 371.377 137.104 371.542 137.419 371.551C139.915 371.616 146.562 371.706 148.466 371.731C148.731 371.734 148.878 371.423 148.707 371.218C148.235 370.653 143.055 368.535 142.851 368.41Z" fill="#F47458"/>
<path d="M135.289 258.073C135.445 258.923 135.132 259.702 134.59 259.814C134.048 259.925 133.483 259.327 133.327 258.477C133.171 257.627 133.484 256.848 134.026 256.736C134.568 256.625 135.133 257.223 135.289 258.073Z" fill="#F7A491"/>
<path d="M138.414 261.016L140.83 261.125C140.83 261.125 140.733 262.04 139.669 262.022C138.372 262.001 138.414 261.016 138.414 261.016Z" fill="white"/>
<path d="M338.11 82.7131C338.41 82.7256 339.235 83.0015 340.44 85.2795C341.979 88.1885 344.229 96.9765 344.229 96.9765L337.514 99.4774L336.651 97.6432L335.23 83.5218C335.23 83.5218 338.026 82.7097 338.11 82.7131Z" fill="#DD513A"/>
<path d="M329.232 81.4466C331.152 81.449 335.904 82.0094 338.109 82.7139C338.109 82.7139 339.729 96.6383 336.651 107.219C335.962 109.588 337.221 117.037 337.221 117.037L317.322 116.775C317.322 116.775 319.68 98.7646 318.792 95.8555C317.903 92.9464 317.882 82.8077 317.882 82.8077C317.882 82.8077 318.019 82.7865 322.353 82.0374C324.375 81.6876 327.182 81.4439 329.232 81.4466Z" fill="#F47458"/>
<path d="M326.913 142.881C326.913 142.881 327.354 147.962 328.163 149.369C328.972 150.776 328.12 153.168 328.078 153.496C328.035 153.825 326.374 154.294 323.733 154.012C321.092 153.731 321.134 153.121 321.347 152.136C321.56 151.151 322.966 149.885 323.051 148.947C323.136 148.009 322.242 144.632 322.242 144.632L326.913 142.881Z" fill="#F7A491"/>
<path d="M334.975 112.843C334.975 112.843 348.712 112.081 351.779 113.938C354.846 115.796 349.6 124.913 349.6 124.913C349.6 124.913 340.041 124.473 321.32 125.553C316.887 125.809 316.504 113.994 317.334 113.016C318.163 112.038 334.975 112.843 334.975 112.843Z" fill="#E0973F"/>
<path d="M323.404 154.407C320.684 154.117 321.02 152.781 321.239 151.767C321.377 151.132 322.157 150.383 322.622 149.675C322.865 149.869 323.261 150.211 324.442 150.56C325.668 150.922 327.349 150.205 328.421 149.756C328.803 151.177 328.82 152.989 328.784 153.264C328.741 153.602 326.123 154.697 323.404 154.407Z" fill="#DD513A"/>
<path d="M324.904 122.67C325.453 126.823 328.17 147.496 328.17 147.496L321.866 148.278C321.866 148.278 314.112 121.295 314.51 117.168C314.908 113.04 317.81 112.693 317.81 112.693C317.81 112.693 323.452 111.678 324.904 122.67Z" fill="#F7CC7F"/>
<path d="M317.665 84.3554C319.526 83.6576 320.436 100.421 320.687 107.321C323.982 107.638 329.724 107.323 331.154 107.216C331.827 107.165 333.377 106.597 334.046 106.51C334.731 106.42 335.353 106.373 335.69 106.432C335.813 106.453 339.247 107.858 339.541 108.166C339.906 108.548 340.891 109.511 340.724 109.928C340.558 110.344 338.83 108.767 338.83 108.767L337.985 108.293C339.037 109.32 341.042 110.673 340.753 111.165C340.472 111.646 338.663 110.273 337.374 109.337C338.479 110.336 339.853 112.123 339.537 112.402C339.252 112.652 337.69 110.583 336.019 109.987C335.401 109.767 334.784 110.378 334.297 110.452C333.939 110.506 333.387 110.622 333.036 110.522L331.228 110.009C330.612 110.065 330.596 110.43 329.974 110.562C329.252 110.716 328.067 110.877 327.148 111.102C321.852 112.396 320.086 112.997 318.464 112.996C313.553 112.993 313.268 86.0049 317.665 84.3554Z" fill="#F7A491"/>
<path d="M314.135 100.093C313.786 93.0258 313.837 84.3144 317.799 82.8283C319.362 82.2419 322.118 85.7679 321.623 100.237C319.508 100.411 316.402 100.552 314.135 100.093Z" fill="#DD513A"/>
<path d="M345.35 147.228C345.35 147.228 344.8 148.991 345.785 150.158C346.77 151.324 350.863 152.469 351.4 153.1C351.938 153.732 351.897 154.27 351.897 154.27L340.409 153.954L340.534 150.484L341.063 147.991L345.35 147.228Z" fill="#F7A491"/>
<path d="M346.499 150.739C346.499 150.739 343.547 151.933 342.122 151.226C340.696 150.519 340.739 150.323 340.326 150.587C339.913 150.851 339.766 154.103 339.766 154.103L352.684 154.483C353.583 154.462 354.037 153.8 353.307 153.233C352.806 152.845 352.228 152.585 351.899 152.396C350.888 151.817 346.499 150.739 346.499 150.739Z" fill="#DD513A"/>
<path d="M344.915 116.1C345.802 114.231 347.822 111.798 351.375 113.263C354.764 114.661 355.674 118.096 354.604 121.613C353.535 125.13 346.496 145.805 346.251 148.648L340.63 148.685C340.63 148.685 341.652 132.314 341.902 128.357C342.143 124.549 343.378 119.334 344.915 116.1Z" fill="#F7CC7F"/>
<path d="M354.038 97.0566H335.251C334.754 97.0566 334.306 97.358 334.118 97.8195L328.333 111.976H317.975C317.685 111.976 317.451 112.212 317.451 112.502C317.451 112.793 317.686 113.028 317.975 113.028H347.454C348.264 113.028 348.999 112.551 349.331 111.809L355.156 98.7894C355.52 97.9758 354.927 97.0566 354.038 97.0566Z" fill="black"/>
<path d="M343.923 105.3C343.796 105.936 343.243 106.361 342.688 106.25C342.134 106.139 341.787 105.533 341.913 104.897C342.04 104.261 342.593 103.836 343.148 103.947C343.703 104.059 344.05 104.664 343.923 105.3Z" fill="white"/>
<path d="M333.697 64.4399C333.131 64.2492 332.573 64.034 332.035 63.7744C331.426 63.4809 330.638 63.1373 330.14 63.0603C329.091 62.8985 327.29 63.0063 326.295 64.0855C325.056 65.4298 322.854 64.3282 323.298 71.369C323.8 79.3385 328.231 78.4638 328.339 78.3288C328.446 78.1938 332.291 73.2304 332.291 73.2304C332.291 73.2304 333.635 76.1708 333.635 76.0628C333.635 75.9587 340.498 66.7305 333.697 64.4399Z" fill="#0E2E35"/>
<path d="M330.333 78.9173L330.715 81.7649C330.715 81.7649 331.572 85.8676 330.47 86.6584C329.368 87.4493 325.782 81.6479 325.782 81.6479L326.161 74.4324L330.333 78.9173Z" fill="#F7A491"/>
<path d="M326.038 76.7709C326.949 79.2319 329.118 80.7447 330.657 81.3317L330.333 78.9173L326.161 74.4324L326.038 76.7709Z" fill="#F47458"/>
<path d="M330.107 66.5801C332.443 66.203 334.538 68.0818 334.48 70.4203C334.454 71.4369 334.371 72.706 334.16 74.0727C333.652 77.3598 331.409 80.2545 329.926 79.996C328.443 79.7376 324.712 76.9019 325.369 72.2241C325.774 69.336 327.655 66.976 330.107 66.5801Z" fill="#F7A491"/>
<path d="M326.398 72.7826C326.273 73.5055 325.693 74.0082 325.104 73.9056C324.515 73.803 324.139 73.1337 324.264 72.4108C324.389 71.6881 324.968 71.1853 325.557 71.2879C326.147 71.3904 326.523 72.0597 326.398 72.7826Z" fill="#F7A491"/>
<path d="M325.557 71.2877C325.557 71.2877 327.35 71.7332 328.016 70.5799C328.681 69.4267 331.06 66.9383 334.085 67.97C337.109 69.0018 331.423 65.4613 331.181 65.4613C330.939 65.4613 328.036 65.4412 328.036 65.4412C328.036 65.4412 325.798 67.2823 325.717 67.4846C325.636 67.687 324.991 69.8923 324.991 69.8923L325.557 71.2877Z" fill="#0E2E35"/>
<path d="M328.838 76.0991L332.1 76.7229C332.1 76.7229 331.789 77.9517 330.347 77.7191C328.588 77.4354 328.838 76.0991 328.838 76.0991Z" fill="white"/>
<path d="M380.517 296.762C382.608 297.102 382.485 297.443 382.754 297.479C383.072 297.522 386.848 295.626 386.848 295.626C386.848 295.626 398.014 290.115 398.606 289.795L406.666 279.655L412.877 282.52C412.877 282.52 403.812 293.3 403.239 293.775C402.665 294.25 386.655 299.864 385.263 300.406C385.263 300.406 383.859 301.689 382.951 302.464C382.043 303.239 380.828 303.546 380.538 303.723C380.495 303.749 379.493 304.278 378.077 304.586C376.857 304.851 377.874 304.022 377.874 304.022C377.874 304.022 380.032 303.111 379.926 302.947C379.845 302.82 378.697 303.389 377.351 303.698C377.004 303.777 376.662 303.854 376.348 303.922C375.521 304.101 375.158 303.628 375.989 303.298C376.282 303.182 376.774 303.001 377.145 302.924C377.545 302.84 377.881 302.63 378.205 302.507C378.849 302.262 379.321 302.092 379.296 302.07C379.263 302.041 379.353 301.899 378.983 301.971C378.537 302.058 377.639 302.459 376.972 302.534C376.594 302.577 375.812 302.716 375.812 302.716C375.812 302.716 374.426 302.848 374.417 302.654C374.396 302.23 375.249 301.993 375.773 302.004C376.103 301.835 376.932 301.713 376.932 301.713C376.932 301.713 378.538 301.079 378.445 300.841C378.408 300.746 377.435 300.893 376.403 300.963C375.312 301.038 374.521 301.038 374.463 300.826C374.371 300.491 375.239 300.364 375.239 300.364C375.239 300.364 376.005 300.253 376.256 300.195C376.55 300.128 377.412 299.858 377.412 299.858C377.412 299.858 380.368 298.772 380.261 298.554C380.154 298.336 379.666 297.88 379.458 297.881C379.249 297.882 378.877 298.09 378.668 298.091C378.46 298.092 378.012 298.052 377.98 297.79C377.949 297.528 379.106 296.985 379.106 296.985C379.106 296.985 379.913 296.665 380.517 296.762Z" fill="#F8A492"/>
<path d="M401.057 285.935C401.057 285.935 403.067 287.762 403.904 288.363C404.599 288.863 407.987 290.495 407.987 290.495C407.987 290.495 411.358 285.333 412.832 282.745C414.62 279.605 415.858 274.935 415.435 274.809C414.249 274.453 412.617 274.236 411.11 274.928C405.894 277.321 401.057 285.935 401.057 285.935Z" fill="#355389"/>
<path d="M382.47 299.46C381.575 299.601 380.66 299.431 380.264 298.612C380.174 299.583 381.647 300.065 382.47 299.46Z" fill="#FE875E"/>
<path d="M434.06 365.05C434.06 365.05 434.283 369.002 434.285 369.01C434.367 369.511 434.69 370.751 434.69 371.207C434.69 372.921 427.088 369.753 428.791 368.993C428.946 368.925 429.753 368.405 429.804 367.822C429.882 366.923 430.08 365.105 430.08 365.105L434.06 365.05Z" fill="#F7A491"/>
<path d="M428.719 369.01C428.719 369.01 430.503 369.534 431.417 369.665C432.332 369.796 433.537 368.693 434.183 368.991C434.895 369.319 434.867 372.272 434.867 372.272C434.867 372.272 425.296 373.113 422.605 372.243C421.539 371.898 425.07 370.231 428.719 369.01Z" fill="#F7CC7F"/>
<path d="M446.72 364.845C446.72 364.845 446.943 368.797 446.944 368.805C447.026 369.307 447.349 370.546 447.349 371.002C447.349 372.716 439.747 369.548 441.451 368.789C441.605 368.72 442.652 367.812 442.703 367.229C442.781 366.33 442.74 364.901 442.74 364.901L446.72 364.845Z" fill="#F7A491"/>
<path d="M441.47 368.772C441.47 368.772 443.254 369.296 444.169 369.427C445.083 369.558 446.288 368.455 446.934 368.753C447.646 369.081 447.675 372.034 447.675 372.034C447.675 372.034 438.172 372.424 435.356 372.005C434.248 371.84 437.821 369.993 441.47 368.772Z" fill="#F7CC7F"/>
<path d="M444.465 302.079C444.465 302.079 445.753 308.745 445.228 313.799C444.703 318.854 444.662 336.809 444.662 336.809L447.084 365.528L441.912 365.649C441.912 365.649 436.275 336.934 436.38 337.671C436.485 338.408 434.49 317.453 434.49 317.453L441.21 301.447L444.465 302.079Z" fill="#355389"/>
<path d="M442.663 297.773C442.663 297.773 448.499 303.921 446.328 310.636C445.456 313.333 437.322 339.099 437.217 341.205C437.112 343.311 434.466 366.59 434.466 366.59L428.939 366.423L427.743 340.542L429.323 305.671L432.678 299.79L442.663 297.773Z" fill="#466EB6"/>
<path d="M407.228 277.765C409.139 275.632 413.299 272.598 413.299 272.598C413.299 272.598 415.777 270.481 416.788 270.133C418.275 269.62 420.821 268.253 424.505 273.835C427.141 277.831 443.775 298.517 446.505 299.213L428.674 307.744C428.186 303.669 419.373 295.972 418.105 294.536C415.27 291.326 405.419 279.783 407.228 277.765Z" fill="#F47458"/>
<path d="M408.06 269.098L413.614 272.349C413.614 272.349 413.771 277.091 411.955 278.322C410.431 279.355 409.272 276.875 409.272 276.875C409.272 276.875 407.206 274.013 405.637 273.122C404.068 272.23 408.06 269.098 408.06 269.098Z" fill="#F7A491"/>
<path d="M408.992 271.184C408.783 272.173 408.299 273.603 407.55 274.781C406.939 274.119 406.251 273.47 405.638 273.121C404.914 272.71 405.374 271.821 406.08 270.983C407.077 269.946 408.06 269.097 408.06 269.097L409.128 269.722C409.196 270.127 409.061 270.855 408.992 271.184Z" fill="#F47458"/>
<path d="M405.167 260.948C405.26 260.833 409.826 266.516 409.263 269.182C408.7 271.848 405.94 274.281 404.021 273.612C401.899 272.872 397.954 266.181 399.369 262.933C400.784 259.684 405.167 260.948 405.167 260.948Z" fill="#F7A491"/>
<path d="M400.167 259.155C402.158 258.048 405.405 257.73 407.83 259C410.813 260.562 411.492 264.491 410.559 266.888C409.625 269.285 410.694 270.64 410.694 270.64L409.112 269.716C409.112 269.716 408.188 268.273 408.067 267.123C407.946 265.974 406.269 266.177 405.45 265.656C404.82 265.254 404.015 263.95 402.995 263.273C402.995 263.273 400.427 262.958 399.164 263.667C397.01 264.875 397.317 260.741 400.167 259.155Z" fill="#13375B"/>
<path d="M406.734 266.614C406.719 267.467 407.122 268.165 407.634 268.173C408.146 268.182 408.573 267.497 408.587 266.645C408.602 265.792 408.199 265.094 407.687 265.086C407.175 265.077 406.749 265.761 406.734 266.614Z" fill="#F7A491"/>
<path d="M402.057 271.14L404.474 269.332C404.474 269.332 405.113 270.309 404.074 271.135C402.806 272.142 402.057 271.14 402.057 271.14Z" fill="white"/>
<path d="M395.986 307.095C396.592 306.211 396.856 304.934 397.693 303.96C397.974 303.633 398.422 303.265 398.931 302.897C402.959 300.541 413.45 294.467 413.858 293.995C414.342 293.437 421.503 281.54 421.503 281.54L415.072 280.083L408.787 291.181C408.262 291.597 398.286 298.97 398.286 298.97C398.286 298.97 396.302 300.52 395.218 301.246C394.67 301.566 394.139 301.772 393.674 301.934C393.088 302.138 391.973 302.694 391.747 302.892C391.486 303.123 390.961 303.616 390.649 303.917C390.338 304.217 389.959 304.558 389.814 304.736C389.725 304.845 389.449 304.996 389.247 305.097C388.945 305.247 388.984 305.693 389.308 305.785C389.614 305.872 390.026 305.68 390.282 305.56C391.004 305.22 391.887 304.304 391.933 304.416C391.98 304.528 391.084 306.491 390.996 306.722C390.908 306.954 389.879 309.241 389.827 309.751C389.774 310.261 390.081 310.379 390.31 310.193C390.506 310.032 392.161 306.977 392.161 306.977C392.161 306.977 392.373 306.588 392.455 306.811C392.538 307.034 391.041 309.81 390.895 310.266C390.748 310.722 390.865 311.095 391.286 310.935C391.799 310.741 393.214 307.679 393.214 307.679C393.214 307.679 393.398 307.298 393.524 307.431C393.65 307.563 392.337 309.904 392.322 310.174C392.308 310.444 392.551 310.71 392.905 310.484C393.322 310.219 394.562 307.474 394.562 307.474C394.562 307.474 394.716 307.293 394.764 307.42C394.812 307.548 393.835 309.624 393.908 309.927C393.969 310.182 394.198 310.131 394.198 310.131C394.709 310.129 395.381 307.98 395.986 307.095Z" fill="#F8A492"/>
<path d="M419.741 287.824C419.741 287.824 417.647 287.158 416.304 286.543C415.404 286.131 411.479 284.178 411.479 284.178C411.479 284.178 413.172 277.041 414.315 274.474C418.513 265.056 423.283 271.551 423.931 273.065C425.378 276.452 419.741 287.824 419.741 287.824Z" fill="#355389"/>
<path d="M213.924 80.3506C214.887 78.0318 215.867 75.7083 218.367 74.5339C220.391 73.5836 222.504 73.9414 224.302 75.2932C229.396 79.1236 224.957 83.3438 230.756 90.6072C232.557 92.8642 234.738 94.6866 235.817 97.3314C237.329 101.033 235.529 102.811 232.644 104.584C218.843 113.067 211.608 95.6495 211.868 91.665C212.061 88.7007 213.304 81.8433 213.924 80.3506Z" fill="#13375B"/>
<path d="M199.601 125.496C200.183 125.404 201.596 124.392 202.094 124.3C202.481 124.229 203.317 124.102 203.673 124.049C204.11 122.419 206.327 113.533 206.575 110.928C206.844 108.106 208.839 95.8977 208.839 95.8977L214.007 96.8369C214.007 96.8369 211.861 106.228 211.267 110.782C210.758 114.694 206.466 123.488 205.921 124.416C205.92 124.438 205.92 124.46 205.918 124.484C205.835 125.864 205.17 125.404 205.17 125.404L204.089 125.68C204.089 125.68 200.265 126.048 200.016 126.14C199.767 126.233 199.019 125.588 199.601 125.496Z" fill="#F7A491"/>
<path d="M213.345 88.7612C209.692 89.9997 207.615 99.9305 207.615 99.9305C207.615 99.9305 213.346 101.53 214.815 100.691C214.815 100.691 216.481 93.3036 217.079 93.5617L213.345 88.7612Z" fill="#6A97CE"/>
<path d="M185.089 142.654C183.971 145.602 183.392 148.441 183.339 148.784C183.314 148.949 183.547 149.751 183.526 149.922C181.282 152.983 178.057 153.652 175.293 153.847C176.702 152.472 178.771 151.169 178.87 150.734C179.028 150.04 179.879 146.953 180.298 142.675C182.017 143.47 183.183 142.84 185.089 142.654Z" fill="#F7A491"/>
<path d="M216.88 109.676L221.817 123.579C221.817 123.579 213.884 125.073 210.918 125.617C207.952 126.161 191.382 126.884 190.962 127.179C190.65 127.397 187.227 138.468 185.698 144.573C183.963 144.955 180.994 144.496 179.415 143.952C180.268 135.217 183.351 121.379 184.338 119.872C185.945 117.419 216.88 109.676 216.88 109.676Z" fill="#256653"/>
<path d="M197.595 148.749C197.049 151.854 197.012 154.752 197.025 155.099C197.031 155.266 197.41 156.009 197.421 156.182C195.791 159.608 192.749 160.87 190.07 161.58C191.196 159.965 192.984 158.297 193 157.851C193.026 157.14 193.283 153.948 192.892 149.668C194.73 150.126 195.758 149.289 197.595 148.749Z" fill="#F7A491"/>
<path d="M222.643 110.397L224.558 113.668C227.473 118.647 225.238 125.053 219.859 127.14C219.83 127.151 219.802 127.162 219.774 127.173C216.962 128.263 200.821 132.079 200.464 132.447C200.198 132.72 198.911 144.236 198.553 150.519C196.92 151.219 193.918 151.326 192.264 151.087C191.465 142.347 191.9 128.176 192.587 126.511C193.707 123.8 222.643 110.397 222.643 110.397Z" fill="#327F6B"/>
<path d="M196.778 155.195C197.208 154.721 198.785 157.333 199.179 157.89C199.623 158.517 199.497 158.99 199.444 159.088C199.304 159.346 190.984 164.241 188.954 164.59C188.763 164.623 188.431 164.502 188.347 164.428C187.554 163.725 191.204 158.543 192.843 157.861C193.903 157.421 194.844 157.331 196.778 155.195Z" fill="#13375B"/>
<path d="M183.074 148.878C183.585 148.493 184.645 151.354 184.928 151.976C185.246 152.675 185.034 153.115 184.963 153.202C184.777 153.429 175.687 156.679 173.629 156.641C173.434 156.637 173.131 156.456 173.062 156.368C172.415 155.529 176.972 151.122 178.71 150.76C179.833 150.526 180.775 150.614 183.074 148.878Z" fill="#13375B"/>
<path d="M216.81 88.7326C216.715 88.7332 216.58 88.7001 216.441 88.6566C215.763 88.5353 214.279 88.3576 213.125 88.8446C211.722 89.4368 209.547 94.9701 209.676 100.65C209.728 101.518 209.781 102.295 209.825 102.837C210.18 107.128 211.411 115.178 211.477 115.221C213.151 116.299 223.254 112.12 223.948 111.203C224.642 110.285 225.052 99.1334 225.39 98.5775L226.053 88.8793C224.882 88.5295 218.606 88.7198 216.81 88.7326Z" fill="#9BC1F9"/>
<path d="M220.904 85.1613C220.904 85.1613 220.253 88.5257 220.383 89.8528C220.514 91.1799 219.887 95.457 217.078 95.4712C214.269 95.4853 216.545 90.0332 216.809 88.7327C217.074 87.4322 217.137 83.4065 217.137 83.4065L220.904 85.1613Z" fill="#F7A491"/>
<path d="M222.281 75.8759C222.281 75.8759 223.732 76.6811 224.263 78.4265C224.794 80.1719 224.19 84.6757 220.44 85.7623C216.69 86.849 215.066 83.2827 215.838 80.4947C216.61 77.7065 218.29 74.1757 222.281 75.8759Z" fill="#F7A491"/>
<path d="M215.369 79.4139C215.443 80.1628 215.856 80.735 216.292 80.6923C216.728 80.6495 217.022 80.0077 216.949 79.259C216.875 78.5101 216.462 77.9376 216.026 77.9805C215.59 78.0232 215.296 78.6649 215.369 79.4139Z" fill="#F7A491"/>
<path d="M221.841 75.6482C221.841 75.6482 222.521 80.6723 224.145 81.579C225.769 82.4855 225.089 84.7143 225.089 84.7143C225.089 84.7143 226.563 79.5391 225.278 77.877C223.994 76.2149 221.841 75.6482 221.841 75.6482Z" fill="#13375B"/>
<path d="M223.183 82.3001C222.743 82.9547 222.745 83.7268 223.187 84.0245C223.629 84.3222 224.345 84.0329 224.786 83.3783C225.226 82.7238 225.224 81.9517 224.782 81.654C224.339 81.3563 223.624 81.6456 223.183 82.3001Z" fill="#F7A491"/>
<path d="M217.72 82.5796L220.362 83.2447C220.362 83.2447 220.045 84.2484 218.874 83.99C217.446 83.6748 217.72 82.5796 217.72 82.5796Z" fill="white"/>
<path d="M242.491 124.494C242.444 124.373 242.339 124.371 242.231 124.368C241.185 124.336 240.141 124.289 239.104 124.134C238.931 124.108 238.761 124.069 238.601 124.005C238.313 123.89 238.028 123.893 237.737 123.974C237.579 124.017 237.419 124.026 237.256 124.025C236.731 124.022 235.231 123.512 234.46 123.377C234.284 123.347 234.144 123.214 234.101 123.04C233.343 120.042 231.717 113.316 231.506 111.104C231.236 108.275 229.283 95.5225 229.283 95.5225L224.057 96.9799C224.057 96.9799 226.208 106.393 226.803 110.958C227.262 114.483 230.784 121.962 231.888 124.113C232.428 125.714 233.638 125.758 233.919 125.793C234.08 125.812 234.228 125.891 234.334 126.014C234.524 126.237 234.743 126.43 234.993 126.588C235.178 126.705 235.321 126.857 235.443 127.035C235.665 127.36 235.863 127.698 236.06 128.038C236.19 128.264 236.327 128.335 236.52 128.282C236.727 128.225 236.826 128.072 236.822 127.819C236.816 127.445 236.697 127.108 236.51 126.789C236.334 126.491 236.347 126.318 236.552 126.043C236.669 125.885 236.79 125.732 236.944 125.607C237.101 125.479 237.266 125.383 237.479 125.412C237.854 125.506 238.233 125.582 238.618 125.625L238.935 125.689C238.946 125.691 239.107 125.726 239.107 125.726C239.134 125.733 239.69 125.794 239.88 125.794C240.033 125.794 240.281 125.804 240.492 125.814C240.682 125.823 241.086 125.724 241.1 125.723C241.285 125.719 241.449 125.652 241.588 125.528C241.644 125.477 241.699 125.42 241.67 125.333C241.644 125.254 241.581 125.22 241.5 125.205C241.375 125.183 240.726 125.104 240.733 125.076C240.926 125.076 241.53 125.062 241.722 125.057C241.982 125.05 242.207 124.957 242.386 124.765C242.457 124.689 242.539 124.614 242.491 124.494Z" fill="#F7A491"/>
<path d="M226.117 88.8586C228.696 88.3896 230.824 99.9305 230.824 99.9305C230.824 99.9305 225.093 101.53 223.625 100.691C223.625 100.691 221.958 93.3036 221.361 93.5617L226.117 88.8586Z" fill="#9BC1F9"/>
<path d="M151.743 281.05C151.914 280.561 149.535 280.166 149.409 279.671C149.282 279.176 152.412 279.138 152.524 278.703C152.731 277.902 149.093 278.534 149.165 278.16C149.237 277.785 152.955 276.949 152.553 276.306C152.152 275.663 148.788 277.576 148.686 277.14C148.584 276.704 151.974 275.643 151.913 274.687C151.881 274.176 146.349 277.235 145.708 276.957C145.066 276.679 146.398 274.278 145.887 273.921C145.377 273.565 143.911 278.802 143.558 278.977C143.207 279.151 135.733 283.416 133.074 284.094C132.751 283.204 132.053 282.002 131.769 281.16C130.277 282.222 129.169 282.755 127.629 283.723C128.745 286.519 130.333 289.579 131.11 289.93C133.476 291 142.628 283.409 144.455 282.11C146.283 280.81 147.329 281.232 148.566 280.821C149.802 280.411 151.572 281.539 151.743 281.05Z" fill="#F7A491"/>
<path d="M127.31 285.065C127.31 285.065 125.261 276.018 125.617 273.394C125.972 270.77 129.091 268.324 131.252 269.231C133.414 270.139 134.393 282.768 134.393 282.768L127.31 285.065Z" fill="#F7CC7F"/>
<path d="M317.685 279.4C317.806 276.801 318.605 274.394 319.902 272.342C320.066 272.082 320.218 271.8 320.359 271.498C323.301 265.19 318.738 257.924 311.785 257.599L277.591 256L275.993 290.194C275.668 297.146 268.402 301.709 262.094 298.767C261.792 298.626 261.509 298.474 261.25 298.31C259.197 297.014 256.791 296.215 254.192 296.094C245.956 295.709 239.004 302.265 239 310.604C238.997 318.149 244.898 324.502 252.423 325.064C255.099 325.264 257.65 324.728 259.885 323.632C260.164 323.496 260.464 323.373 260.783 323.262C267.442 320.947 274.307 326.249 273.978 333.291L272.393 367.191L350.306 370.833C368.685 371.692 384.281 357.49 385.14 339.111L388.782 261.198L354.702 259.605C347.715 259.278 342.463 266.108 344.793 272.703C344.905 273.018 345.029 273.315 345.166 273.589C346.353 275.955 346.908 278.682 346.623 281.541C345.888 288.905 339.609 294.588 332.208 294.591C323.864 294.595 317.3 287.639 317.685 279.4Z" fill="#FFC54E"/>
</g>
<defs>
<filter id="filter0_f_118_1215" x="-12" y="-4" width="1260.9" height="416.095" filterUnits="userSpaceOnUse" color-interpolation-filters="sRGB">
<feFlood flood-opacity="0" result="BackgroundImageFix"/>
<feBlend mode="normal" in="SourceGraphic" in2="BackgroundImageFix" result="shape"/>
<feGaussianBlur stdDeviation="15" result="effect1_foregroundBlur_118_1215"/>
</filter>
<clipPath id="clip0_118_1215">
<rect width="550" height="372.405" fill="white"/>
</clipPath>
</defs>
</svg>
