<svg width="550" height="293" viewBox="0 0 550 293" fill="none" xmlns="http://www.w3.org/2000/svg">
<g clip-path="url(#clip0_119_1440)">
<g filter="url(#filter0_f_119_1440)">
<path d="M83.148 292.405C83.148 292.405 -18.4871 190.681 44.6295 129.86C107.746 69.0391 157.632 147.997 192.131 142.179C235.8 134.816 254.685 24.0281 319.966 23.9229C394.243 23.8033 448.761 67.7122 419.721 172.283C398.302 249.411 545.528 186.251 523.905 293.904L83.148 292.405Z" fill="#EDD6E9"/>
</g>
<path d="M256.848 192.688C257.03 194.385 259.431 194.324 262.145 193.917C264.859 193.511 264.158 194.224 267.974 194.15C271.79 194.077 273.063 192.772 273.229 192.221C273.378 191.732 271.527 191.386 269.546 190.973C269.297 190.922 269.047 190.867 268.796 190.813C266.562 190.324 265.039 188.714 263.095 187.328C261.253 186.016 260.012 180.003 260.012 180.003L254.587 179.971C254.587 179.971 256.292 185.409 257.179 187.3C257.702 188.413 257.145 189.841 256.97 190.912C256.876 191.494 256.783 192.09 256.848 192.688Z" fill="#FFB07B"/>
<path d="M262.145 193.917C264.859 193.51 264.157 194.224 267.974 194.15C271.79 194.077 273.063 192.772 273.229 192.221C273.378 191.732 271.527 191.386 269.546 190.973L269.524 191.01C269.524 191.01 267.111 192.41 263.96 192.198C261.391 192.027 258.743 191.044 256.97 190.912C256.876 191.494 256.783 192.09 256.848 192.688C257.03 194.385 259.431 194.324 262.145 193.917Z" fill="#365DA4"/>
<path d="M214.435 192.419C214.553 194.122 216.955 194.151 219.682 193.847C222.409 193.542 221.681 194.229 225.498 194.299C229.314 194.37 230.635 193.114 230.823 192.569C230.99 192.086 229.153 191.671 227.189 191.183C226.942 191.123 226.694 191.059 226.446 190.995C224.231 190.422 222.77 188.755 220.879 187.298C219.088 185.917 220.561 180.19 220.561 180.19L216.445 178.246C216.445 178.246 215.879 184.149 215.574 187.134C215.449 188.356 214.84 189.584 214.624 190.648C214.508 191.227 214.393 191.819 214.435 192.419Z" fill="#FFB07B"/>
<path d="M219.682 193.847C222.409 193.543 221.681 194.229 225.498 194.299C229.314 194.37 230.635 193.114 230.822 192.569C230.989 192.086 229.153 191.671 227.188 191.183L227.165 191.219C227.165 191.219 224.702 192.527 221.56 192.197C218.999 191.929 216.39 190.848 214.624 190.649C214.508 191.227 214.393 191.819 214.435 192.419C214.552 194.122 216.954 194.151 219.682 193.847Z" fill="#365DA4"/>
<path d="M223.682 107.422C223.682 107.422 222.542 112.943 221.399 140.943C221.399 140.943 219.282 146.127 217.745 152.466C216.209 158.805 215.125 185.256 215.125 185.256C215.125 185.256 215.737 186.139 217.597 186.25C219.116 186.342 220.298 185.676 220.298 185.676C220.298 185.676 230.978 151.032 236.177 137.582C241.376 124.132 244.422 104.927 244.422 104.927L223.682 107.422Z" fill="#2B478B"/>
<path d="M236.527 109.786C236.527 109.786 237.369 115.36 245.992 142.023C245.992 142.023 245.8 147.62 246.554 154.099C247.307 160.578 256.035 186.087 256.035 186.087C256.035 186.087 257.194 186.49 258.933 186.031C260.55 185.604 261.817 184.632 261.817 184.632C261.817 184.632 258.471 148.172 258.692 133.754C258.912 119.336 255.12 100.264 255.12 100.264L236.527 109.786Z" fill="#2B478B"/>
<path d="M251.798 32.5647C250.447 31.7045 248.784 31.5349 247.614 31.5455C247.93 31.2507 248.526 31.1671 248.526 31.1671C247.809 31.0235 246.159 31.66 246.159 31.66C236.296 27.282 233.974 42.0112 234.014 45.4622C234.052 48.9127 233.879 52.8738 228.705 55.7084C218.523 61.2855 226.328 72.3008 226.328 72.3008C224.495 77.5595 231.28 84.0025 231.28 84.0025C231.165 81.2097 243.985 63.4167 250.897 59.3575C252.646 57.0405 253.437 52.8324 253.497 52.501C253.048 55.8465 252.379 57.7021 251.812 58.7374C257.74 53.8055 255.38 34.8439 251.798 32.5647Z" fill="#13375B"/>
<path d="M249.649 57.4524C249.684 57.4681 246.416 59.165 243.956 58.4928C241.643 57.8624 240.132 54.863 240.164 54.8561C241.143 54.6616 241.426 53.3155 241.405 47.5322L241.848 47.6191L249.026 49.0413L249.294 49.0934C249.294 49.0934 249.123 51.4362 249.118 53.6436C249.116 54.1109 249.123 54.571 249.141 55.0018C249.189 56.2835 249.331 57.303 249.649 57.4524Z" fill="#FFB07B"/>
<path d="M249.118 53.6437C249.116 54.111 249.123 54.5711 249.14 55.0018C244.965 54.8334 242.558 50.0591 241.65 47.9646L249.026 49.0414L249.294 49.0935C249.294 49.0935 249.123 51.4362 249.118 53.6437Z" fill="#EA8E50"/>
<path d="M241.079 46.8086C241.079 46.8086 238.895 43.3589 238.372 40.4091C237.997 38.303 239.07 30.4967 246.915 31.6211C246.915 31.6211 249.193 31.8457 251.335 33.2921C253.038 34.4424 255.496 36.9257 252.747 43.7377L252.034 46.039L241.079 46.8086Z" fill="#13375B"/>
<path d="M249.732 52.5619C249.732 52.5619 239.959 51.27 240.857 45.1958C241.755 39.1215 241.099 34.8641 247.377 35.4321C253.655 36.0001 254.522 38.4967 254.715 40.5971C254.909 42.6975 252.298 52.7413 249.732 52.5619Z" fill="#FFB07B"/>
<path d="M251.839 35.945C251.839 35.945 248.108 42.6723 243.855 43.1152C239.601 43.5584 237.987 42.1958 237.987 42.1958C237.987 42.1958 241.502 40.1677 242.803 35.9074C242.803 35.9074 250.331 32.2538 251.839 35.945Z" fill="#13375B"/>
<path d="M251.091 36.4248C251.091 36.4248 252.848 38.3126 253.104 39.9316C253.359 41.5504 253.103 44.7668 254.047 44.7967C254.047 44.7967 256.78 40.2536 254.928 37.1774C252.964 33.9152 251.091 36.4248 251.091 36.4248Z" fill="#13375B"/>
<path d="M315.997 118.951C313.947 114.607 308.246 111.014 303.444 111.012C299.897 111.011 296.769 112.221 294.348 114.193C292.964 115.32 290.876 114.577 290.5 112.832L286.297 93.3009C285.684 90.4531 282.879 88.641 280.03 89.2539L212.01 103.893C209.227 104.493 207.457 107.233 208.056 110.016L222.679 177.962C223.098 179.906 224.523 181.372 226.29 181.935L225.397 182.188H228.038L228.059 182.185C228.382 182.175 228.709 182.138 229.036 182.067L230.517 181.749L247.974 177.991C250.424 177.464 251.419 174.5 249.773 172.611C248.183 170.786 247.038 168.525 246.551 165.964C245.177 158.748 249.638 151.599 256.729 149.678C264.616 147.542 272.58 152.465 274.277 160.35C274.916 163.317 274.573 166.266 273.468 168.861C273.038 169.869 273.394 170.915 274.131 171.512L273.113 172.009L275.472 172.007C275.649 172.011 275.831 171.996 276.017 171.956L296.862 167.47C299.711 166.856 301.524 164.05 300.91 161.201L296.733 141.79C296.346 139.994 297.984 138.42 299.764 138.877C301.822 139.406 304.03 139.477 306.248 139C314.971 137.123 320.069 127.577 315.997 118.951Z" fill="#71D8B9"/>
<path d="M301.042 111.012C297.495 111.011 294.367 112.221 291.946 114.193C290.562 115.32 288.474 114.577 288.099 112.832L283.895 93.3009C283.282 90.4531 280.477 88.641 277.629 89.2539L209.608 103.893C206.825 104.493 205.055 107.233 205.654 110.016L220.277 177.962C220.899 180.851 223.745 182.689 226.634 182.067L245.572 177.991C248.022 177.464 249.017 174.5 247.371 172.611C245.781 170.786 244.637 168.525 244.149 165.964C242.775 158.748 247.237 151.599 254.327 149.678C262.214 147.542 270.179 152.465 271.876 160.35C272.514 163.317 272.171 166.266 271.066 168.861C270.348 170.546 271.823 172.342 273.615 171.956L294.46 167.47C297.309 166.856 299.121 164.05 298.508 161.201L294.331 141.79C293.944 139.994 295.583 138.42 297.362 138.877C299.42 139.406 301.628 139.477 303.847 139C312.569 137.123 317.667 127.576 313.595 118.95C311.545 114.607 305.845 111.014 301.042 111.012Z" fill="#49BA98"/>
<path d="M276.154 85.1812C276.154 85.1812 280.396 85.8764 281.508 88.6356C282.62 91.3947 281.068 93.2628 280.47 93.2565C279.873 93.2502 278.728 92.8088 278.192 91.3778C277.656 89.9471 276.154 85.1812 276.154 85.1812Z" fill="#FFB07B"/>
<path d="M217.745 97.4929C217.745 97.4929 222.508 97.4868 224.221 100.302C225.934 103.117 224.575 105.439 223.92 105.54C223.266 105.641 221.935 105.365 221.091 103.898C220.247 102.431 217.745 97.4929 217.745 97.4929Z" fill="#FFB07B"/>
<path d="M276.272 88.3832C275.85 88.2931 274.003 88.0759 271.655 87.7063C267.331 87.0278 261.303 85.8335 259.28 83.9677C258.733 83.4612 257.456 80.6738 256.13 77.4785C254.789 84.5526 254.714 89.9784 255.07 94.1089L225.843 100.399C228.349 95.333 232.228 89.0512 231.5 83.9675C231.231 82.0826 230.198 79.4966 229.812 76.5911C229.78 76.3412 229.752 76.0916 229.73 75.8378C225.631 79.2119 220.896 82.9346 220.783 83.6794C220.594 84.9272 223.785 98.7441 223.785 98.7441C222.992 100.568 219.551 100.185 219.551 100.185C216.325 97.8817 211.582 84.8299 211.963 81.9386C212.342 79.047 224.102 62.5693 226.949 58.6312C229.761 54.7399 240.025 54.8372 240.272 54.8388H240.274C240.276 54.8388 240.276 54.8388 240.278 54.8388C248.441 59.7401 249.177 55.6667 249.177 55.6667C249.177 55.6667 256.542 57.0674 257.808 59.2421C259.074 61.4183 264.624 77.917 265.017 78.4985C265.839 79.7133 279.257 84.5747 279.497 85.9823C279.741 87.3904 277.475 88.6384 276.272 88.3832Z" fill="#80BDCC"/>
<path d="M236.034 98.2165L225.843 100.4C228.381 95.3477 231.716 89.0557 230.987 84.0034C230.714 82.1172 230.103 79.8852 229.808 76.9667C229.779 76.6853 229.73 75.8386 229.73 75.8386C229.73 75.8386 236.947 81.5181 237.074 87.6644C237.14 90.8529 236.583 95.024 236.034 98.2165Z" fill="#5F9AA8"/>
<path d="M271.926 87.7447C267.55 87.0649 261.446 85.8704 259.399 84.0038C258.844 83.4968 257.552 80.7064 256.21 77.507C256.21 77.507 255.739 72.364 257.083 72.5563C258.428 72.7481 260.406 81.8702 261.817 82.4462C263.081 82.963 270.065 85.6438 271.926 87.7447Z" fill="#5F9AA8"/>
<path d="M487.536 283.671C486.92 285.75 484.071 287.136 483.686 289.677C483.498 290.917 483.036 291.88 482.449 292.542H473.582C473.67 292.054 474.059 291.528 475.212 291.276C477.675 290.738 478.604 287.752 478.451 284.98C478.387 283.818 478.417 282.494 478.474 281.347C478.552 279.76 478.682 278.513 478.682 278.513L483.917 277.282L484.467 277.989L484.995 278.667C484.995 278.667 488.151 281.592 487.536 283.671Z" fill="#2C3A64"/>
<path d="M446.242 292.542H428.302C428.708 292.066 429.398 291.606 430.563 291.417C433.324 290.968 438.106 289.366 439.172 285.837C439.207 285.724 439.238 285.607 439.264 285.489C440.11 281.717 446.27 286.644 446.27 286.644C446.27 286.644 446.289 286.795 446.317 287.052C446.425 288.114 446.664 290.995 446.242 292.542Z" fill="#2C3A64"/>
<path d="M431.296 192.594C431.296 192.594 432.232 204.265 433.331 218.294C434.826 237.351 436.623 260.759 436.801 265.194C437.108 272.894 438.341 285.211 438.341 285.211C438.341 285.211 441.265 288.138 447.118 286.904C447.118 286.904 452.333 269.321 453.823 250.717C453.846 250.412 453.869 250.105 453.892 249.797C455.278 230.858 457.433 190.978 457.433 190.978L431.296 192.594Z" fill="#35488B"/>
<path d="M431.296 192.594C431.296 192.594 432.232 204.265 433.331 218.294L453.823 250.717C453.846 250.412 453.869 250.105 453.892 249.798C455.278 230.858 457.433 190.978 457.433 190.978L431.296 192.594Z" fill="#2C3A64"/>
<path d="M435.568 193.98C435.568 193.98 452.428 236.247 463.515 256.11C474.601 275.973 478.066 281.517 478.066 281.517C478.066 281.517 484.417 278.976 484.995 277.244C484.995 277.244 480.755 238.897 473.331 229.549C469.136 224.267 464.208 208.415 463.977 202.872C463.746 197.329 462.476 186.358 462.476 186.358L435.568 193.98Z" fill="#35488B"/>
<path d="M444.215 128.737C443.466 124.311 443.443 121.688 443.443 121.688L451.997 114.793C451.679 124.273 457.754 128.832 457.754 128.832C457.754 128.832 446.354 134.443 439.765 132.365C439.765 132.365 441.387 130.291 444.215 128.737Z" fill="#935C2F"/>
<path d="M441.428 121.531C441.428 121.531 452.311 123.339 453.333 116.545C454.354 109.75 456.447 105.407 449.542 103.966C442.636 102.524 440.894 104.913 440.001 107.098C439.108 109.283 438.624 120.886 441.428 121.531Z" fill="#A16D3C"/>
<path d="M403.205 135.538L400.889 134.103C400.889 134.103 398 129.839 393.065 132.488C393.065 132.488 391.11 133.735 392.422 134.778C393.734 135.821 393.381 135.232 395.198 136.743C397.016 138.255 399.367 138.795 400.883 137.962L402.828 137.778L403.205 135.538Z" fill="#A16D3C"/>
<path d="M400.454 135.985C401.051 134.118 401.335 133.953 401.335 133.953C401.335 133.953 420.072 136.167 421.839 136.298C423.605 136.429 448.137 131.374 448.137 131.374L459.72 145.44C459.72 145.44 425.568 146.728 421.099 146.309C413.712 145.617 400.319 138.74 400.319 138.74C400.319 138.74 399.986 137.451 400.454 135.985Z" fill="#D3782F"/>
<path d="M463.761 188.518C463.794 189.244 462.298 190.041 461.649 190.333C456.758 192.526 452.202 194.049 447.056 194.544C440.951 195.17 433.736 193.797 431.262 193.83C430.997 193.83 430.767 193.732 430.569 193.567C430.404 193.434 430.271 185.977 430.404 176.575C430.404 176.212 430.404 175.815 430.436 175.452V175.321C430.446 174.342 430.461 173.347 430.482 172.343C430.544 169.595 430.648 166.773 430.767 163.97C430.945 159.837 431.191 155.775 431.531 152.177C431.886 148.418 432.337 145.163 432.912 142.855C434.231 137.543 437.267 134.044 440.039 131.471L442.314 129.46C444.59 129.921 447 129.788 449.408 128.602C452.014 127.315 454.852 125.929 455.313 126.259C458.831 128.888 461.199 134.856 462.413 142.442C463.066 146.525 463.385 151.074 463.367 155.825C463.36 157.648 463.304 159.497 463.198 161.364C462.611 171.382 463.214 180.068 463.559 185.117C463.659 186.569 463.738 187.723 463.761 188.518Z" fill="#E69D43"/>
<path d="M405.907 95.9016L337.082 84.9713C334.156 84.5064 331.407 86.5018 330.942 89.4283L327.896 108.611C327.755 109.5 327.98 111.997 327.98 111.997L330.461 112.366C330.601 112.397 330.745 112.418 330.89 112.43C331.339 112.466 331.808 112.41 332.275 112.241C334.558 111.415 337.086 111.164 339.657 111.635C346.901 112.964 351.97 119.724 351.198 127.049C350.34 135.197 342.853 140.861 334.865 139.593C331.861 139.115 329.227 137.727 327.202 135.754C326.809 135.371 326.336 135.169 325.859 135.12L323.264 134.731L320.031 158.131C319.573 161.017 321.541 163.728 324.427 164.186L344.088 167.308C345.907 167.597 346.786 169.699 345.714 171.197C344.475 172.93 343.608 174.969 343.252 177.216C341.849 186.051 348.928 194.274 358.468 193.59C363.272 193.246 368.696 189.218 370.436 184.728C371.721 181.412 371.722 178.049 370.755 175.071C370.202 173.369 371.654 171.686 373.421 171.967L393.205 175.109C396.089 175.567 398.799 173.6 399.257 170.715L410.2 101.815C410.647 98.997 408.725 96.3494 405.907 95.9016Z" fill="#4A86A9"/>
<path d="M455.565 142.239C455.565 142.239 450.289 166.858 430.482 172.343C430.544 169.595 430.648 166.774 430.767 163.97C430.945 159.837 431.191 155.776 431.531 152.177C431.884 151.994 432.216 151.852 432.52 151.752C439.241 149.536 455.565 142.239 455.565 142.239Z" fill="#D3782F"/>
<path d="M367.891 184.344C369.176 181.028 369.177 177.665 368.21 174.687C367.657 172.985 369.108 171.302 370.876 171.583L390.659 174.725C393.544 175.183 396.254 173.216 396.712 170.331L407.654 101.431C408.102 98.6127 406.18 95.9651 403.362 95.5177L334.537 84.5872C331.611 84.1226 328.862 86.1179 328.397 89.0442L325.35 108.227C324.956 110.709 327.367 112.712 329.73 111.857C332.012 111.031 334.54 110.78 337.111 111.252C344.356 112.58 349.424 119.34 348.653 126.665C347.795 134.813 340.308 140.477 332.32 139.209C329.315 138.731 326.682 137.343 324.656 135.37C323.34 134.088 321.127 134.818 320.839 136.633L317.486 157.747C317.027 160.633 318.996 163.344 321.881 163.802L341.543 166.925C343.362 167.214 344.241 169.315 343.169 170.814C341.93 172.546 341.063 174.585 340.706 176.832C339.303 185.667 346.382 193.891 355.923 193.207C360.726 192.862 366.15 188.834 367.891 184.344Z" fill="#3E5F72"/>
<path d="M403.285 151.411L400.455 150.943C400.455 150.943 397.229 146.274 391.606 148.893C391.606 148.893 389.376 150.14 390.851 151.308C392.326 152.476 391.933 151.832 393.975 153.52C396.018 155.208 398.677 155.881 400.405 155.056L402.611 154.941L403.285 151.411Z" fill="#A16D3C"/>
<path d="M401.122 152.849C401.213 150.767 402.322 150.545 402.322 150.545C402.322 150.545 423.758 149.127 425.607 148.768C427.456 148.41 444.529 134.264 444.529 134.264C444.529 134.264 451.131 128.33 455.757 130.333C459.777 132.073 461.035 135.505 461.237 138.663C461.478 142.425 459.357 145.942 455.941 147.537C448.274 151.118 432.94 158.148 429.447 158.754C421.675 160.104 401.698 155.778 401.698 155.778C401.698 155.778 401.05 154.485 401.122 152.849Z" fill="#E69D43"/>
<path d="M440.001 107.098C440.001 107.098 435.584 103.823 438.464 98.7333C438.464 98.7333 441.939 99.8856 446.875 98.7333C451.811 97.5811 456.228 99.2136 456.804 100.942C456.804 100.942 458.724 101.71 458.916 104.59C459.108 107.471 453.332 116.544 453.332 116.544C453.332 116.544 452.099 115.009 452.435 113.952C452.771 112.896 453.827 110.544 452.531 110.544C451.235 110.544 450.803 112.464 450.275 111.696C449.747 110.928 450.707 107.711 449.17 107.183C447.634 106.655 441.729 108.069 440.001 107.098Z" fill="#2C3A64"/>
<path d="M289.872 290.089L270.416 201.756H275.772C277.041 201.756 278.08 200.717 278.08 199.448V196.464C278.08 195.195 277.041 194.156 275.772 194.156H207.837C206.568 194.156 205.529 195.195 205.529 196.464V199.448C205.529 200.717 206.568 201.756 207.837 201.756H214.732L195.276 290.089C195.014 291.277 195.769 292.463 196.953 292.725C198.137 292.988 199.32 292.231 199.582 291.043L219.247 201.756H265.9L285.566 291.043C285.828 292.231 287.01 292.988 288.195 292.725C289.379 292.463 290.134 291.277 289.872 290.089Z" fill="#9EC7E4"/>
<path d="M392.639 212.381H373.216C370.703 212.381 369.103 215.076 370.318 217.275C371.491 219.4 367.362 237.806 358.661 238.287C350.481 238.738 343.711 232.211 343.711 224.123C343.711 221.081 344.669 218.262 346.3 215.953C347.36 214.452 346.292 212.381 344.455 212.381H323.076C320.153 212.381 317.785 214.749 317.785 217.672C317.785 217.672 315.847 240.619 314.199 239.795C312.501 238.947 310.609 238.43 308.608 238.327L308.608 238.326H308.589C308.35 238.314 308.11 238.307 307.868 238.307C307.626 238.307 304.107 238.247 304.107 238.247L303.573 266.604L306.629 266.636C309.535 266.549 312.058 266.277 314.301 265.134C315.895 264.321 317.785 265.49 317.785 267.28V287.311C317.785 290.232 320.153 292.6 323.074 292.6H392.837C395.691 292.6 398.004 290.286 398.004 287.433V217.745C398.004 214.783 395.602 212.381 392.639 212.381Z" fill="#FFD172"/>
<path d="M300.951 266.274C304.428 267.023 307.749 266.497 310.538 265.075C312.133 264.262 314.023 265.431 314.023 267.221V287.252C314.023 290.173 316.391 292.541 319.312 292.541H389.075C391.929 292.541 394.242 290.227 394.242 287.373V217.686C394.242 214.723 391.84 212.321 388.877 212.321H369.454C366.941 212.321 365.341 215.016 366.556 217.216C367.73 219.34 368.374 221.798 368.312 224.411C368.136 231.774 362.255 237.84 354.899 238.227C346.718 238.658 339.949 232.152 339.949 224.064C339.949 221.022 340.907 218.203 342.538 215.893C343.598 214.392 342.53 212.321 340.693 212.321H319.314C316.391 212.321 314.023 214.69 314.023 217.613V237.52C314.023 239.363 312.085 240.56 310.436 239.736C308.531 238.784 306.381 238.248 304.106 238.248C295.161 238.248 288.149 246.53 290.321 255.845C291.415 260.534 296.244 265.259 300.951 266.274Z" fill="#FFC54E"/>
<path d="M143.757 191.611L145.612 193.118C145.612 193.118 150.687 191.298 151.832 197.328C151.832 197.328 152.137 199.899 150.509 199.903C148.881 199.908 149.552 199.622 147.247 199.69C144.942 199.758 143.031 198.542 142.693 196.671L141.59 195.086L143.757 191.611Z" fill="#EA8E50"/>
<path d="M143.546 194.845C145.026 193.299 144.907 192.157 144.907 192.157C144.907 192.157 127.768 178.125 126.03 176.982C124.846 176.203 112.224 165.013 106.323 158.191C103.397 154.807 99.7719 156.12 95.6242 157.31L92.2086 158.29C88.0844 159.473 87.0117 165.242 90.3956 168.045C99.9263 175.939 115.781 184.818 118.747 186.684C126.112 191.317 140.527 196.822 140.527 196.822C140.527 196.822 142.275 196.172 143.546 194.845Z" fill="#1E3D70"/>
<path d="M163.605 280.911C163.605 280.911 167.764 284.027 174.137 282.381C174.137 282.381 179.276 281.21 180.403 283.773C180.403 283.773 172.522 287.776 170.528 288.871C169.025 289.696 167.457 290.999 166.348 292.006C165.47 292.803 164.103 292.695 163.355 291.775C163.009 291.348 162.612 290.841 162.177 290.252C160.962 288.605 158.13 283.286 158.13 283.286L163.605 280.911Z" fill="#233862"/>
<path d="M165.547 279.471C165.547 279.471 163.014 285.311 157.168 284.238C157.168 284.238 145.238 274.386 137.055 264.151C134.397 260.827 132.134 257.463 130.805 254.384C125.378 241.82 110.732 223.082 101.42 213.584L124.718 205.156C124.718 205.156 132.181 220.168 142.11 238.607C149.266 251.893 157.7 266.958 165.547 279.471Z" fill="#2B478B"/>
<path d="M142.11 238.607L137.055 264.151C134.397 260.827 132.134 257.463 130.805 254.384C125.378 241.82 110.732 223.082 101.42 213.585L124.718 205.156C124.718 205.156 132.181 220.168 142.11 238.607Z" fill="#233862"/>
<path d="M123.005 284.223C123.005 284.223 122.751 288.883 128.4 289.505C128.4 289.505 131.628 289.522 131.638 292.488L115.219 292.54C115.219 292.54 114.742 291.344 114.626 288.781C114.538 286.814 116.534 281.669 116.534 281.669L123.005 284.223Z" fill="#233862"/>
<path d="M117.077 205.156C117.077 205.156 127.456 216.561 134.044 237.108C137.629 248.287 127.474 276.393 125.494 286.159C125.494 286.159 118.682 286.737 114.024 284.936C114.024 284.936 113.67 264.766 116.394 249.22C117.919 240.52 102.728 230.613 96.0909 214.892C91.5754 204.197 97.0687 204.379 103.82 204.122L117.077 205.156Z" fill="#2B478B"/>
<path d="M105.095 154.275C99.3203 157.536 87.4985 154.528 87.4985 154.528C87.4985 154.528 92.2995 149.04 90.1179 140.2L94.6518 142.503L99.5222 144.976C99.5222 144.976 99.8368 146.537 100.056 149.341C100.112 150.063 100.161 150.87 100.196 151.751C103.161 152.65 105.095 154.275 105.095 154.275Z" fill="#FFB07B"/>
<path d="M126.27 204.567C126.27 205.582 125.101 206.068 124.852 206.117C122.523 206.543 116.02 209.073 110.162 209.653C105.229 210.17 100.649 209.679 95.6171 208.669C94.9508 208.535 93.3868 208.114 93.2756 207.475C93.1367 206.778 73.8679 168.193 88.8472 151.619C89.199 151.231 92.1557 151.931 94.8599 152.572C97.3571 153.165 99.6477 152.835 101.693 152.014L104.229 153.348C107.343 155.084 113.236 161.249 113.925 166.087C114.275 168.547 115.682 170.369 116.089 172.533C116.24 173.333 116.395 174.115 116.552 174.877C116.859 176.372 117.176 177.794 117.501 179.147C118.382 182.806 119.312 185.955 120.225 188.677C121.197 191.566 122.15 193.969 123.001 195.979C124.106 198.586 125.039 200.534 125.622 202.026C126.034 203.076 126.27 203.899 126.27 204.567Z" fill="#2A4E96"/>
<path d="M125.622 202.025C98.4217 189.21 89.0015 164.602 89.0015 164.602C89.0015 164.602 111.101 172.754 116.552 174.877C116.859 176.371 117.176 177.794 117.501 179.146C118.382 182.805 119.312 185.955 120.225 188.676C121.197 191.565 122.15 193.968 123.002 195.978C124.106 198.585 125.039 200.533 125.622 202.025Z" fill="#1E3D70"/>
<path d="M202.454 174.77L196.628 156.295C196.062 154.501 194.206 153.652 192.584 154.108L192.58 154.109C192.493 154.134 192.408 154.163 192.324 154.195L190.281 154.877C190.281 154.877 187.082 158.171 184.786 158.835C177.729 160.877 171.031 157.116 168.457 150.236C165.593 142.583 168.915 134.18 176.608 131.754C179.24 130.924 184.42 132.471 184.42 132.471L186.499 131.78C187.628 131.436 188.404 130.218 188 128.939L181.587 108.604C180.711 105.825 177.747 104.282 174.968 105.159L156.032 111.13C154.28 111.683 152.56 110.199 152.849 108.384C153.183 106.287 153.048 104.081 152.366 101.917C149.682 93.408 139.701 89.2234 131.493 94.0833C127.36 96.5302 124.314 102.541 124.761 107.323C125.092 110.854 126.589 113.856 128.778 116.082C130.03 117.355 129.484 119.503 127.782 120.04L108.729 126.048C105.95 126.925 104.408 129.887 105.285 132.665L126.212 199.022C127.067 201.736 129.962 203.243 132.676 202.387L198.961 181.483C201.779 180.594 203.343 177.589 202.454 174.77Z" fill="#F19783"/>
<path d="M122.745 107.995C123.075 111.526 124.572 114.528 126.762 116.754C128.013 118.027 127.468 120.174 125.765 120.711L106.712 126.72C103.934 127.596 102.392 130.559 103.268 133.337L124.195 199.694C125.051 202.408 127.945 203.914 130.66 203.059L196.944 182.155C199.763 181.266 201.327 178.261 200.438 175.442L194.611 156.968C193.858 154.577 190.814 153.864 189.087 155.679C187.418 157.433 185.274 158.783 182.77 159.508C175.713 161.549 168.179 157.775 165.604 150.895C162.741 143.242 166.899 134.852 174.591 132.426C177.485 131.514 180.454 131.579 183.14 132.438C184.886 132.995 186.535 131.359 185.984 129.611L179.571 109.276C178.695 106.496 175.731 104.954 172.952 105.831L154.016 111.802C152.264 112.355 150.543 110.871 150.832 109.057C151.167 106.958 151.032 104.753 150.349 102.589C147.665 94.0797 137.685 89.8953 129.477 94.7552C125.344 97.2022 122.298 103.213 122.745 107.995Z" fill="#F47458"/>
<path d="M141.537 194.599L143.887 195.461C143.887 195.461 148.594 192.132 151.525 197.545C151.525 197.545 152.585 199.91 150.907 200.423C149.229 200.937 149.839 200.453 147.481 201.239C145.122 202.024 142.799 201.459 141.908 199.774L140.311 198.602L141.537 194.599Z" fill="#FFB07B"/>
<path d="M143.471 197.922C144.34 195.655 144.737 194.628 144.737 194.628C144.737 194.628 126.976 180.151 125.166 178.91C123.933 178.063 111.656 168.887 105.671 161.735C102.702 158.187 98.0203 156.565 93.4925 157.515L89.7643 158.297C85.2623 159.241 83.7996 164.939 87.2918 167.933C97.1276 176.365 113.717 186.145 116.81 188.179C124.488 193.229 141.472 200.305 141.472 200.305C141.472 200.305 142.788 199.704 143.471 197.922Z" fill="#2A4E96"/>
<path d="M100.056 149.342C94.3775 149.66 90.6846 144.972 90.6846 144.972C90.6846 144.972 93.2519 143.549 94.6519 142.503L99.5222 144.976C99.5222 144.976 99.8369 146.537 100.056 149.342Z" fill="#EA8E50"/>
<path d="M102.475 143.511C102.475 143.511 93.8713 149.686 90.1085 144.268C86.346 138.851 82.7011 135.999 88.0357 131.828C93.3703 127.657 95.8849 128.974 97.5806 130.477C99.2762 131.98 104.617 141.765 102.475 143.511Z" fill="#FFB07B"/>
<path d="M98.4893 125.585C98.1808 123.502 97.4867 122.037 97.4867 122.037C97.4867 122.037 96.9467 124.274 92.8593 123.965C88.7716 123.657 82.293 124.367 80.1336 129.025C79.9961 129.321 79.8735 129.627 79.7648 129.939C79.3739 128.906 79.2797 127.359 79.2797 127.359C78.5029 129.364 79.2797 131.872 79.2797 131.872H79.2799C79.2683 131.945 79.2587 132.019 79.2481 132.092C78.3462 132.854 77.5884 135.225 77.5884 135.225C77.8607 134.565 78.5246 134.133 79.1165 133.867C79.0981 137.491 80.568 141.035 83.1477 142.09C86.9205 143.632 86.8903 142.455 90.6847 144.972C90.6847 144.972 91.7024 143.709 91.0083 142.861C90.314 142.013 87.692 140.779 89.1572 139.545C90.6226 138.311 91.1622 139.699 91.7022 138.851C92.2422 138.002 89.5429 135.534 93.0133 133.221C96.4841 130.906 98.7978 127.667 98.4893 125.585Z" fill="#233862"/>
</g>
<defs>
<filter id="filter0_f_119_1440" x="-6.03076" y="-6.07739" width="562.111" height="329.981" filterUnits="userSpaceOnUse" color-interpolation-filters="sRGB">
<feFlood flood-opacity="0" result="BackgroundImageFix"/>
<feBlend mode="normal" in="SourceGraphic" in2="BackgroundImageFix" result="shape"/>
<feGaussianBlur stdDeviation="15" result="effect1_foregroundBlur_119_1440"/>
</filter>
<clipPath id="clip0_119_1440">
<rect width="550" height="292.359" fill="white"/>
</clipPath>
</defs>
</svg>
