<svg width="550" height="307" viewBox="0 0 550 307" fill="none" xmlns="http://www.w3.org/2000/svg">
<g clip-path="url(#clip0_48_354)">
<g filter="url(#filter0_f_48_354)">
<path d="M47.932 306.091C47.932 306.091 -16.2055 237.146 37.0854 162.503C84.3685 96.2752 139.496 100.803 179.942 127.678C197.168 139.125 246.835 129.089 289.107 61.6993C346.754 -30.2016 546.581 25.5366 510.147 166.929C492.515 235.352 563.807 237.84 527.481 306.236L47.932 306.091Z" fill="#FCECDB"/>
</g>
<path d="M337.263 141.618L342.051 136.984C340.553 128.605 332.692 124.573 327.516 124.023C313.576 122.544 306.471 132.127 303.481 147.498C298.022 175.554 304.894 293.357 304.894 293.357C305.408 290.228 343.267 171.927 342.296 139.424L337.263 141.618Z" fill="#96D9C9"/>
<path d="M146.719 234.125L146.125 238.52L144.703 233.437C140.705 232.177 137.232 231.746 134.48 232.371C109.884 237.961 152.386 271.787 152.386 271.787C152.386 271.787 138.84 263.283 125.722 257.899L125.556 262.354L123.878 257.32C113.684 253.329 104.228 251.485 102.338 257.247C100.559 262.67 104.139 267.805 110.3 272.377L117.381 272.625L113.207 274.376C127.434 283.489 150.97 290.007 159.094 291.49C151.322 290.269 132.324 287.797 121.064 290.227L122.831 293.167L118.385 290.944C114.444 292.216 111.996 294.32 112.26 297.634C112.764 303.97 140.256 306.252 140.256 306.252L240.688 305.32L241.247 305.599C241.247 305.599 179.096 245.985 146.719 234.125Z" fill="#3C8F7C"/>
<path d="M475.093 291.21C473.155 282.215 453.487 279.571 428.417 284.502C437.343 281.452 449.608 274.508 455.959 271.335L451.615 268.571L460.34 268.977C467.476 264.799 471.044 260.695 468.713 256.982C466.972 254.209 463.152 253.056 457.975 253.07L455.248 257.95L455.814 253.138C442.755 253.892 439.792 251.76 422.175 258.882C433.184 253.166 434.775 251.394 435.497 249.099L429.535 246.491H436.522C442.169 240.415 451.13 228.396 447.414 222.856C444.347 218.284 430.883 224.63 422.289 227.926L418.634 236.149L419.374 229.123C392.051 241.025 401.313 231.476 401.313 231.476C401.313 231.476 429.835 172.473 413.032 173.799C406.399 174.323 399.265 178.321 392.26 184.727L392.083 190.591L389.998 186.87C384.895 191.871 379.843 197.93 375.02 204.432C381.559 190.697 386.52 177.205 387.013 167.16L382.021 166.555L386.947 163.128C386.483 158.053 384.473 154.214 380.4 152.185C374.153 149.073 367.597 153.782 361.142 163.14L362.735 171.586L358.731 166.853C335.618 204.523 314.484 297.263 314.484 297.263L312.808 302.293L380.711 305.646C380.711 305.647 479.005 309.377 475.093 291.21Z" fill="#50BFA5"/>
<path d="M361.909 267.668H202.65C196.567 267.668 191.636 263.194 191.636 257.675V251.734C191.636 246.215 196.567 241.741 202.65 241.741H361.909C354.624 248.965 354.498 260.006 361.616 267.366L361.909 267.668Z" fill="#86B1F2"/>
<path d="M359.678 244.712H279.536C274.017 244.712 269.543 249.186 269.543 254.704C269.543 260.223 274.017 264.697 279.536 264.697H359.685C355.94 258.567 355.947 250.826 359.678 244.712Z" fill="#FAE0B2"/>
<path d="M354.737 213.398C355.086 212.798 354.556 212.105 353.75 212.105H226.918C216.977 212.105 208.918 218.755 208.918 226.959C208.918 235.162 216.977 241.813 226.918 241.813H353.785C354.595 241.813 355.126 241.114 354.774 240.513C349.751 231.927 349.764 221.945 354.737 213.398Z" fill="#355389"/>
<path d="M353.727 215.301H268.63C262.344 215.301 257.248 220.397 257.248 226.683V227.536C257.248 233.823 262.344 238.918 268.63 238.918H353.908C350.095 231.35 350.053 222.867 353.727 215.301Z" fill="#FAE0B2"/>
<path d="M200.382 210.785H282.233C289.491 210.785 295.376 204.439 295.376 196.612C295.376 188.785 289.491 182.44 282.233 182.44H200.382C206.638 190.297 206.882 201.823 200.966 209.979L200.382 210.785Z" fill="#FAE0B2"/>
<path d="M294.297 196.612C294.297 188.785 288.346 182.44 281.004 182.44H198.893C198.51 182.44 198.201 182.107 198.204 181.699C198.208 181.296 198.515 180.971 198.893 180.971H329.15C337.253 180.971 343.822 187.974 343.822 196.612C343.822 205.25 337.253 212.253 329.15 212.253H198.894C198.515 212.253 198.208 211.929 198.205 211.526C198.201 211.117 198.511 210.785 198.894 210.785H281.004C288.346 210.785 294.297 204.439 294.297 196.612Z" fill="#466EB6"/>
<path d="M300.099 227.203H291.34C289.456 227.203 287.929 227.787 287.929 228.508V228.625H300.099V227.203Z" fill="#FF4C16"/>
<path d="M307.571 230.475C307.571 228.668 305.283 227.203 302.461 227.203H291.22C293.361 227.203 295.095 228.314 295.095 229.685L295.042 264.761L301.253 260.25L307.584 264.761L307.571 230.475Z" fill="#F47458"/>
<path d="M427.39 267.615H190.749C183.4 267.615 177.443 273.572 177.443 280.921V292.113C177.443 299.461 183.4 305.418 190.749 305.418H427.39L427.267 305.289C417.143 294.752 417.197 278.085 427.39 267.615Z" fill="#B75742"/>
<path d="M423.201 273.211H296.696C289.348 273.211 283.391 279.168 283.391 286.517C283.391 293.865 289.348 299.822 296.696 299.822H423.198C418.548 291.583 418.555 281.444 423.201 273.211Z" fill="#FAE0B2"/>
<path d="M361.087 286.586H350.829C348.622 286.586 346.833 288.374 346.833 290.58V290.938H361.087V286.586Z" fill="#13375B"/>
<path d="M351.248 286.6C353.7 286.599 357.362 288.674 359.428 291.236L383.761 321.414L398.053 321.405L374.911 292.704C372.188 289.327 367.36 286.591 364.127 286.593L351.248 286.6Z" fill="#355389"/>
<path d="M137.109 302.105L142.096 300.941C142.096 300.941 146.14 301.196 149.914 300.431C149.914 300.431 150.293 301.433 150.457 303.503C150.486 303.86 149.973 305.638 149.619 305.692C148.336 305.89 146.077 305.666 142.069 305.758C142.069 305.758 135.76 306.504 132.383 305.39C129.007 304.275 137.109 302.105 137.109 302.105Z" fill="#B75742"/>
<path d="M192.199 220.488C192.476 223.382 194.906 224.403 197.17 226.234C198.69 227.463 198.429 230.785 197.267 232.848C194.324 238.072 196.831 238.717 199.203 242.554C204.917 251.796 187.211 253.838 185.11 254.527C183.009 255.215 181.584 256.049 180.341 255.911C176.595 255.497 173.168 250.172 171.266 245.247C169.365 240.322 173.982 240.063 174.217 237.234C174.453 234.406 169.05 233.798 170.652 228.456C172.386 222.676 174.831 217.778 178.081 216.021C183.457 213.114 189.993 216.154 191.478 218.489C191.921 219.185 192.139 219.856 192.199 220.488Z" fill="#184655"/>
<path d="M192.615 283.758C193.08 284.916 195.643 289.016 195.643 289.016L159.687 289.373L159.127 281.997C168.998 281.917 178.756 277.552 187.852 274.43C188.082 274.987 192.39 283.196 192.615 283.758Z" fill="#FAE0B2"/>
<path d="M167.128 255.467C167.128 255.467 169.058 241.838 172.163 240.422C175.269 239.007 192.086 240.968 194.603 242.506C197.12 244.043 192.927 260.049 192.284 264.527C192.246 264.794 192.204 265.062 192.16 265.328C191.099 271.792 191.713 278.405 193.992 284.52C184.791 287.315 182.403 288.851 172.535 288.576L168.851 267.02C168.851 267.02 165.922 256.588 167.128 255.467Z" fill="#50BFA5"/>
<path d="M185.519 231.453C185.519 231.453 186.292 238.956 186.955 240.797C187.617 242.637 185.179 246.381 181.202 247.418C177.225 248.454 180.118 243.42 180.025 241.474C179.931 239.529 179.546 230.32 179.546 230.32L185.519 231.453Z" fill="#F7A491"/>
<path d="M185.612 232.315C185.117 232.878 184.519 233.387 183.794 233.814C182.292 234.7 180.915 234.895 179.727 234.622C179.629 232.302 179.546 230.319 179.546 230.319L185.519 231.453C185.519 231.453 185.553 231.782 185.612 232.315Z" fill="#F47458"/>
<path d="M184.125 217.747C184.125 217.747 186.473 218.368 187.855 220.658C189.236 222.949 190.002 229.573 185.077 232.475C180.153 235.378 176.566 230.893 176.656 226.648C176.746 222.402 177.856 216.773 184.125 217.747Z" fill="#F7A491"/>
<path d="M175.162 224.869C175.216 225.972 175.779 226.839 176.42 226.806C177.06 226.773 177.536 225.853 177.482 224.75C177.428 223.648 176.865 222.781 176.224 222.814C175.584 222.847 175.108 223.767 175.162 224.869Z" fill="#F7A491"/>
<path d="M187.719 226.558C187.331 227.649 187.611 228.746 188.346 229.01C189.08 229.273 189.991 228.603 190.379 227.512C190.768 226.422 190.488 225.325 189.753 225.061C189.019 224.798 188.108 225.468 187.719 226.558Z" fill="#F7A491"/>
<path d="M194.602 242.506C194.602 242.506 191.735 244.01 189.977 248.207C188.218 252.404 194.207 273.821 195.484 275.193C196.761 276.565 200.293 276.78 200.896 273.425C201.499 270.071 199.468 243.565 194.602 242.506Z" fill="#3C8F7C"/>
<path d="M177.452 239.638L182.396 269.33L163.15 272.433L157.041 244.658C157.041 244.658 172.874 238.247 177.452 239.638Z" fill="#9BC1F9"/>
<path d="M140.306 240.554C142.145 239.83 144.151 239.646 146.09 240.025C149.692 240.729 155.418 242.189 157.715 244.658C161.183 248.385 164.393 273.039 164.393 273.039L149.432 269.685L140.306 240.554Z" fill="#9BC1F9"/>
<path d="M191.776 291.345C189.26 284.358 160.752 258.923 153.206 260.88L157.259 276.392C157.259 276.392 165.729 301.643 174.028 304.9C182.328 308.157 190.099 304.481 190.099 304.481C190.099 304.481 194.292 298.332 191.776 291.345Z" fill="#F7CC7F"/>
<path d="M181.54 250.539C181.185 251.248 183.451 252.515 184.11 252.995C184.769 253.475 187.502 252.981 187.502 252.981C187.502 252.981 181.935 249.748 181.54 250.539Z" fill="#F7A491"/>
<path d="M157.184 283.781C157.184 283.781 149.939 298.835 149.915 300.402C149.88 302.66 139.441 302.041 141.709 301.075C142.23 300.853 143.873 300.021 143.999 299.912C144.673 299.331 150.685 280.637 150.685 280.637L157.184 283.781Z" fill="#F48C7F"/>
<path d="M159.494 265.771C159.145 265.385 155.473 263.926 152.647 267.448C149.821 270.969 144.402 298.378 144.402 298.378L151.063 299.031C151.063 299.031 167.644 274.761 159.494 265.771Z" fill="#F7CC7F"/>
<path d="M137.945 245.218L146.514 270.203C146.858 271.206 147.713 271.926 148.731 272.07C156.766 273.206 160.958 273.784 160.958 273.784C160.958 273.784 162.525 273.865 164.187 273.887L182.579 271.924C184.179 271.753 185.296 270.203 184.997 268.567L180.52 244.035C180.244 242.52 178.85 241.509 177.38 241.756L159.686 244.73C158.122 244.688 156.599 244.647 155.035 244.604L141.115 241.487C139.011 241.016 137.224 243.119 137.945 245.218Z" fill="#F47458"/>
<path d="M175.377 257.371C175.377 257.371 180.313 258.286 181.999 258.235C183.685 258.185 185.871 258.717 185.871 258.717C185.871 258.717 191.38 271.673 192.171 273.118C194.531 277.432 201.073 276.923 200.965 273.325C200.879 270.466 189.703 252.539 186.732 252.628C183.762 252.718 174.461 250.778 174.182 251.96C174.032 252.595 182.747 252.893 181.372 253.432C180.518 253.767 173.697 253.001 173.721 253.803C173.745 254.606 179.883 254.682 180.545 255.305C181.206 255.928 174.012 254.543 174.053 255.906C174.074 256.592 180.39 256.097 181.082 257.138C181.37 257.571 174.855 256.021 175.377 257.371Z" fill="#F7A491"/>
<path d="M142.092 255.257C141.705 255.089 141.254 255.307 141.159 255.718C141.062 256.139 141.041 256.645 141.353 256.98C141.972 257.646 146.29 258.283 146.312 257.641C146.33 257.148 143.433 255.837 142.092 255.257Z" fill="#F7A491"/>
<path d="M141.252 256.933C141.252 256.933 140.819 258.552 141.194 258.565C141.568 258.579 146.24 259.042 146.448 258.486C146.656 257.931 141.854 256.607 141.252 256.933Z" fill="#F7A491"/>
<path d="M141.051 258.604C141.051 258.604 140.918 259.323 141.305 259.738C141.692 260.154 146.042 259.882 146.201 259.191C146.359 258.5 141.204 258.074 141.051 258.604Z" fill="#F7A491"/>
<path d="M141.715 260.124C141.715 260.124 141.708 260.673 141.927 260.908C142.147 261.144 145.36 260.817 145.68 260.132C145.999 259.447 142.088 259.413 141.715 260.124Z" fill="#F7A491"/>
<path d="M152.612 298.123C152.612 298.123 151.078 303.674 149.536 307.346C148.528 309.749 148.268 312.145 147.601 313.345C145.913 316.378 143.152 316.499 140.96 314.677C138.768 312.856 141.708 305.17 141.708 305.17L148.629 295.433L152.612 298.123Z" fill="#F7A491"/>
<path d="M147.601 313.345C148.194 312.279 148.468 310.269 149.228 308.148C148.169 308.763 146.393 309.226 145.428 308.967C141.886 308.021 141.708 305.17 141.708 305.17C141.708 305.17 138.017 313.047 140.209 314.869C142.401 316.691 145.913 316.378 147.601 313.345Z" fill="#F47458"/>
<path d="M159.688 244.73L165.355 274.06L161.945 273.855L160.958 273.784L155.038 244.606L159.688 244.73Z" fill="#B75742"/>
<path d="M179.429 303.186C181.369 306.755 185.236 307.31 188.717 307.018C192.568 306.694 196.807 304.588 197.944 300.168C199.159 295.448 197.56 289.606 194.757 285.902C180.41 266.944 180.298 265.075 174.587 262.557C168.421 259.838 145.52 298.961 145.52 298.961L151.808 302.175C151.808 302.175 161.241 294.291 167.268 287.378C167.977 286.565 169.993 282.359 169.993 282.359C169.993 282.359 178.146 300.826 179.429 303.186Z" fill="#FAE0B2"/>
<path d="M363.235 213.795C363.235 213.795 375.188 219.004 376.243 219.235C376.904 219.38 384.501 211.507 388.642 208.432C388.835 208.289 389.57 207.242 389.776 207.138C392.241 205.9 388.074 213.031 388.074 213.031C388.074 213.031 379.262 224.238 377.268 225.198C374.764 226.404 362.388 220.285 362.463 219.932L363.235 213.795Z" fill="#F48C7F"/>
<path d="M361.339 202.608C361.854 199.086 364.298 191.588 362.043 188.59C358.872 184.374 352.171 184.556 349.004 188.607C347.553 190.464 346.768 192.741 346.003 194.97C345.509 196.408 345.01 197.856 344.313 199.212C343.691 200.423 342.979 201.938 341.795 202.675C336.532 205.952 330.639 208.064 330.26 215.447C329.81 224.204 339.403 235.159 351.181 229.856C355.691 227.826 361.597 221.261 363.526 216.72C364.395 214.672 363.979 214.887 363.499 211.767C363.069 208.974 360.925 205.444 361.339 202.608Z" fill="#184655"/>
<path d="M354.931 207.846L370.932 216.65L367.159 222.379C367.159 222.379 355.111 217.788 352.675 217.131C350.24 216.473 352.158 207.606 354.931 207.846Z" fill="#355389"/>
<path d="M354.656 200.207C354.656 200.207 354.24 206.301 353.93 208.009C353.609 209.774 353.413 217.124 357.084 218.021C360.755 218.919 359.377 208.967 359.438 207.182C359.499 205.398 359.857 199.601 359.857 199.601L354.656 200.207Z" fill="#F7A491"/>
<path d="M354.605 200.938C354.881 201.348 355.212 201.742 355.605 202.113C356.958 203.389 358.349 203.803 359.618 203.637C359.733 201.617 359.857 199.6 359.857 199.6L354.657 200.207C354.657 200.207 354.638 200.484 354.605 200.938Z" fill="#F47458"/>
<path d="M358.45 188.544C358.45 188.544 356.218 188.616 354.511 190.379C352.804 192.142 350.76 197.903 354.581 201.508C358.401 205.111 362.178 202.015 362.967 198.203C363.755 194.392 364.27 188.96 358.45 188.544Z" fill="#F7A491"/>
<path d="M360.545 188.724C360.545 188.724 358.215 194.733 352.715 194.225C350.223 193.995 349.659 197.397 349.659 197.397C349.659 197.397 351.698 189.318 354.256 188.118C356.814 186.918 360.545 188.724 360.545 188.724Z" fill="#184655"/>
<path d="M353.424 195.678C353.549 196.732 353.073 197.656 352.36 197.74C351.648 197.825 350.969 197.039 350.844 195.985C350.719 194.931 351.195 194.008 351.907 193.923C352.62 193.839 353.299 194.625 353.424 195.678Z" fill="#F7A491"/>
<path d="M394.307 197.653L380.761 225.332C380.437 225.993 380.537 226.759 380.981 227.019L390.877 232.814L403.247 208.286C403.247 208.286 397.858 200.222 395.836 197.198C395.462 196.639 394.691 196.868 394.307 197.653Z" fill="#B75742"/>
<path d="M382.5 224.423L394.287 200.339C394.671 199.554 395.441 199.324 395.815 199.883C397.457 202.339 399.94 206.053 401.723 208.722L390.621 230.737L382.72 226.11C382.276 225.851 382.176 225.084 382.5 224.423Z" fill="#FAE0B2"/>
<path d="M388.938 206.609C389.078 206.367 389.719 205.84 389.99 205.768C390.562 205.616 391.253 205.638 391.366 206.006C391.532 206.542 389.843 207.135 389.843 207.135L388.923 208.468C388.923 208.468 388.494 207.38 388.938 206.609Z" fill="#F48C7F"/>
<path d="M354.192 206.365C354.192 206.365 358.363 209.81 359.56 211.007C360.748 212.195 362.827 213.645 362.827 213.645L359.455 208.981L357.319 206.987L354.192 206.365Z" fill="#F7A491"/>
<path d="M405.963 261.579C405.316 261.039 404.724 259.503 404.488 258.828C403.086 251.574 396.459 231.952 389.24 231.952C382.951 231.952 363.526 247.185 354.442 255.989C351.819 258.531 351.996 256.374 353.604 256.967C354.564 257.321 361.049 268.109 362.087 268.156C365.259 268.301 368.192 266.177 370.839 264.699C374.876 262.446 377.682 259.876 380.027 256.375C385.968 247.506 388.195 242.287 389.985 238.893C389.985 238.893 391.673 245.874 392.5 247.557C394.37 251.359 399.957 260.724 402.143 264.373L410.714 264.14C410.714 264.141 406.801 262.277 405.963 261.579Z" fill="#F48C7F"/>
<path d="M389.798 236.005C389.798 236.005 361.01 249.421 359.193 254.032C357.377 258.644 358.774 265.492 362.967 266.889C367.159 268.286 393.152 246.067 393.152 246.067C393.152 246.067 396.506 252.216 401.257 256.408C403.79 258.643 408.072 260.466 410.516 262.102C412.656 263.536 413.136 264.932 413.136 264.932L419.145 265.212C419.145 265.212 418.132 264.865 416.315 262.417C410.179 254.149 395.944 234.926 389.798 236.005Z" fill="#F7A491"/>
<path d="M378.689 234.328C378.689 234.328 387.935 244.296 389.752 257.433C389.752 257.433 375.265 263.675 368.138 267.448C361.011 271.221 353.045 267.308 350.53 263.116C348.014 258.923 350.53 247.114 350.53 247.114L365.343 244.809L378.689 234.328Z" fill="#13375B"/>
<path d="M400.629 261.882C399.892 261.601 399.634 265.328 399.513 266.159C399.377 267.095 399.823 267.728 399.936 267.806C400.242 268.017 412.113 268.252 414.383 267.643C414.536 267.602 414.857 267.409 414.914 267.359C416.581 265.905 408.868 262.047 407.313 262.371C405.93 262.658 403.942 263.144 400.629 261.882Z" fill="#355389"/>
<path d="M353.953 207.985C353.953 207.985 351.695 207.964 349.28 213.167C346.311 219.561 350.547 243.961 350.239 247.443C350.239 247.443 351.286 248.646 357.379 249.526C362.779 250.306 365.831 246.451 365.831 246.451C365.831 246.451 364.457 237.03 366.539 228.167C367.667 223.365 368.262 218.708 363.805 214.39C359.349 210.073 353.953 207.985 353.953 207.985Z" fill="#466EB6"/>
<path d="M410.595 262.112C409.858 261.831 409.223 265.422 409.278 266.299C409.336 267.243 409.576 267.929 409.689 268.007C409.994 268.218 421.878 268.391 424.148 267.783C424.302 267.741 424.622 267.548 424.679 267.499C426.347 266.045 417.769 262.405 416.214 262.728C414.831 263.016 413.909 263.375 410.595 262.112Z" fill="#466EB6"/>
<path d="M402.649 196.507L380.196 229.2C379.679 229.953 379.801 230.871 380.452 231.113L395.636 236.773L413.595 211.029L404.635 196.181C404.231 195.512 403.218 195.678 402.649 196.507Z" fill="#F47458"/>
<path d="M397.312 221.294C397.024 220.737 394.691 221.974 394.691 221.974C394.691 221.974 392.616 222.335 392.469 222.257C392.303 222.17 393.864 222.04 393.864 222.04C393.864 222.04 396.413 221.169 396.384 220.882C396.268 219.706 394.671 221.17 393.42 221.224C392.464 221.265 391.426 221.223 390.506 221.092C390.139 220.886 391.074 220.423 391.074 220.423C391.074 220.423 392.3 219.872 392.104 219.55C391.628 218.767 388.76 220.255 388.157 220.808C387.752 221.178 387.247 221.897 386.543 222.295C383.479 224.028 379.808 227.001 375.474 229.088C374.039 227.882 360.194 215.455 359.846 215.153L352.284 221.109C352.294 221.117 373.977 237.631 375.183 237.592C376.697 237.542 385.727 228.012 388.171 225.741C388.541 225.397 390.862 225.139 391.5 225.228C392.919 225.426 395.578 224.312 395.578 224.312C396.398 223.446 392.558 224.321 392.922 224.096C393.083 223.996 394.021 223.9 394.956 223.767C395.907 223.63 396.769 223.086 396.885 222.825C397.111 222.317 394.746 223.047 394.746 223.047L392.774 223.169L394.661 222.784C394.66 222.784 397.593 221.837 397.312 221.294Z" fill="#F7A491"/>
<path d="M357.719 211.374C355.274 208.871 350.573 209.236 349.202 212.807C348.82 213.8 348.837 216.65 349.272 217.698C351.011 221.89 361.15 228.738 361.15 228.738L366.74 221.122L357.719 211.374Z" fill="#86B1F2"/>
<path d="M257.244 138.529C257.244 138.208 257.639 136.137 257.639 136.137C257.639 136.137 256.717 133.199 256.623 133.193C254.727 133.056 253.295 134.346 253.616 136.079L253.634 136.137C254.617 139.271 257.259 141.6 260.492 142.18C261.229 142.312 262.009 142.45 262.809 142.59C262.432 141.332 262.201 140.046 262.213 138.724C259.442 138.702 257.244 138.648 257.244 138.529Z" fill="#F7A491"/>
<path d="M289.32 125.569C289.267 125.412 272.643 136.225 272.643 136.225C272.643 136.225 265.548 136.295 260.306 136.25C260.292 137.833 260.549 139.373 260.965 140.881C266.144 141.862 272.046 142.897 273.389 142.793C275.89 142.601 288.435 136.342 288.435 136.342C288.435 136.342 289.359 125.686 289.32 125.569Z" fill="#355389"/>
<path d="M289.506 165.945C289.472 165.673 285.959 153.628 285.593 142.84C285.309 134.474 287.899 126.975 289.226 125.604C289.717 125.092 294.281 123.997 294.281 123.997L292.619 126.756C290.93 129.944 290.472 132.767 289.739 136.365C287.613 146.798 297.165 167.673 296.68 167.808C296.138 167.958 289.642 167.013 289.506 165.945Z" fill="#466EB6"/>
<path d="M253.073 123.839L250.156 125.744L258.88 140.426L261.621 128.504L253.073 123.839Z" fill="#9BC1F9"/>
<path d="M254.877 121.53L258.543 133.716L261.481 128.452L254.877 121.53Z" fill="#9BC1F9"/>
<path d="M279.093 120.123L281.913 130.355L261.132 128.469L279.093 120.123Z" fill="#9BC1F9"/>
<path d="M267.24 163.415C267.24 163.415 258.408 174.204 258.384 175.772C258.349 178.03 247.909 177.41 250.177 176.444C250.699 176.222 252.341 175.39 252.467 175.281C253.142 174.701 260.1 161.08 260.1 161.08L267.24 163.415Z" fill="#F7A491"/>
<path d="M245.578 177.474L252.292 175.385C252.292 175.385 254.609 176.566 258.383 175.8C258.383 175.8 259.368 177.381 259.532 179.451C259.56 179.808 259.736 180.867 259.382 180.922C258.099 181.119 254.545 181.035 250.538 181.127C250.538 181.127 245.138 181.19 241.762 180.076C238.386 178.962 245.578 177.474 245.578 177.474Z" fill="#07345A"/>
<path d="M310.002 165.991C310.002 165.991 302.056 164.176 294.63 158.864C286.038 152.718 276.37 146.325 272.55 146.846C269.476 147.265 251.588 171.861 251.588 171.861L260.253 175.634L275.904 159.563C275.904 159.563 291.893 176.046 297.146 177.171C309.11 179.734 312.932 170.912 310.002 165.991Z" fill="#B75742"/>
<path d="M249.746 125.747L261.796 151.274C261.851 151.39 261.956 151.474 262.081 151.503L270.128 153.741L259.844 128.452L250.262 125.171C249.911 125.05 249.588 125.411 249.746 125.747Z" fill="#F7CC7F"/>
<path d="M290.754 101.629C290.754 101.629 292.98 98.5942 295.465 101.628C295.465 101.628 296.944 100.532 298.263 101.983C298.263 101.983 301.03 100.752 302.274 104.965C302.274 104.965 303.719 104.498 304.137 106.233C304.556 107.968 303.811 109.254 303.811 109.254C303.811 109.254 304.721 109.773 304.549 111.438C304.402 112.855 303.29 113.208 303.29 113.208C303.29 113.208 303.277 115.565 302.36 116.391C301.443 117.217 300.032 117.055 300.032 117.055C300.032 117.055 299.828 118.358 298.641 118.395C297.453 118.433 295.859 117.499 294.61 118.168C293.361 118.838 289.886 118.739 289.886 118.739C289.886 118.739 285.844 117.52 286.493 113.465C286.493 113.465 284.252 111.904 285.735 109.502C285.735 109.502 284.019 106.258 286.305 103.925C288.592 101.591 290.754 101.629 290.754 101.629Z" fill="#07345A"/>
<path d="M278.489 197.714C278.489 197.714 278.979 210.99 279.282 213.239C279.583 215.477 273.648 222.219 274.406 219.874C274.581 219.334 275.03 217.549 275.031 217.382C275.035 216.492 272.83 201.348 272.83 201.348L278.489 197.714Z" fill="#F7A491"/>
<path d="M272.167 224.021L274.994 217.583C274.994 217.583 277.405 216.608 279.302 213.257C279.302 213.257 281.142 213.551 282.812 214.786C283.1 214.998 284.015 215.56 283.824 215.863C283.131 216.961 280.737 219.588 278.177 222.674C278.177 222.674 274.683 226.79 271.627 228.608C268.572 230.425 272.167 224.021 272.167 224.021Z" fill="#07345A"/>
<path d="M272.69 211.549C273.31 210.919 266.408 176.955 269.755 173.677C273.103 170.399 295.469 165.572 295.469 165.572L298.404 155.231C298.404 155.231 307.755 157.973 311.54 163.616C313.61 166.702 311.494 173.739 311.121 174.516C307.927 181.168 300.034 181.503 294.293 181.445C289.01 181.39 279.631 181.317 279.631 181.317L279.608 211.34C279.608 211.34 277.302 211.898 275.485 211.829C273 211.733 272.69 211.549 272.69 211.549Z" fill="#F47458"/>
<path d="M293.423 124.724L299.48 122.547C299.48 122.547 299.663 122.557 299.718 122.55C300.368 122.468 307.515 145.853 309.848 154.7C312.18 163.546 309.125 161.868 309.125 161.868C309.125 161.868 303.782 165.198 297.565 165.432C291.101 165.676 292.394 157.886 292.394 157.886C292.394 157.886 288.991 141.621 289.39 136.085C289.789 130.55 293.423 124.724 293.423 124.724Z" fill="white"/>
<path d="M293.52 119.968L293.496 122.949L293.492 123.478C293.492 123.478 293.08 128.582 294.542 129.371C296.004 130.159 299.476 122.548 299.476 122.548L297.904 113.89L293.52 119.968Z" fill="#F7A491"/>
<path d="M298.413 116.705C297.684 119.828 295.279 121.996 293.497 122.944L293.52 119.968L297.905 113.89L298.413 116.705Z" fill="#F47458"/>
<path d="M293.642 105.095C290.803 104.504 288.132 106.679 288.073 109.536C288.047 110.778 288.078 112.331 288.26 114.011C288.697 118.051 291.281 121.709 293.112 121.477C294.942 121.245 299.67 117.995 299.127 112.249C298.792 108.702 296.622 105.716 293.642 105.095Z" fill="#F7A491"/>
<path d="M297.836 112.872C297.949 113.761 298.63 114.408 299.357 114.315C300.084 114.223 300.582 113.428 300.469 112.539C300.357 111.649 299.676 111.003 298.949 111.095C298.221 111.188 297.723 111.983 297.836 112.872Z" fill="#F7A491"/>
<path d="M285.458 104.095C283.758 105.832 283.384 108.192 284.623 109.366C285.862 110.539 288.246 110.082 289.946 108.345C291.647 106.607 292.021 104.247 290.782 103.074C289.543 101.901 287.159 102.358 285.458 104.095Z" fill="#07345A"/>
<path d="M290.557 104.696C290.64 105.347 291.493 105.775 292.462 105.653C293.431 105.53 294.151 104.902 294.068 104.251C293.985 103.6 293.133 103.173 292.163 103.295C291.194 103.418 290.475 104.046 290.557 104.696Z" fill="#07345A"/>
<path d="M285.969 110.367C286.075 111.204 286.832 111.798 287.66 111.693C288.487 111.588 289.072 110.824 288.966 109.988C288.86 109.151 288.103 108.557 287.275 108.662C286.448 108.767 285.863 109.531 285.969 110.367Z" fill="#07345A"/>
<path d="M299.476 122.548C299.476 122.548 305.405 121.585 307.397 122.433C308.664 122.973 310.277 133.722 310.277 133.722C310.277 133.722 310.342 144.595 311.083 147.661C313.595 158.054 317.104 167.155 316.71 167.668C314.132 169.788 303.345 171.753 302.526 170.742C293.475 159.591 299.476 122.548 299.476 122.548Z" fill="#466EB6"/>
<path d="M309.374 133.57C309.374 133.57 303.436 151.921 300.839 153.844C298.242 155.769 286.56 137.762 286.56 137.762C286.56 137.762 281.389 134.827 281.022 134.796C279.555 134.674 284.079 133.919 284.079 133.919L284.638 129.237C284.638 129.237 284.86 129.271 286.21 130.792C288.037 132.848 289.623 136.037 290.368 136.574L298.194 142.513L302.176 129.796L309.374 133.57Z" fill="#F7A491"/>
<path d="M259.844 128.452L262.302 128.213L272.835 154.426L270.128 153.74L259.844 128.452Z" fill="#FAE0B2"/>
<path d="M283.269 122.065L289.608 152.927C289.713 153.437 289.333 153.918 288.813 153.934L272.835 154.427L262.302 128.214L282.177 121.44C282.655 121.277 283.168 121.57 283.269 122.065Z" fill="#F7CC7F"/>
<path d="M289.704 135.456L287.678 139.893C287.678 139.893 297.635 156.279 300.709 155.37C303.784 154.462 309.583 136.714 310.492 131.823C311.4 126.932 309.514 122.879 306.998 122.25C304.483 121.621 302.526 125.884 301.758 127.7C300.989 129.517 298.194 142.514 298.194 142.514L289.704 135.456Z" fill="#86B1F2"/>
<path d="M254.304 135.701C254.304 135.701 253.931 135.045 253.811 134.645C253.692 134.245 256.143 132.855 257.113 133.489C258.083 134.122 255.492 135.088 254.304 135.701Z" fill="#F7A491"/>
<path d="M254.407 137.304C254.407 137.304 253.791 136.658 253.672 136.258C253.552 135.858 256.814 134.217 257.784 134.851C258.753 135.485 255.594 136.691 254.407 137.304Z" fill="#F7A491"/>
<path d="M255.524 138.422C255.524 138.422 254.909 137.776 254.79 137.376C254.67 136.976 257.121 135.585 258.091 136.219C259.061 136.853 256.712 137.809 255.524 138.422Z" fill="#F7A491"/>
<path d="M285.162 131.054H284.653C284.412 131.054 284.172 131.029 283.936 130.977C282.996 130.772 280.424 130.262 280.225 130.775C279.98 131.404 283.928 132.137 283.928 132.137C283.928 132.137 279.596 131.578 279.596 132.312C279.596 133.046 283.998 133.43 283.998 133.43C283.998 133.43 280.155 133.29 280.085 133.71C280.015 134.129 284.801 135.317 284.801 135.317C284.801 135.317 280.923 134.478 280.539 134.967C280.155 135.456 286.618 137.815 286.618 137.815L285.162 131.054Z" fill="#F7A491"/>
<path d="M255.525 138.422C255.525 138.422 257.644 137.227 258.203 137.599C258.762 137.972 256.386 139.765 256.386 139.765L256.671 140.42C256.671 140.42 255.152 139.245 255.525 138.422Z" fill="#F7A491"/>
</g>
<defs>
<filter id="filter0_f_48_354" x="-14.0811" y="-13.2851" width="582.03" height="349.521" filterUnits="userSpaceOnUse" color-interpolation-filters="sRGB">
<feFlood flood-opacity="0" result="BackgroundImageFix"/>
<feBlend mode="normal" in="SourceGraphic" in2="BackgroundImageFix" result="shape"/>
<feGaussianBlur stdDeviation="15" result="effect1_foregroundBlur_48_354"/>
</filter>
<clipPath id="clip0_48_354">
<rect width="550" height="306.44" fill="white"/>
</clipPath>
</defs>
</svg>
