<svg width="550" height="279" viewBox="0 0 550 279" fill="none" xmlns="http://www.w3.org/2000/svg">
<g clip-path="url(#clip0_48_674)">
<g filter="url(#filter0_f_48_674)">
<path d="M527.817 278.609L48.6695 279C48.6695 279 0.788345 195.458 62.6655 135.484C124.54 75.5073 177.757 108.735 204.759 107.069C231.759 105.403 239.596 49.6005 319.284 32.8334C419.578 11.7311 520.137 47.4577 477.027 146.932C445.669 219.291 545.817 188.586 527.817 278.609Z" fill="#CBE7FF"/>
</g>
<path d="M428.066 148.177C424.682 151.929 420.399 156.056 416.64 159.532C412.592 163.271 409.147 166.248 408.072 167.174C402.311 172.138 387.688 177.805 387.688 177.805C387.688 177.805 387.42 177.608 387.058 177.248C386.67 176.86 386.17 176.283 385.779 175.561C385.391 174.843 385.079 174.075 384.847 173.413C384.507 172.445 384.335 171.708 384.335 171.708C384.335 171.708 387.249 169.645 390.661 167.21C395.122 164.024 400.436 160.199 401.204 159.512C402.2 158.619 410.541 147.073 415.388 141.447C418.988 137.27 423.706 137.991 426.971 137.27L429.501 137.919C435.287 141.594 431.603 144.26 428.066 148.177Z" fill="#5486D6"/>
<path d="M390.368 158.257C390.368 165.615 389.705 172.819 388.431 179.811C378.282 235.606 329.442 277.909 270.719 277.909C221.878 277.909 179.875 248.649 161.28 206.7C158.829 201.173 156.784 195.422 155.186 189.492C152.498 179.535 151.066 169.062 151.066 158.257C151.066 149.419 152.025 140.807 153.842 132.517C158.813 109.84 170.216 89.5727 186.044 73.7211C190.531 69.2223 195.381 65.0782 200.54 61.3371C220.253 47.0354 244.5 38.603 270.719 38.603C273.762 38.603 276.779 38.7165 279.762 38.9423C283.972 39.2575 288.12 39.7894 292.199 40.5275C320.051 45.5754 344.547 60.2668 362.104 81.0177C365.644 85.2013 368.902 89.6318 371.846 94.2794C383.578 112.784 390.368 134.728 390.368 158.257Z" fill="#699FF0"/>
<path d="M390.358 158.254C390.358 165.612 389.695 172.816 388.421 179.809C387.105 187.041 385.139 194.047 382.585 200.763C365.444 245.86 321.821 277.906 270.71 277.906C250.335 277.906 231.152 272.814 214.362 263.835C212.816 263.007 211.291 262.149 209.784 261.256C195.246 252.64 182.687 241.03 172.963 227.276C168.418 220.855 164.493 213.968 161.271 206.698C158.819 201.171 156.775 195.42 155.176 189.489C168.692 192.72 190.03 196.177 215.605 194.55C220.047 194.27 224.615 193.835 229.296 193.217C245.769 191.048 263.597 186.632 281.955 178.76C325.496 160.089 354.791 122.704 371.836 94.2766C383.568 112.781 390.358 134.725 390.358 158.254Z" fill="#619AEC"/>
<path d="M390.326 158.265C390.326 165.624 389.662 172.828 388.388 179.82C383.517 179.114 377.176 178.426 373.261 178.886C366.208 179.716 359.154 194.238 344.632 194.808C330.111 195.379 312.27 184.28 293.184 191.748C274.099 199.217 264.141 191.333 260.822 185.94C257.502 180.546 269.12 168.099 268.068 162.705C267.014 157.311 269.535 139.055 285.716 139.055C301.897 139.055 309.366 130.757 311.44 127.023C313.515 123.288 325.962 126.193 332.6 119.14C339.239 112.086 327.622 99.6387 332.6 91.3407C337.579 83.0423 362.06 81.026 362.06 81.026C379.694 101.869 390.326 128.825 390.326 158.265Z" fill="#B3D5A2"/>
<path d="M213.98 137.914C208.172 146.094 216.054 163.106 211.076 171.819C206.097 180.531 196.554 178.872 189.501 183.021C183.376 186.622 180.922 201.482 161.281 206.695C154.713 191.888 151.066 175.495 151.066 158.251C151.066 149.414 152.025 140.802 153.842 132.513C157.849 128.465 163.341 124.83 170.83 122.86C194.479 116.636 203.192 104.604 211.076 109.998C218.959 115.391 219.789 129.732 213.98 137.914Z" fill="#B3D5A2"/>
<path d="M303.186 92.7907C303.186 92.7907 288.664 89.8863 280.781 94.8655C272.898 99.8443 256.924 108.765 258.999 113.951C261.073 119.137 276.217 123.079 282.441 122.872C288.664 122.664 306.92 113.329 314.596 113.951C322.272 114.573 317.895 93.2772 303.186 92.7907Z" fill="#B3D5A2"/>
<path d="M292.135 40.5273C284.778 53.4058 271.312 69.717 248.574 75.6103C221.137 82.7181 197.799 77.5827 185.98 73.721C190.468 69.2222 195.317 65.0781 200.476 61.337C220.19 47.0354 244.436 38.603 270.656 38.603C273.699 38.603 276.715 38.7165 279.699 38.9423C283.909 39.2575 288.057 39.7892 292.135 40.5273Z" fill="#B3D5A2"/>
<path d="M382.593 200.76C365.453 245.856 321.83 277.902 270.718 277.902C250.344 277.902 231.161 272.81 214.37 263.831C212.825 263.003 211.299 262.145 209.793 261.252C240.677 258.999 317.74 248.447 382.593 200.76Z" fill="#5792D9"/>
<path d="M234.032 235.163C227.683 239.792 226.17 254.022 222.11 255.992C220.072 256.981 216.937 260.543 214.321 263.842C197.834 255.027 183.653 242.461 172.922 227.284C180.104 222.299 193.572 213.88 202.915 213.65C202.915 213.65 207.585 213.595 211.046 204.11C212.41 200.371 213.872 197.054 215.564 194.559C218.169 190.719 221.317 188.821 225.494 190.318C227.285 190.96 228.41 191.963 229.255 193.226C231.672 196.825 231.823 202.54 238.629 208.05C247.823 215.493 240.38 230.533 234.032 235.163Z" fill="#B3D5A2"/>
<path d="M140.316 128.365C140.316 128.365 126.053 134.597 120.484 144.667C120.484 144.667 119.024 158.251 136.976 164.627L140.316 128.365Z" fill="#FB7369"/>
<path d="M153.565 269.192C153.565 269.192 152.27 277.496 153.703 277.907C154.028 278.001 170.891 277.872 170.891 277.872C170.891 277.872 170.891 275.873 168.151 275.428C165.412 274.984 160.599 273.355 159.784 269.727C158.97 266.099 153.565 269.192 153.565 269.192Z" fill="#293EB7"/>
<path d="M123.34 269.192C123.34 269.192 122.045 277.496 123.477 277.907C123.803 278.001 140.665 277.872 140.665 277.872C140.665 277.872 140.665 275.873 137.926 275.428C135.186 274.984 130.373 273.355 129.559 269.727C128.745 266.099 123.34 269.192 123.34 269.192Z" fill="#293EB7"/>
<path d="M154.296 178.579C154.296 178.579 150.067 206.911 143.338 228.809C142.823 230.483 142.031 232.913 141.217 235.343C140.236 238.27 139.167 241.179 138.636 242.819C131.847 263.768 130.526 269.935 130.526 269.935C130.526 269.935 123.428 270.608 122.614 269.05C122.614 269.05 121.444 230.24 127.07 220.234C128.465 217.76 129.682 213.342 130.558 208.712C130.627 208.338 130.698 207.964 130.761 207.587C131.753 201.983 132.228 196.269 131.897 193.476C131.273 188.178 130.811 177.565 130.811 177.565L154.296 178.579Z" fill="#3A4ACE"/>
<path d="M154.276 178.392C154.276 178.392 150.047 206.724 143.318 228.622C142.803 230.296 142.011 232.726 141.197 235.156C138.856 228.967 134.178 216.59 130.741 207.4C131.733 201.796 132.208 196.082 131.877 193.289C131.253 187.991 130.791 177.378 130.791 177.378L154.276 178.392Z" fill="#293EB7"/>
<path d="M153.062 270.084C154.294 271.335 160.855 270.843 160.855 270.843C160.855 270.843 161.824 263.74 161.894 241.863C161.91 237.043 161.598 231.837 161.602 227.975C161.631 205.067 160.507 177.259 160.507 177.259L134.043 182.065C134.043 182.065 137.588 192.078 139.736 196.961C140.943 199.709 142.248 205.903 142.913 211.924C143.428 216.608 143.556 221.187 142.948 223.959C140.494 235.175 153.062 270.084 153.062 270.084Z" fill="#3A4ACE"/>
<path d="M160.261 132.852C153.923 134.849 142.96 129.454 142.96 129.454C142.96 129.454 148.802 125.07 148.497 115.952L153.329 119.845L156.724 122.583C156.724 122.583 156.708 124.452 156.243 127.686C156.168 128.209 156.081 128.768 155.98 129.363C158.702 130.858 160.261 132.852 160.261 132.852Z" fill="#FC9490"/>
<path d="M156.748 122.583C156.748 122.583 156.731 124.452 156.267 127.686C151.331 126.528 148.511 120.353 148.511 120.353L153.352 119.846L156.748 122.583Z" fill="#E8945B"/>
<path d="M158.632 122.428C158.632 122.428 148.165 124.167 147.183 117.632C146.2 111.098 144.188 106.922 150.829 105.535C157.469 104.149 159.146 106.446 160.004 108.548C160.863 110.649 161.329 121.808 158.632 122.428Z" fill="#FC9490"/>
<path d="M128.609 180.92C130.798 183.794 151.807 186.209 160.726 181.863C162.849 180.828 164.312 175.013 165.231 167.652C166.036 161.178 166.426 153.51 166.476 146.835C166.538 138.444 163.859 132.843 162.849 132.152C155.167 126.894 145.021 127.321 145.021 127.321C143.795 127.553 137.652 126.851 134.774 134.779C129.734 148.661 126.851 178.608 128.609 180.92Z" fill="#E57970"/>
<path d="M165.214 167.643C166.019 161.169 166.409 153.501 166.459 146.826C163.319 142.332 159.331 138.893 154.955 138.51C154.955 138.51 154.55 158.532 165.214 167.643Z" fill="#FB7369"/>
<path d="M192.275 168.062L194.512 169.335C194.512 169.335 199.5 167.662 201.853 172.875C201.853 172.875 202.663 175.099 200.953 175.134C199.242 175.168 199.894 174.908 197.483 175.009C195.073 175.111 192.833 174.091 192.122 172.474L190.661 171.119L192.275 168.062Z" fill="#FC9490"/>
<path d="M193.605 171.412C194.88 169.865 195.136 168.202 195.136 168.202C195.136 168.202 177.842 158.78 176.751 157.334C175.947 156.268 169.308 142.165 165.659 135.717C163.85 132.52 162.26 131.291 159.556 130.975L153.189 130.762C146.82 133.25 149.916 136.566 152.625 141.081C158.01 150.054 166.868 161.371 168.556 163.517C173.243 169.483 191.434 173.642 191.434 173.642C191.434 173.642 192.604 172.628 193.605 171.412Z" fill="#E57970"/>
<path d="M161.261 102.23C159.433 100.908 156.309 102.219 153.967 101.567C151.366 100.845 145.225 100.006 142.487 104.169C141.684 103.578 141.815 102.283 141.815 102.283C141.356 103.354 141.773 104.416 141.998 104.881C141.575 104.97 141.004 105.198 140.775 105.786C140.775 105.786 141.167 105.311 141.851 105.379C141.576 106.047 141.371 106.807 141.251 107.674C140.134 115.717 147.857 121.418 147.857 121.418C147.857 121.418 150.259 117.136 149.261 116.49C148.262 115.844 147.466 113.699 147.969 113.114C149.055 111.853 150.292 113.784 150.879 113.609C151.467 113.432 150.846 109.857 153.21 109.798C155.574 109.739 159.996 108.546 159.996 108.546C159.996 108.546 163.468 105.761 161.261 102.23Z" fill="#293EB7"/>
<path d="M394.331 270.152C393.747 269.13 392.267 267.963 392.267 267.963C392.267 267.963 394.992 242.685 381.691 228.782C381.549 228.635 381.435 228.462 381.414 228.259C381.414 228.256 381.411 228.254 381.411 228.252C381.135 225.789 379.743 213.758 378.848 202.657C378.789 201.91 378.729 201.168 378.675 200.433C377.876 189.84 372.937 184.757 370.413 182.458L351.757 188.408C351.757 188.408 359.631 210.805 367.175 225.15C369.48 229.537 371.724 233.205 373.764 235.183C378.848 240.109 389.511 269.042 389.511 269.042C389.511 269.042 388.274 272.705 387.617 274.383C387.617 274.383 386.778 275.77 384.042 276.354C383.09 276.557 383.057 277.918 383.057 277.918H390.463C390.463 277.918 391.558 275.113 393.382 274.238C395.206 273.362 394.915 271.173 394.331 270.152Z" fill="#3A4ACE"/>
<path d="M402.483 179.61C401.052 178.586 397.258 178.981 397.258 178.981C397.258 178.981 382.402 168.961 378.708 165.875C375.014 162.789 368.416 150.971 368.416 150.971C368.416 150.971 358.534 150.251 357.757 153.057C356.98 155.861 369.28 166.884 373.452 171.269C377.624 175.656 395.89 180.914 395.89 180.914C395.89 180.914 396.158 181.848 397.435 182.51C398.712 183.172 400.969 182.701 401.736 183.148C402.627 183.667 404.891 184.137 405.41 183.526C406.384 182.378 403.914 180.633 402.483 179.61Z" fill="#FF8585"/>
<path d="M378.848 202.657L367.175 225.15C359.631 210.805 351.757 188.408 351.757 188.408L370.413 182.458C372.937 184.757 377.876 189.84 378.675 200.433C378.729 201.168 378.789 201.91 378.848 202.657Z" fill="#293EB7"/>
<path d="M361.205 144.247C361.205 144.263 358.823 145.76 356.945 146.96C354.937 148.247 352.969 148.004 352.943 147.98C352.536 147.593 351.505 145.723 350.984 144.07C350.885 143.757 350.782 143.44 350.678 143.131C350.128 141.5 349.561 140.055 349.561 140.055L351.715 138.884L355.798 136.664L356.168 136.463C357.761 141.634 360.276 144.346 361.205 144.247Z" fill="#FC9490"/>
<path d="M350.677 143.136C350.128 141.506 349.561 140.061 349.561 140.061L353.622 138.297C353.664 139.477 352.336 141.526 350.677 143.136Z" fill="#FF8585"/>
<path d="M347.747 140.835C347.747 140.835 356.967 141.003 356.984 135.26C357.001 129.517 358.202 125.671 352.316 125.32C346.43 124.969 345.28 127.158 344.808 129.073C344.336 130.989 345.349 140.642 347.747 140.835Z" fill="#FC9490"/>
<path d="M343.707 147.087C343.707 147.087 338.558 152.984 333.043 158.551C328.405 163.232 323.51 167.679 321.195 168.194C318.086 168.885 309.747 170.829 303.766 172.584C303.767 172.583 303.769 172.58 303.769 172.58C303.595 172.629 300.602 173.294 298.537 172.981C296.473 172.669 293.281 175.118 293.094 175.802C292.906 176.485 293.72 178.05 294.846 178.05C295.972 178.05 296.798 177.526 297.167 176.975C297.536 176.423 299.35 176.886 300.352 176.235C300.393 176.209 300.437 176.177 300.482 176.144C306.53 176.581 319.085 175.936 322.884 174.951C325.823 174.189 333.376 169.463 339.608 165.087C339.609 165.087 339.609 165.087 339.609 165.087C344.127 161.916 347.95 158.93 348.812 157.778C354.461 150.228 347.328 145.294 343.707 147.087Z" fill="#FC9490"/>
<path d="M372.101 155.083C372.101 155.083 372.024 155.716 371.77 156.62C371.203 158.632 369.763 161.99 366.361 162.745C364.069 163.253 363.117 158.951 362.757 154.201C362.342 148.733 362.707 142.668 362.707 142.668C362.707 142.668 364.409 142.668 372.101 155.083Z" fill="#294F9B"/>
<path d="M368.179 185.392L348.701 183.373C348.701 183.373 345.688 214.854 350.138 235.048C351.49 241.182 349.811 272.378 349.811 272.378C349.811 272.378 347.746 274.873 345.506 275.144C341.602 275.617 341.93 277.91 341.93 277.91H355.174C355.174 277.91 355.612 276.347 355.174 274.814C354.736 273.282 353.969 272.494 353.969 272.494C353.969 272.494 364.026 251.164 360.757 232.202C360.483 230.615 364.685 216.21 368.551 205.17C372.061 195.144 369.571 188.508 368.179 185.392Z" fill="#3A4ACE"/>
<path d="M361.177 118.739C358.958 117.375 355.407 118.994 355.407 118.994C356.636 117.272 361.112 117.844 361.112 117.844C355.258 116.587 352.442 118.613 351.154 120.303C344.203 119.938 343.917 126.18 343.917 126.18C343.792 126.326 343.707 126.476 343.671 126.631C343.671 126.631 339.495 130.45 350.161 136.892C350.161 136.892 344.858 131.237 345.551 129.741C345.551 129.741 349.86 137.969 357.449 139.731C360.158 136.927 361.524 134.61 361.001 130.243C362.156 128.908 363.208 126.947 363.418 126.072C363.752 124.679 363.396 120.103 361.177 118.739Z" fill="#2C3A64"/>
<path d="M371.788 156.601C371.788 156.601 371.788 156.607 371.785 156.62C371.218 158.632 369.778 161.99 366.376 162.745C364.084 163.253 363.132 158.952 362.772 154.201C362.983 153.884 363.27 153.621 363.648 153.42C368.191 151.012 371.788 156.601 371.788 156.601Z" fill="#25437F"/>
<path d="M372.594 179.078C367.668 170.214 363.673 142.942 362.694 142.675C359.782 141.874 353.579 142.947 349.224 143.894V143.893L349.188 143.901C346.696 144.444 344.816 144.944 344.52 145.024L344.478 145.034C344.478 145.034 342.737 145.411 334.51 155.796C334.51 155.796 335.519 163.753 341.9 164.754C341.935 164.976 341.97 165.204 342.008 165.44C343.128 172.528 345.512 185.703 347.883 189.853C348.27 190.534 348.66 190.974 349.043 191.101C353.2 192.487 369.586 193.768 375.166 188.402C375.166 188.402 377.519 187.944 372.594 179.078Z" fill="#294F9B"/>
<path d="M347.858 189.852C345.488 185.702 343.104 172.527 341.983 165.439C342.035 165.211 342.094 164.997 342.165 164.793C342.165 164.793 345.525 161.177 347.684 162.792C349.448 164.113 348.327 183.002 347.858 189.852Z" fill="#25437F"/>
<path d="M426.837 271.403C426.837 271.403 427.673 277.748 426.3 277.909C425.971 277.948 410.292 277.909 410.292 277.909C410.292 277.909 410.276 276.076 412.819 275.663C415.361 275.251 419.828 273.739 420.584 270.372C421.34 267.004 426.837 271.403 426.837 271.403Z" fill="#293EB7"/>
<path d="M436.771 186.006C436.771 186.006 434.849 221.603 433.611 238.509C433.598 238.682 433.585 238.853 433.572 239.025C433.565 239.128 433.557 239.229 433.55 239.329C432.22 255.935 427.564 271.631 427.564 271.631C422.34 272.732 419.731 270.119 419.731 270.119C419.731 270.119 418.629 259.123 418.355 252.251C418.197 248.293 416.593 227.397 415.259 210.388C415.217 209.857 415.176 209.333 415.136 208.81C414.208 197.003 413.442 187.447 413.442 187.447L436.771 186.006Z" fill="#3A4ACE"/>
<path d="M436.771 186.006C436.771 186.006 434.848 221.603 433.611 238.509C433.598 238.682 433.585 238.854 433.572 239.025C429.126 231.856 420.966 218.632 415.136 208.81C414.208 197.003 413.442 187.447 413.442 187.447L436.771 186.006Z" fill="#293EB7"/>
<path d="M461.365 264.311C461.365 264.311 464.182 266.985 463.632 268.885C463.082 270.785 460.54 272.051 460.197 274.373C459.853 276.696 458.638 277.907 457.401 277.907C456.164 277.907 451.097 277.907 451.097 277.907C451.097 277.907 450.434 276.328 452.633 275.835C454.832 275.343 455.661 272.614 455.523 270.081C455.386 267.547 455.73 264.17 455.73 264.17L460.403 263.044L461.365 264.311Z" fill="#293EB7"/>
<path d="M461.378 263.015C460.862 264.562 455.194 266.831 455.194 266.831C455.194 266.831 452.101 261.881 442.205 244.153C440.778 241.595 439.242 238.622 437.662 235.406C428.281 216.326 417.259 188.696 417.259 188.696L441.276 181.891C441.276 181.891 442.412 191.685 442.617 196.632C442.733 199.415 444.175 205.11 446.081 210.399C447.564 214.513 449.328 218.381 450.967 220.444C457.593 228.789 461.378 263.015 461.378 263.015Z" fill="#3A4ACE"/>
<path d="M441.928 178.698C441.884 180.895 441.752 182.8 441.491 184.387C441.491 184.387 431.854 189.119 427.582 189.431C427.448 189.44 427.312 189.45 427.176 189.456C426.961 189.472 426.746 189.484 426.526 189.494C426.435 189.5 426.343 189.504 426.25 189.507C426.07 189.515 425.891 189.521 425.709 189.527C425.527 189.533 425.341 189.537 425.156 189.541C424.884 189.547 424.607 189.549 424.329 189.549C423.902 189.549 423.47 189.543 423.034 189.529C422.935 189.527 422.836 189.523 422.738 189.519C422.69 189.517 422.643 189.517 422.596 189.515C422.55 189.513 422.507 189.511 422.462 189.509C421.473 189.468 420.456 189.395 419.416 189.28C417.544 189.079 415.592 188.749 413.573 188.267C413.573 188.267 407.868 186.639 408.525 153.371C408.531 153.061 408.566 152.652 408.628 152.168C409.767 143.348 416.597 136.363 425.356 134.807C427.403 134.444 429.619 134.416 431.913 134.217C435.992 133.859 438.439 139.58 439.896 147.135C440.222 148.834 440.5 150.629 440.735 152.467C440.875 163.089 441.797 172.128 441.928 178.698Z" fill="#739AF0"/>
<path d="M433.462 134.281C433.462 134.281 424.506 140.144 418.582 138.988C418.582 138.988 419.786 137.028 422.09 135.402C421.875 134.652 421.691 133.961 421.535 133.335C420.905 130.818 420.728 129.359 420.728 129.359L424.142 125.908L427.477 122.535C428.131 130.797 433.462 134.281 433.462 134.281Z" fill="#FC9490"/>
<path d="M427.332 126.821C427.332 126.821 424.519 131.117 421.575 133.338C420.945 130.821 420.767 129.362 420.767 129.362L424.181 125.911C426.2 126.047 427.332 126.821 427.332 126.821Z" fill="#FF8585"/>
<path d="M417.807 128.939C417.807 128.939 427.008 131.802 428.703 126.045C430.398 120.287 432.727 116.779 426.924 114.708C421.121 112.636 419.328 114.495 418.295 116.279C417.262 118.064 415.457 128.045 417.807 128.939Z" fill="#FC9490"/>
<path d="M416.102 112.32C415.771 110.433 415.95 108.969 415.95 108.969C415.95 108.969 417.058 110.745 420.499 109.306C423.94 107.867 429.739 106.622 432.939 110.025C433.143 110.242 433.336 110.47 433.52 110.708C433.561 109.704 433.199 108.341 433.199 108.341C434.444 109.85 434.493 112.238 434.493 112.238L434.493 112.239C434.524 112.298 434.553 112.359 434.584 112.419C435.581 112.819 436.916 114.649 436.916 114.649C436.491 114.156 435.794 113.974 435.207 113.914C436.262 117.039 436.009 120.52 434.084 122.171C431.269 124.585 430.957 123.561 428.403 126.822C428.403 126.822 427.162 126.024 427.518 125.092C427.873 124.16 429.784 122.342 428.164 121.697C426.545 121.052 426.477 122.406 425.768 121.828C425.058 121.25 426.681 118.345 423.021 117.342C419.36 116.34 416.433 114.207 416.102 112.32Z" fill="#293EB7"/>
<path d="M441.894 178.686C441.855 180.603 442.132 182.133 442.03 183.547C442.003 183.916 441.785 184.243 441.45 184.402C439.343 185.402 431.247 189.148 427.548 189.418C427.414 189.428 427.278 189.438 427.142 189.444C426.927 189.46 426.711 189.471 426.492 189.481C426.401 189.487 426.309 189.491 426.216 189.495C426.036 189.503 425.857 189.509 425.675 189.515C425.493 189.521 425.307 189.525 425.122 189.528C424.85 189.534 424.573 189.536 424.295 189.536C423.868 189.536 423.436 189.531 423 189.517C422.901 189.514 422.802 189.511 422.704 189.507C422.656 189.505 422.609 189.505 422.562 189.503C422.516 189.501 422.473 189.499 422.428 189.497C420.467 183.219 419.293 175.274 419.293 168.827C419.293 166.172 419.492 163.771 419.918 161.847C421.116 156.439 426.821 150.599 431.778 146.387C431.844 146.331 431.926 146.301 432.012 146.302C434.55 146.315 437.196 146.552 439.862 147.122C440.047 147.162 440.233 147.203 440.418 147.246C440.529 147.271 440.622 147.348 440.667 147.452C440.667 147.454 440.668 147.455 440.668 147.456C440.688 147.501 440.697 147.551 440.696 147.599C440.677 149.251 440.682 150.871 440.701 152.454C440.841 163.077 441.763 172.116 441.894 178.686Z" fill="#5486D6"/>
<path d="M405.88 175.54L403.689 176.703C403.689 176.703 398.879 174.806 396.511 179.882C396.511 179.882 395.688 182.059 397.346 182.173C399.005 182.286 398.377 181.997 400.713 182.21C403.049 182.423 405.238 181.513 405.955 179.936L407.395 178.656L405.88 175.54Z" fill="#FC9490"/>
<path d="M433.465 134.281L424.208 162.978L403.184 175.747C403.184 175.747 401.258 178.991 405.461 180.355C409.665 181.72 432.318 170.756 433.854 169.591C435.39 168.426 443.413 145.418 441.877 140.933C440.341 136.449 433.465 134.281 433.465 134.281Z" fill="#739AF0"/>
<path d="M205.267 263.198C205.267 263.198 202.231 266.08 202.823 268.127C203.416 270.174 206.155 271.539 206.525 274.041C206.896 276.543 208.376 277.907 209.709 277.907C211.042 277.907 216.063 277.907 216.063 277.907C216.063 277.907 217.044 276.147 214.675 275.616C212.306 275.085 211.412 272.145 211.561 269.416C211.709 266.686 211.338 263.047 211.338 263.047L206.303 261.834L205.267 263.198Z" fill="#293EB7"/>
<path d="M205.274 261.794C205.831 263.46 211.938 265.905 211.938 265.905C211.938 265.905 215.27 260.572 225.933 241.47C227.47 238.714 229.125 235.511 230.828 232.046C240.935 211.488 252.811 181.718 252.811 181.718L226.934 174.386C226.934 174.386 225.71 184.938 225.489 190.268C225.364 193.268 223.81 199.404 221.757 205.102C220.159 209.535 218.258 213.703 216.492 215.925C209.353 224.916 205.274 261.794 205.274 261.794Z" fill="#3A4ACE"/>
<path d="M242.516 270.85C242.516 270.85 241.74 277.509 243.172 277.92C243.498 278.013 260.36 277.884 260.36 277.884C260.36 277.884 260.36 275.885 257.621 275.441C254.881 274.996 250.069 273.368 249.254 269.739C248.44 266.111 242.516 270.85 242.516 270.85Z" fill="#293EB7"/>
<path d="M221.72 205.102L230.792 232.046C240.899 211.488 252.775 181.718 252.775 181.718L226.898 174.386C226.898 174.386 225.674 184.938 225.453 190.269C225.328 193.268 223.773 199.404 221.72 205.102Z" fill="#293EB7"/>
<path d="M256.931 180.391C256.931 180.391 256.031 191.615 254.974 205.108C253.537 223.436 251.809 245.948 251.637 250.213C251.342 257.619 250.156 269.465 250.156 269.465C250.156 269.465 247.343 272.28 241.715 271.094C241.715 271.094 236.7 254.183 235.267 236.29C235.244 235.997 235.222 235.702 235.2 235.406C233.867 217.191 231.795 178.836 231.795 178.836L256.931 180.391Z" fill="#3A4ACE"/>
<path d="M200.111 171.097L198.452 172.329C198.452 172.329 198.618 177.086 193.554 176.657C193.554 176.657 191.442 176.318 191.848 174.927C192.253 173.536 192.31 174.176 192.836 172.193C193.362 170.209 194.805 168.862 196.371 169.01L197.904 168.438L200.111 171.097Z" fill="#FC9490"/>
<path d="M197.394 170.462C199.05 171.592 201.07 172.292 201.07 172.292C201.07 172.292 213.568 158.026 214.91 156.809C215.867 155.941 227.822 149.912 234.599 146.526C237.438 145.108 239.262 142.24 239.345 139.068L240.513 130.343C240.559 128.563 237.753 126.287 236.311 127.332C228.61 132.916 210.622 146.744 208.014 149.204C202.495 154.409 195.364 168.336 195.364 168.336C195.364 168.336 196.093 169.574 197.394 170.462Z" fill="#1C468A"/>
<path d="M258.106 130.765C251.768 132.763 240.805 127.367 240.805 127.367C240.805 127.367 246.647 122.983 246.342 113.866L251.174 117.759L254.57 120.497C254.57 120.497 254.553 122.365 254.088 125.599C254.013 126.123 253.926 126.681 253.825 127.276C256.547 128.771 258.106 130.765 258.106 130.765Z" fill="#FC9490"/>
<path d="M254.593 120.497C254.593 120.497 254.577 122.366 254.112 125.599C249.176 124.442 246.356 118.266 246.356 118.266L251.198 117.759L254.593 120.497Z" fill="#E8945B"/>
<path d="M256.543 120.342C256.543 120.342 246.076 122.081 245.093 115.546C244.111 109.011 242.098 104.835 248.739 103.448C255.38 102.062 257.056 104.359 257.915 106.461C258.774 108.563 259.24 119.721 256.543 120.342Z" fill="#FC9490"/>
<path d="M257.869 106.465C257.869 106.465 253.448 107.66 251.084 107.719C248.719 107.777 249.34 111.353 248.753 111.529C248.166 111.705 246.928 109.773 245.842 111.035C245.339 111.621 246.136 113.765 247.134 114.411C248.132 115.056 245.73 119.339 245.73 119.339C245.73 119.339 239.166 114.115 239.052 105.996C238.942 98.2615 250.656 99.0308 253.826 99.9113C256.996 100.792 261.218 100.059 260.87 102.67C260.635 104.431 259.925 106.054 257.869 106.465Z" fill="#293EB7"/>
<path d="M226.455 178.833C228.644 181.707 249.653 184.122 258.572 179.776C260.695 178.741 262.157 172.927 263.077 165.565C263.882 159.091 264.272 151.423 264.322 144.748C264.383 136.357 261.704 130.757 260.695 130.066C253.012 124.807 242.867 125.234 242.867 125.234C242.06 125.414 235.498 124.764 232.619 132.693C227.58 146.574 224.697 176.521 226.455 178.833Z" fill="#3A4ACE"/>
<path d="M263.059 165.572C263.864 159.099 264.254 151.43 264.304 144.756C261.165 140.261 257.176 136.823 252.8 136.439C252.8 136.439 252.395 156.461 263.059 165.572Z" fill="#1C468A"/>
<path d="M294.088 170.793L295.454 172.549C295.454 172.549 300.568 172.256 300.229 177.715C300.229 177.715 299.915 179.996 298.408 179.593C296.902 179.191 297.589 179.113 295.442 178.595C293.295 178.077 291.81 176.557 291.931 174.868L291.279 173.233L294.088 170.793Z" fill="#FC9490"/>
<path d="M293.461 173.737C294.637 171.928 295.342 169.737 295.342 169.737C295.342 169.737 279.688 156.633 278.346 155.218C277.358 154.175 268.553 139.892 263.87 133.437C261.549 130.237 259.701 129.114 256.769 129.103L249.935 129.645C243.423 133.076 247.135 136.248 250.578 140.749C257.422 149.696 268.265 160.729 270.328 162.822C276.063 168.635 291.222 175.973 291.222 175.973C291.222 175.973 292.537 175.158 293.461 173.737Z" fill="#3A4ACE"/>
</g>
<defs>
<filter id="filter0_f_48_674" x="1" y="-3" width="559" height="312" filterUnits="userSpaceOnUse" color-interpolation-filters="sRGB">
<feFlood flood-opacity="0" result="BackgroundImageFix"/>
<feBlend mode="normal" in="SourceGraphic" in2="BackgroundImageFix" result="shape"/>
<feGaussianBlur stdDeviation="15" result="effect1_foregroundBlur_48_674"/>
</filter>
<clipPath id="clip0_48_674">
<rect width="550" height="279" fill="white"/>
</clipPath>
</defs>
</svg>
