<svg width="550" height="310" viewBox="0 0 550 310" fill="none" xmlns="http://www.w3.org/2000/svg">
<g clip-path="url(#clip0_48_1208)">
<g filter="url(#filter0_f_48_1208)">
<path d="M541.966 308.751H23.1149C9.82513 169.815 95.0356 85.1892 172.017 118.52C248.999 151.85 241.766 81.4017 338.843 90.3753C400.434 118.52 442.701 138.2 473.7 151.252C543.245 188.322 541.966 308.751 541.966 308.751Z" fill="#FFF3CB"/>
</g>
<path d="M486.982 296.045C481.823 292.275 471.282 294.821 463.501 297.543C462.339 295.909 460.93 294.226 459.225 292.581C475.986 281.784 499.135 258.758 486.865 256.809C476.2 255.115 461.806 275.84 454.113 288.457C446.125 283.083 433.885 279.133 415.196 280.503C366.695 284.059 328.805 252.773 300.875 263.208C278.668 271.504 258.317 276.152 238.69 274.564C239.535 260.226 239.718 232.075 228.46 229.155C217.029 226.19 228.241 258.16 234.473 274.124C233.011 273.937 231.552 273.714 230.096 273.454C226.061 265.498 219.412 255.086 212.111 254.73C205.235 254.395 213.721 263.755 222.073 271.685C198.07 266.646 169.599 286.157 169.126 309.226H468.777C468.777 309.226 468.247 305.859 465.895 301.419C477.476 301.192 492.586 300.14 486.982 296.045Z" fill="#A8D29F"/>
<path d="M234.503 291.402H155.526V309.235H234.503V291.402Z" fill="#4A75CB"/>
<path d="M210.142 291.398H131.166V309.232H210.142V291.398Z" fill="#699DEE"/>
<path d="M265.57 309.224H324.377V227.027H265.57V309.224Z" fill="#D86713"/>
<path d="M247.435 309.224H306.242V227.027H247.435V309.224Z" fill="#F1A34F"/>
<path d="M306.242 227.029L324.374 239.371V227.029H306.242Z" fill="#C95C12"/>
<path d="M114.962 255.95C114.962 255.95 105.914 262.678 104.149 262.27C102.385 261.862 110.762 255.007 110.762 255.007C107.61 253.491 97.8108 254.441 97.8108 254.441C97.8108 254.441 94.547 264.967 92.9373 264.137C91.3281 263.307 96.3029 254.965 96.3029 254.965C92.7922 254.753 88.486 257.36 88.486 257.36C82.5912 262.015 88.8735 269.344 88.8735 269.344C88.8735 269.344 87.6637 272.968 83.9409 276.267C83.9409 276.267 78.6241 280.199 78.2549 287.225L79.2198 287.311C79.2198 287.311 80.7497 280.768 83.5296 277.673C83.6377 277.561 83.7947 277.4 83.9886 277.204C84.4417 276.785 84.7588 276.47 84.972 276.236C86.3554 274.907 88.2676 273.213 89.1888 273.049C89.1888 273.049 89.1426 272.88 89.1494 272.586C89.162 272.734 89.1751 272.887 89.1888 273.049C89.5044 276.754 96.6909 279.989 101.112 280.654C105.533 281.319 104.166 279.502 102.643 276.807C101.12 274.113 96.2988 272.907 95.1989 271.666C94.0991 270.425 96.3731 270.422 99.0371 271.639C101.701 272.855 102.065 276.099 106.339 278.146C110.612 280.192 117.042 273.101 117.042 273.101C113.636 272.928 108.773 269.23 108.949 268.098C109.125 266.967 117.204 270.051 118.585 270.199C119.967 270.347 123.109 268.629 123.595 263.065C124.081 257.502 114.962 255.95 114.962 255.95Z" fill="#82B378"/>
<path d="M66.8978 260.128C66.8978 260.128 76.8916 254.531 72.2278 246.936C72.2278 246.936 68.497 242.273 64.4994 241.073C64.4994 241.073 66.6313 252.399 64.4994 252.666C62.3673 252.932 63.0336 239.874 63.0336 239.874C63.0336 239.874 52.507 234.81 48.3761 235.21C48.3761 235.21 54.9054 246.27 52.7734 246.003C50.6413 245.737 43.3128 234.544 43.3128 234.544C43.3128 234.544 32.5195 232.545 30.7872 238.941C29.055 245.337 31.8533 248.535 33.4523 248.935C35.0511 249.334 45.3115 249.201 45.0449 250.534C44.7784 251.866 37.8494 253.998 33.9851 252.799C33.9851 252.799 38.2491 263.326 43.8456 262.793C49.442 262.259 51.1744 258.795 54.6387 258.529C58.1032 258.262 60.6348 259.195 58.9026 260.128C57.1704 261.06 51.3073 260.433 48.5092 262.812C45.7107 265.191 43.4457 266.657 48.6424 267.722C53.8391 268.789 63.1665 268.122 65.0318 264.125C66.8978 260.128 66.8978 260.128 66.8978 260.128Z" fill="#A8D29F"/>
<path d="M69.5713 269.855C66.773 264.658 66.9064 260.127 66.9064 260.127C63.7084 250 35.7261 240.939 35.7261 240.939C71.3035 255.33 65.0408 264.125 65.0408 264.125C65.9995 264.684 67.4373 267.351 68.435 269.397C68.5769 269.745 68.802 270.227 69.1363 270.881C69.2717 271.177 69.3802 271.419 69.4551 271.588C71.2869 276.171 70.3164 284.086 70.3164 284.086L71.4266 284.384C73.8868 276.408 69.5713 269.855 69.5713 269.855Z" fill="#82B378"/>
<path d="M82.8007 252.413C82.8007 252.413 69.6271 245.036 75.7747 235.024C75.7747 235.024 80.6928 228.876 85.9621 227.296C85.9621 227.296 83.1518 242.225 85.9621 242.577C88.7726 242.928 87.8943 225.715 87.8943 225.715C87.8943 225.715 101.77 219.04 107.216 219.567C107.216 219.567 98.6087 234.146 101.419 233.794C104.23 233.443 113.89 218.689 113.89 218.689C113.89 218.689 128.117 216.054 130.401 224.485C132.684 232.916 128.996 237.131 126.888 237.659C124.78 238.186 111.255 238.01 111.607 239.766C111.958 241.523 121.092 244.333 126.185 242.752C126.185 242.752 120.565 256.628 113.188 255.926C105.81 255.223 103.527 250.656 98.9602 250.305C94.3934 249.954 91.0561 251.183 93.3395 252.413C95.6228 253.642 103.352 252.816 107.04 255.951C110.728 259.087 113.715 261.019 106.864 262.424C100.014 263.829 87.7189 262.952 85.2599 257.682C82.8007 252.413 82.8007 252.413 82.8007 252.413Z" fill="#A8D29F"/>
<path d="M123.917 227.119C123.917 227.119 87.0311 239.063 82.8156 252.413C82.8156 252.413 82.9914 258.384 79.3026 265.235C79.3026 265.235 73.6141 273.872 76.8572 284.388L78.3206 283.994C78.3206 283.994 77.0415 273.561 79.4561 267.52C79.5546 267.297 79.6975 266.978 79.876 266.588V266.588C80.3167 265.726 80.6133 265.09 80.8005 264.631C82.1156 261.934 84.0109 258.419 85.2745 257.682C85.2745 257.682 77.0193 246.089 123.917 227.119Z" fill="#82B378"/>
<path d="M82.3645 307.185C96.6163 307.185 108.169 295.632 108.169 281.38H56.5596C56.5596 295.632 68.1128 307.185 82.3645 307.185Z" fill="#F1A34F"/>
<path d="M88.7172 306.988C87.6677 307.119 86.5974 307.185 85.5111 307.185C71.2599 307.185 59.7075 295.632 59.7075 281.38H66.1181C66.1181 294.547 75.9782 305.409 88.7172 306.988Z" fill="#FFB973"/>
<path d="M105.337 305.414H59.3815C57.6232 305.414 56.1978 306.84 56.1978 308.598H108.52C108.52 306.84 107.095 305.414 105.337 305.414Z" fill="#F1A34F"/>
<path d="M108.353 281.38H56.0999C55.8813 281.38 55.7041 281.557 55.7041 281.776C55.7041 281.995 55.8813 282.172 56.0999 282.172H108.353C108.572 282.172 108.749 281.995 108.749 281.776C108.749 281.557 108.572 281.38 108.353 281.38Z" fill="#D86713"/>
<path d="M358.715 110.985C357.806 110.847 355.067 113.38 355.067 113.38C349.217 114.056 340.664 115.609 337.586 116.202C335.403 116.622 329.534 114.621 323.8 112.324C316.981 109.59 310.355 106.436 310.355 106.436C306.571 106.244 302.274 113.147 309.948 117.536C311.119 118.206 315.521 119.349 320.588 120.394C320.588 120.394 320.588 120.393 320.589 120.393C327.581 121.834 335.84 123.084 338.651 122.645C341.917 122.134 351.161 118.752 356.66 116.163C356.66 116.163 356.665 116.16 356.674 116.156C356.695 116.146 356.715 116.137 356.735 116.127C357.065 115.973 358.411 115.373 359.309 115.426C360.339 115.487 362.634 113.602 362.704 113.099C362.774 112.595 359.625 111.123 358.715 110.985Z" fill="#ED975D"/>
<path d="M351.561 197.951L348.34 198.605C348.34 198.605 333.601 182.045 331.326 175.076C330.109 171.352 322.328 169.743 314.196 167.641C307.118 165.811 299.774 163.606 296.268 159.304C288.729 150.061 301.002 138.703 301.002 138.703C301.002 138.703 314.05 146.458 325.307 154.47C333.175 160.069 340.168 165.793 341.222 169.083C343.781 177.083 349.208 192.29 351.561 197.951Z" fill="#2B478B"/>
<path d="M347.253 203.408H349.065C349.672 203.313 350.12 203.137 350.743 203.056C351.688 202.932 352.123 203.319 352.209 203.408C352.221 203.42 352.226 203.426 352.226 203.426H359.922C360.116 203.15 359.93 202.51 359.748 202.038C359.625 201.718 359.358 201.475 359.027 201.38C358.211 201.143 356.602 200.933 355.129 199.599C354.3 198.85 351.126 196.844 351.126 196.844L351.11 196.84C351.039 196.842 350.708 196.943 349.264 198.163C348.518 198.792 347.246 197.274 347.246 197.274C347.246 197.274 347.007 197.472 346.829 197.84C346.685 198.131 346.581 198.529 346.664 199.021C346.779 199.715 346.408 201.004 346.112 201.875C345.933 202.404 345.782 202.778 345.782 202.778C345.782 202.778 345.695 203.213 347.253 203.408Z" fill="#233862"/>
<path d="M325.307 154.47L314.196 167.641C307.118 165.811 299.774 163.606 296.268 159.304C288.729 150.061 301.002 138.703 301.002 138.703C301.002 138.703 314.05 146.458 325.307 154.47Z" fill="#1E3D70"/>
<path d="M315.221 147.586C315.221 147.586 314.325 150.411 312.867 154.661C311.023 160.034 308.276 167.685 305.297 174.781C304.643 176.34 303.976 177.873 303.306 179.348C300.829 184.808 298.292 189.488 296.06 191.867C292.047 196.143 282.294 223.633 282.294 223.633L279.863 222.96C279.863 222.96 276.475 199.487 288.478 186.13C288.607 185.987 288.707 185.822 288.721 185.631C288.723 185.629 288.723 185.627 288.723 185.626C288.883 183.648 289.454 174.795 290.697 165.823C291.002 163.621 291.348 161.415 291.737 159.3C291.761 159.164 291.787 159.031 291.811 158.897C293.638 149.12 295.386 144.77 297.643 142.583L314.238 147.307L315.221 147.586Z" fill="#2B478B"/>
<path d="M279.575 227.011H281.387C281.994 226.916 282.442 226.74 283.064 226.659C284.009 226.535 284.445 226.922 284.531 227.011C284.543 227.023 284.548 227.029 284.548 227.029H292.244C292.438 226.753 292.252 226.113 292.07 225.641C291.947 225.321 291.68 225.078 291.349 224.982C290.533 224.746 288.924 224.536 287.451 223.202C286.622 222.453 283.448 220.447 283.448 220.447L283.431 220.443C283.361 220.445 283.03 220.547 281.586 221.766C280.84 222.394 279.568 220.877 279.568 220.877C279.568 220.877 279.329 221.075 279.151 221.443C279.007 221.733 278.903 222.133 278.986 222.625C279.101 223.318 278.73 224.607 278.434 225.478C278.255 226.007 278.103 226.381 278.103 226.381C278.103 226.381 278.017 226.816 279.575 227.011Z" fill="#233862"/>
<path d="M283.143 115.668C283.143 115.668 280.366 122.461 277.165 129.073C274.471 134.632 271.479 140.062 269.582 141.222C266.907 142.856 259.537 147.465 254.757 150.904C254.757 150.904 251.026 150.876 250.447 151.59C249.868 152.304 248.53 155.513 248.92 155.838C249.311 156.162 252.276 156.012 252.997 155.273C253.626 154.629 255.025 154.166 255.372 154.058C255.394 154.051 255.415 154.045 255.437 154.038C255.446 154.036 255.452 154.034 255.452 154.034C261.261 152.247 270.373 148.523 273.131 146.702C275.506 145.135 280.772 138.649 284.971 132.877C284.972 132.877 284.972 132.877 284.972 132.877C288.017 128.693 290.501 124.884 290.916 123.6C293.635 115.19 285.811 112.978 283.143 115.668Z" fill="#FFB27D"/>
<path d="M297.696 89.0288C297.366 88.5484 297.033 88.1241 296.701 87.7436C297.112 87.7524 297.557 87.7119 297.927 87.5594C298.901 87.1565 299.345 84.0621 299.199 83.1444C299.053 82.2271 297.699 79.5725 296.03 79.3079C294.36 79.0431 292.635 80.8974 292.635 80.8974C292.943 79.5588 295.768 78.7872 295.768 78.7872C289.949 79.8599 290.246 83.7407 290.286 84.0989C284.96 82.2017 281.833 92.2315 281.833 92.2315L295.63 100.362C295.63 100.362 295.666 98.1462 296.982 98.2891C299.035 98.5119 300.744 93.4713 297.696 89.0288Z" fill="#2C3A64"/>
<path d="M298.536 110.067C295.371 111.559 291.17 109.41 291.192 109.388C291.464 109.116 291.369 108.304 291.12 107.241C290.871 106.133 290.283 104.618 289.198 102.809C288.972 102.425 288.746 102.04 288.474 101.633L288.836 101.498L294.986 99.033C294.986 99.033 295.981 100.819 297.021 102.447C297.903 103.804 298.83 105.025 299.237 104.98C299.26 104.957 303.33 107.761 298.536 110.067Z" fill="#FFB27D"/>
<path d="M295.006 99.6473C294.848 101.841 294.101 105.797 291.139 107.245C290.891 106.137 290.302 104.622 289.217 102.813L295.006 99.6473Z" fill="#ED975D"/>
<path d="M288.845 105.312C288.845 105.312 296.852 102.156 294.81 97.2001C292.768 92.2442 292.426 88.4989 287.227 90.3043C282.028 92.1096 281.82 94.4076 282.1 96.2276C282.379 98.0475 286.709 106.006 288.845 105.312Z" fill="#FFB27D"/>
<path d="M291.834 96.0691C295.531 95.5471 296.61 94.0528 296.61 94.0528C296.61 94.0528 293.206 93.0757 291.205 89.7412C291.205 89.7412 287.049 88.3399 283.97 90.6825C283.783 90.9262 283.648 91.2133 283.58 91.5509C282.874 91.3195 281.813 91.3797 281.201 93.3745C280.281 96.3712 283.554 99.6432 283.554 99.6432C284.347 99.4189 283.452 96.7483 283.327 95.3229C283.235 94.2738 283.801 92.9313 284.106 92.2945C284.498 92.8028 288.399 97.7047 293.161 97.9003C293.161 97.9003 290.645 97.0277 288.355 95.32C289.493 95.8795 290.705 96.2285 291.834 96.0691Z" fill="#2C3A64"/>
<path d="M313.806 120.285C313.739 120.046 313.666 119.798 313.589 119.543C314.778 117.27 315.362 115.222 315.61 113.488C316.153 109.824 315.226 107.563 315.226 107.563C315.226 107.563 309.672 104.618 307.22 104.243C307.209 104.239 307.198 104.235 307.189 104.234C307.16 104.23 307.127 104.227 307.091 104.225C304.615 103.883 299.256 104.978 299.256 104.978C299.256 104.978 300.29 107.73 297.373 109.564C294.456 111.399 291.341 109.095 291.341 109.095C291.247 109.158 291.147 109.228 291.044 109.3L291.044 109.3C291.044 109.3 283.369 114.363 282.681 115.521C281.992 116.678 279.04 122.407 279.04 122.407C279.04 122.407 279.976 127.217 290.343 127.619C291.195 129.686 291.848 131.703 292.06 133.384C292.884 139.914 291.928 145.064 292.888 148.875C293.847 152.686 311.145 150.513 314.278 149.78C317.41 149.047 316.706 145.701 316.947 142.452C317.249 138.369 314.826 123.887 313.806 120.285Z" fill="#699DEE"/>
<path d="M315.611 113.484C315.362 115.224 314.774 117.282 313.576 119.566C313.304 118.368 312.196 113.981 310.41 111.991C310.41 111.991 313.418 112.262 315.611 113.484Z" fill="#4A82D3"/>
<path d="M245.167 156.276C245.167 156.276 248.39 152.37 249.084 151.909C249.777 151.447 252.822 150.638 252.996 150.801C253.169 150.964 253.177 151.2 252.8 151.533C252.423 151.866 250.984 152.706 251.189 152.801C251.394 152.895 255.737 150.733 256.364 151.46C256.99 152.187 256.009 155.189 254.336 156.628C252.662 158.067 247.667 158.681 247.352 158.882C244.688 160.586 245.167 156.276 245.167 156.276Z" fill="#ED975D"/>
<path d="M188.448 147.261C188.448 147.261 193.077 152.754 198.973 150.456C198.973 150.456 200.241 147.389 200.259 145.127C200.261 144.849 200.265 144.579 200.269 144.323C200.301 141.776 200.387 140.347 200.387 140.347C200.387 140.347 200.385 140.347 200.38 140.346C200.112 140.234 191.368 136.644 191.375 136.942C191.525 143.829 188.448 147.261 188.448 147.261Z" fill="#FFB27D"/>
<path d="M192.238 138.588C193.081 140.151 195.975 143.209 200.254 144.326C200.286 141.779 200.372 140.35 200.372 140.35C200.372 140.35 200.37 140.35 200.366 140.349C200.124 140.284 191.987 138.127 192.238 138.588Z" fill="#ED975D"/>
<path d="M202.207 140.082C202.207 140.082 192.373 142.394 191.027 136.248C189.682 130.102 187.507 126.26 193.728 124.524C199.95 122.789 201.688 124.866 202.636 126.808C203.584 128.751 204.73 139.323 202.207 140.082Z" fill="#FFB27D"/>
<path d="M191.357 137.916C191.222 138.002 189.106 138.652 185.099 130.669C184.47 129.416 184.041 126.705 185.508 124.309C186.974 121.914 192.174 120.03 196.493 119.211C200.813 118.391 201.851 120.822 202.868 123.265C203.936 125.829 207.02 127.941 207.02 127.941C203.295 130.022 198.808 127.045 197.253 127.535C195.699 128.024 195.15 130.474 195.033 131.259C194.917 132.045 194.738 132.697 192.783 131.996C190.828 131.294 191.899 134.766 192.212 135.429C192.212 135.429 192.478 137.198 191.357 137.916Z" fill="#A9453D"/>
<path d="M166.038 291.396H160.083C158.835 291.396 157.448 290.129 157.101 287.81C156.753 285.49 154.187 284.225 153.632 282.327C153.076 280.428 155.922 277.756 155.922 277.756L156.397 277.136L156.892 276.491L161.609 277.615C161.609 277.615 161.725 278.753 161.798 280.203C161.849 281.249 161.876 282.46 161.818 283.521C161.679 286.052 162.517 288.778 164.736 289.271C166.956 289.763 166.038 291.396 166.038 291.396Z" fill="#2C3A64"/>
<path d="M207.474 291.454H191.69C191.539 291.424 191.424 291.39 191.355 291.354C190.301 290.811 190.631 286.656 190.758 285.373C190.782 285.135 190.799 284.996 190.799 284.996C190.799 284.996 196.35 280.425 197.113 283.925C197.138 284.034 197.165 284.141 197.195 284.247V284.249C198.159 287.523 202.466 289.01 204.954 289.425C206.854 289.743 207.347 290.884 207.474 291.454Z" fill="#2C3A64"/>
<path d="M204.309 200.176C204.309 200.176 203.466 210.693 202.476 223.335C201.129 240.508 199.509 261.602 199.349 265.598C199.072 272.538 197.961 283.637 197.961 283.637C197.961 283.637 195.326 286.274 190.052 285.163C190.052 285.163 185.352 269.317 184.01 252.553C183.989 252.278 183.968 252.001 183.947 251.724C182.699 234.658 180.757 198.719 180.757 198.719L204.309 200.176Z" fill="#EE9849"/>
<path d="M204.309 200.176C204.309 200.176 203.466 210.693 202.476 223.335L184.01 252.553C183.989 252.278 183.968 252.001 183.947 251.724C182.699 234.658 180.757 198.719 180.757 198.719L204.309 200.176Z" fill="#E58638"/>
<path d="M200.445 201.424C200.445 201.424 185.251 239.512 175.261 257.412C165.27 275.311 162.149 280.307 162.149 280.307C162.149 280.307 156.425 278.017 155.904 276.456C155.904 276.456 159.725 241.9 166.415 233.476C170.196 228.717 174.637 214.433 174.845 209.437C175.053 204.442 176.197 194.556 176.197 194.556L200.445 201.424Z" fill="#EE9849"/>
<path d="M165.657 195.082C165.657 195.082 165.264 199.839 164.976 200.569C164.687 201.3 162.767 203.564 162.544 203.531C162.322 203.499 162.189 203.321 162.301 202.86C162.414 202.399 163.076 200.975 162.866 201.012C162.656 201.049 160.458 205.059 159.582 204.833C158.707 204.608 157.851 201.756 158.371 199.742C158.893 197.728 162.429 194.565 162.564 194.241C163.709 191.489 165.657 195.082 165.657 195.082Z" fill="#ED975D"/>
<path d="M164.043 196.283C165.724 196.823 165.994 196.7 165.994 196.7C165.994 196.7 174.179 181.798 175.008 180.434C175.837 179.07 192.387 163.723 192.387 163.723L188.134 147.863C188.134 147.863 169.311 172.238 167.278 175.736C163.919 181.516 161.951 194.94 161.951 194.94C161.951 194.94 162.722 195.859 164.043 196.283Z" fill="#1E3D70"/>
<path d="M207.504 169.955C207.445 173.212 207.256 176.873 207 180.592C206.985 180.812 206.969 181.033 206.954 181.253C206.79 183.557 206.613 185.866 206.41 188.118C206.329 189.021 206.242 189.913 206.152 190.79L206.137 190.908C206.13 191.236 206.09 191.592 206.054 191.917C205.224 200.35 204.354 207.014 204.193 207.116C204 207.245 203.783 207.309 203.545 207.281C201.334 207.003 194.735 207.505 189.332 206.33C184.773 205.368 180.848 203.545 176.688 201.087C176.136 200.76 174.877 199.896 174.98 199.25C175.081 198.54 175.266 197.514 175.503 196.224C176.322 191.737 177.737 184.021 178.22 174.99C178.313 173.307 178.45 171.646 178.627 170.012C179.091 165.757 179.834 161.715 180.831 158.125C182.683 151.455 185.405 146.347 188.82 144.349C189.266 144.099 191.667 145.627 193.872 147.042C195.908 148.347 198.053 148.708 200.138 148.526L201.973 150.556C204.195 153.139 206.561 156.578 207.207 161.467C207.256 161.828 207.297 162.212 207.332 162.62C207.511 164.611 207.554 167.132 207.504 169.955Z" fill="#2A4E96"/>
<path d="M207.499 169.955C207.44 173.213 207.251 176.874 206.996 180.592C206.98 180.813 206.964 181.034 206.949 181.254C194.315 173.346 192.369 158.876 192.369 158.876C198.584 159.148 203.522 160.577 207.327 162.62C207.506 164.612 207.549 167.133 207.499 169.955Z" fill="#1E3D70"/>
<path d="M247.095 156.668C246.443 154.906 245.43 155.021 245.43 155.021C245.43 155.021 226.646 159.702 224.961 159.903C223.275 160.104 204.733 152.663 204.733 152.663C204.733 152.663 197.435 149.388 194.016 152.378C191.045 154.977 190.91 158.269 191.605 161.034C192.434 164.329 195.222 166.763 198.592 167.192C206.156 168.156 221.249 169.969 224.412 169.529C231.453 168.549 247.406 159.34 247.406 159.34C247.406 159.34 247.606 158.052 247.095 156.668Z" fill="#2A4E96"/>
<path d="M432.317 191.095C432.317 191.095 434.926 193.514 434.417 195.232C433.908 196.951 431.553 198.096 431.235 200.197C430.916 202.297 429.643 203.443 428.498 203.443C427.352 203.443 423.035 203.443 423.035 203.443C423.035 203.443 422.192 201.965 424.229 201.519C426.265 201.074 427.034 198.606 426.906 196.314C426.779 194.023 427.097 190.967 427.097 190.967L431.426 189.949L432.317 191.095Z" fill="#2C3A64"/>
<path d="M399.791 203.16C399.526 203.293 398.596 203.384 397.319 203.446H384.967C385.008 203.078 385.296 201.769 387.316 201.443C389.598 201.072 393.551 199.746 394.432 196.827C394.462 196.734 394.487 196.637 394.508 196.541C395.208 193.422 400.3 197.495 400.3 197.495C400.3 197.495 400.314 197.62 400.336 197.832C400.456 198.979 400.757 202.678 399.791 203.16Z" fill="#2C3A64"/>
<path d="M387.902 119.74C387.902 119.74 388.676 129.389 389.585 140.988C390.82 156.743 392.306 176.097 392.453 179.763C392.707 186.13 393.726 196.313 393.726 196.313C393.726 196.313 396.144 198.733 400.983 197.713C400.983 197.713 405.295 183.175 406.526 167.794C406.545 167.542 406.565 167.288 406.584 167.034C407.73 151.376 409.511 118.404 409.511 118.404L387.902 119.74Z" fill="#35488B"/>
<path d="M387.902 119.74C387.902 119.74 388.676 129.389 389.585 140.988L406.526 167.794C406.545 167.542 406.564 167.288 406.583 167.034C407.729 151.376 409.511 118.404 409.511 118.404L387.902 119.74Z" fill="#2C3A64"/>
<path d="M391.455 120.886C391.455 120.886 405.395 155.83 414.56 172.252C423.726 188.674 426.591 193.257 426.591 193.257C426.591 193.257 431.842 191.157 432.32 189.724C432.32 189.724 428.815 158.021 422.676 150.293C419.208 145.925 415.133 132.82 414.942 128.237C414.751 123.654 413.701 114.584 413.701 114.584L391.455 120.886Z" fill="#35488B"/>
<path d="M348.43 101.929C348.43 101.929 344.649 101.064 344.013 101.108C343.376 101.152 341.15 102.083 341.121 102.263C341.091 102.443 341.197 102.59 341.581 102.616C341.966 102.642 343.232 102.479 343.151 102.633C343.071 102.786 339.424 103.503 339.384 104.237C339.344 104.971 341.342 106.335 343.03 106.426C344.718 106.518 348.037 104.556 348.322 104.532C350.735 104.321 348.43 101.929 348.43 101.929Z" fill="#FFB27D"/>
<path d="M346.821 102.891C346.279 101.164 346.405 100.889 346.405 100.889C346.405 100.889 361.732 92.6013 363.135 91.7609C364.539 90.9206 380.378 74.0646 380.378 74.0646L396.602 78.5302C396.602 78.5302 371.496 97.655 367.898 99.7144C361.952 103.118 348.183 105.044 348.183 105.044C348.183 105.044 347.246 104.247 346.821 102.891Z" fill="#E58638"/>
<path d="M385.292 65.8717C385.292 65.8717 379.604 75.8788 374.045 77.1851C374.045 77.1851 374.277 73.8241 375.63 71.5242C375.076 70.8703 374.589 70.2697 374.168 69.7322C372.768 67.939 372.103 66.8413 372.103 66.8413L373.99 61.7691L375.27 58.3276C375.885 59.4444 376.563 60.3963 377.27 61.21C380.914 65.3989 385.292 65.8717 385.292 65.8717Z" fill="#FFB27D"/>
<path d="M377.271 61.2144C377.271 61.2144 377.949 66.2292 374.168 69.7367C372.769 67.9434 372.104 66.8458 372.104 66.8458L373.99 61.7735C376.013 61.1571 377.271 61.2144 377.271 61.2144Z" fill="#ED975D"/>
<path d="M370.606 67.5823C370.606 67.5823 379.105 64.2694 376.96 59.0091C374.815 53.7488 374.467 49.7785 368.951 51.6712C363.435 53.564 363.206 55.9985 363.494 57.9281C363.783 59.8584 368.34 68.3085 370.606 67.5823Z" fill="#FFB27D"/>
<path d="M414.493 117.225C411.064 122.154 385.434 128.739 385.738 125.327C385.854 124.022 386.011 121.72 385.734 118.599C385.67 117.868 385.58 117.093 385.462 116.274C384.811 111.791 383.264 106.027 379.814 99.3556C379.555 98.8554 379.286 98.3521 379.007 97.8418C377.587 95.2586 376.376 92.5273 375.453 89.8574C373.677 84.7256 372.962 79.816 373.857 76.6059C373.861 76.5902 373.866 76.5765 373.872 76.5608C379.229 74.0834 381.305 64.4756 381.305 64.4756C381.305 64.4756 399.584 67.7569 409.823 92.121C409.823 92.121 417.475 112.936 414.493 117.225Z" fill="#EE9849"/>
<path d="M385.749 118.596C385.684 117.865 385.594 117.091 385.476 116.271C384.825 111.789 383.278 106.024 379.828 99.3528C380.42 95.7625 381.238 92.7765 382.136 91.4325C385.781 85.9689 387.905 85.115 387.905 85.115C387.905 85.115 393.372 108.171 385.749 118.596Z" fill="#E58638"/>
<path d="M356.934 113.114C356.934 113.114 351.877 113.379 351.093 113.662C350.31 113.944 347.848 115.909 347.875 116.146C347.902 116.383 348.087 116.53 348.579 116.425C349.071 116.32 350.603 115.663 350.557 115.885C350.511 116.106 346.189 118.309 346.4 119.245C346.612 120.181 349.608 121.18 351.76 120.691C353.913 120.203 357.379 116.554 357.728 116.421C360.682 115.294 356.934 113.114 356.934 113.114Z" fill="#FFB27D"/>
<path d="M355.976 115.03C354.963 113.394 355.694 112.647 355.694 112.647C355.694 112.647 371.314 100.417 372.538 99.1814C373.763 97.9461 379.434 78.2726 379.434 78.2726C379.434 78.2726 381.386 70.3106 385.957 69.4326C389.93 68.6696 392.675 70.6349 394.472 72.9387C396.612 75.6842 396.823 79.4713 395.046 82.4651C391.057 89.1853 383.012 102.525 380.663 104.804C375.434 109.876 357.939 116.965 357.939 116.965C357.939 116.965 356.772 116.315 355.976 115.03Z" fill="#EE9849"/>
<path d="M378.191 49.2364C378.251 49.1189 378.424 48.9931 378.846 48.864C378.846 48.864 378.45 48.731 377.99 48.8321C377.752 48.2499 377.172 47.2585 376.084 47.2509C376.084 47.2509 376.707 47.4132 376.938 48.0379C375.447 47.0929 372.684 46.8187 365.787 49.1162C356.696 52.1441 361.238 57.4212 362.616 57.8442C363.994 58.2673 366.53 55.5521 368.811 55.1812C371.092 54.8106 372.326 57.9884 373.196 58.2518C374.066 58.5153 373.571 57.7925 374.482 57.0682C375.393 56.3438 375.916 58.0477 375.896 59.2441C375.876 60.4406 377.652 61.5749 377.652 61.5749C377.652 61.5749 377.652 61.5749 378.694 59.6644C379.735 57.7541 379.452 50.8187 378.456 49.5706C378.369 49.4603 378.281 49.3484 378.191 49.2364Z" fill="#2B478B"/>
<path d="M234.498 291.19V301.478L210.146 291.19H234.498Z" fill="#4271BC"/>
<path d="M442.906 203.444H362.37V309.225H442.906V203.444Z" fill="#4A75CB"/>
<path d="M418.082 203.445H337.544V309.225H418.082V203.445Z" fill="#699DEE"/>
<path d="M442.894 203.445V219.262L418.063 203.445H442.894Z" fill="#4271BC"/>
</g>
<defs>
<filter id="filter0_f_48_1208" x="1.73535" y="69.5781" width="560.232" height="259.173" filterUnits="userSpaceOnUse" color-interpolation-filters="sRGB">
<feFlood flood-opacity="0" result="BackgroundImageFix"/>
<feBlend mode="normal" in="SourceGraphic" in2="BackgroundImageFix" result="shape"/>
<feGaussianBlur stdDeviation="10" result="effect1_foregroundBlur_48_1208"/>
</filter>
<clipPath id="clip0_48_1208">
<rect width="550" height="309.966" fill="white"/>
</clipPath>
</defs>
</svg>
