<svg width="582" height="328" viewBox="0 0 582 328" fill="none" xmlns="http://www.w3.org/2000/svg">
<g clip-path="url(#clip0_48_1208)">
<g filter="url(#filter0_f_48_1208)">
<path d="M573.498 326.715H24.4598C10.3968 179.696 100.565 90.1456 182.026 125.415C263.486 160.685 255.833 86.1378 358.558 95.6335C423.732 125.415 468.458 146.241 501.261 160.053C574.852 199.279 573.498 326.715 573.498 326.715Z" fill="#FFF3CB"/>
</g>
<path d="M515.316 313.27C509.857 309.28 498.702 311.974 490.469 314.854C489.239 313.126 487.747 311.345 485.943 309.604C503.679 298.179 528.175 273.813 515.192 271.751C503.906 269.958 488.674 291.889 480.535 305.24C472.081 299.554 459.129 295.373 439.353 296.823C388.03 300.586 347.935 267.48 318.381 278.522C294.882 287.301 273.347 292.219 252.578 290.539C253.472 275.367 253.666 245.578 241.752 242.487C229.656 239.35 241.521 273.18 248.115 290.073C246.568 289.875 245.024 289.639 243.484 289.364C239.214 280.945 232.178 269.927 224.452 269.55C217.176 269.196 226.156 279.101 234.993 287.493C209.595 282.16 179.466 302.806 178.967 327.218H496.051C496.051 327.218 495.49 323.654 493.002 318.956C505.257 318.716 521.246 317.603 515.316 313.27Z" fill="#A8D29F"/>
<path d="M248.146 308.356H164.574V327.226H248.146V308.356Z" fill="#4A75CB"/>
<path d="M222.368 308.352H138.797V327.224H222.368V308.352Z" fill="#699DEE"/>
<path d="M281.021 327.216H343.25V240.236H281.021V327.216Z" fill="#D86713"/>
<path d="M261.831 327.216H324.059V240.236H261.831V327.216Z" fill="#F1A34F"/>
<path d="M324.059 240.238L343.247 253.298V240.238H324.059Z" fill="#C95C12"/>
<path d="M121.65 270.841C121.65 270.841 112.075 277.961 110.209 277.529C108.342 277.098 117.206 269.843 117.206 269.843C113.87 268.24 103.501 269.245 103.501 269.245C103.501 269.245 100.048 280.383 98.3443 279.505C96.6415 278.627 101.906 269.799 101.906 269.799C98.1908 269.575 93.634 272.333 93.634 272.333C87.3962 277.26 94.0441 285.015 94.0441 285.015C94.0441 285.015 92.7639 288.849 88.8245 292.341C88.8245 292.341 83.1983 296.502 82.8076 303.936L83.8287 304.027C83.8287 304.027 85.4476 297.103 88.3892 293.828C88.5036 293.71 88.6698 293.54 88.8749 293.333C89.3544 292.889 89.6899 292.556 89.9156 292.308C91.3794 290.901 93.4029 289.109 94.3777 288.936C94.3777 288.936 94.3288 288.757 94.336 288.446C94.3493 288.602 94.3632 288.764 94.3777 288.936C94.7117 292.856 102.316 296.279 106.994 296.983C111.673 297.687 110.227 295.764 108.615 292.912C107.003 290.061 101.901 288.785 100.738 287.472C99.5736 286.159 101.98 286.156 104.799 287.443C107.618 288.731 108.003 292.163 112.525 294.329C117.047 296.494 123.851 288.991 123.851 288.991C120.247 288.808 115.101 284.894 115.287 283.697C115.474 282.499 124.023 285.763 125.485 285.919C126.946 286.076 130.271 284.258 130.786 278.371C131.3 272.484 121.65 270.841 121.65 270.841Z" fill="#82B378"/>
<path d="M70.7899 275.263C70.7899 275.263 81.3651 269.34 76.4299 261.303C76.4299 261.303 72.4821 256.368 68.2519 255.099C68.2519 255.099 70.5079 267.084 68.2519 267.366C65.9957 267.648 66.7009 253.83 66.7009 253.83C66.7009 253.83 55.5617 248.472 51.1905 248.895C51.1905 248.895 58.0997 260.598 55.8437 260.316C53.5875 260.034 45.8326 248.19 45.8326 248.19C45.8326 248.19 34.4113 246.075 32.5783 252.843C30.7453 259.611 33.7064 262.995 35.3984 263.418C37.0903 263.841 47.9477 263.7 47.6655 265.11C47.3835 266.52 40.0514 268.776 35.9622 267.507C35.9622 267.507 40.4744 278.646 46.3964 278.082C52.3184 277.518 54.1517 273.852 57.8175 273.57C61.4836 273.288 64.1625 274.275 62.3295 275.262C60.4965 276.249 54.2922 275.586 51.3313 278.103C48.37 280.62 45.9733 282.171 51.4723 283.299C56.9714 284.427 66.8414 283.722 68.8153 279.492C70.7899 275.263 70.7899 275.263 70.7899 275.263Z" fill="#A8D29F"/>
<path d="M73.6191 285.555C70.658 280.056 70.7991 275.262 70.7991 275.262C67.4151 264.546 37.8047 254.958 37.8047 254.958C75.4521 270.186 68.8249 279.492 68.8249 279.492C69.8394 280.084 71.3609 282.906 72.4167 285.071C72.5669 285.439 72.805 285.949 73.1588 286.641C73.3021 286.954 73.4169 287.211 73.4961 287.389C75.4345 292.239 74.4075 300.615 74.4075 300.615L75.5823 300.93C78.1856 292.489 73.6191 285.555 73.6191 285.555Z" fill="#82B378"/>
<path d="M87.618 267.099C87.618 267.099 73.678 259.293 80.1833 248.698C80.1833 248.698 85.3875 242.193 90.9634 240.52C90.9634 240.52 87.9896 256.319 90.9634 256.69C93.9374 257.062 93.008 238.847 93.008 238.847C93.008 238.847 107.692 231.784 113.453 232.342C113.453 232.342 104.346 247.769 107.32 247.397C110.294 247.025 120.516 231.412 120.516 231.412C120.516 231.412 135.571 228.624 137.988 237.546C140.404 246.468 136.501 250.928 134.27 251.486C132.04 252.044 117.728 251.857 118.1 253.716C118.472 255.575 128.137 258.549 133.527 256.876C133.527 256.876 127.579 271.559 119.773 270.816C111.967 270.072 109.55 265.24 104.718 264.868C99.8853 264.496 96.3537 265.798 98.7701 267.099C101.186 268.399 109.365 267.525 113.268 270.843C117.171 274.162 120.331 276.206 113.082 277.693C105.833 279.18 92.8224 278.251 90.2204 272.674C87.6181 267.099 87.618 267.099 87.618 267.099Z" fill="#A8D29F"/>
<path d="M131.126 240.333C131.126 240.333 92.0945 252.972 87.6338 267.098C87.6338 267.098 87.8197 273.418 83.9163 280.666C83.9163 280.666 77.8969 289.807 81.3287 300.934L82.8772 300.518C82.8772 300.518 81.5236 289.478 84.0788 283.085C84.183 282.849 84.3342 282.511 84.5231 282.099V282.099C84.9894 281.186 85.3033 280.514 85.5014 280.028C86.8931 277.174 88.8985 273.454 90.2357 272.674C90.2357 272.674 81.5002 260.407 131.126 240.333Z" fill="#82B378"/>
<path d="M87.1562 325.058C102.237 325.058 114.462 312.832 114.462 297.751H59.8499C59.8499 312.832 72.0752 325.058 87.1562 325.058Z" fill="#F1A34F"/>
<path d="M93.8789 324.849C92.7684 324.988 91.6358 325.058 90.4862 325.058C75.406 325.058 63.1814 312.832 63.1814 297.751H69.965C69.965 311.684 80.3988 323.178 93.8789 324.849Z" fill="#FFB973"/>
<path d="M111.466 323.184H62.8365C60.9759 323.184 59.4675 324.692 59.4675 326.553H114.834C114.834 324.692 113.326 323.184 111.466 323.184Z" fill="#F1A34F"/>
<path d="M114.657 297.751H59.3637C59.1323 297.751 58.9448 297.939 58.9448 298.17C58.9448 298.402 59.1323 298.589 59.3637 298.589H114.657C114.889 298.589 115.076 298.402 115.076 298.17C115.076 297.939 114.889 297.751 114.657 297.751Z" fill="#D86713"/>
<path d="M379.586 117.443C378.624 117.297 375.725 119.977 375.725 119.977C369.535 120.692 360.485 122.335 357.227 122.963C354.917 123.407 348.707 121.29 342.64 118.859C335.424 115.966 328.412 112.629 328.412 112.629C324.408 112.425 319.861 119.73 327.981 124.374C329.22 125.083 333.878 126.293 339.241 127.398C339.241 127.398 339.241 127.398 339.242 127.398C346.64 128.922 355.38 130.245 358.355 129.78C361.811 129.24 371.592 125.661 377.411 122.921C377.411 122.921 377.417 122.918 377.426 122.914C377.448 122.903 377.469 122.894 377.491 122.884C377.84 122.72 379.264 122.086 380.215 122.142C381.305 122.207 383.733 120.212 383.807 119.679C383.881 119.146 380.548 117.589 379.586 117.443Z" fill="#ED975D"/>
<path d="M372.015 209.468L368.607 210.16C368.607 210.16 353.01 192.637 350.604 185.262C349.316 181.322 341.082 179.619 332.476 177.394C324.987 175.458 317.216 173.125 313.505 168.572C305.528 158.792 318.515 146.773 318.515 146.773C318.515 146.773 332.322 154.98 344.234 163.458C352.56 169.382 359.96 175.44 361.075 178.921C363.783 187.386 369.526 203.477 372.015 209.468Z" fill="#2B478B"/>
<path d="M367.457 215.243H369.374C370.016 215.142 370.491 214.956 371.149 214.87C372.149 214.739 372.61 215.149 372.701 215.243C372.714 215.255 372.719 215.262 372.719 215.262H380.863C381.068 214.97 380.871 214.292 380.679 213.793C380.549 213.454 380.266 213.197 379.916 213.096C379.053 212.846 377.35 212.623 375.791 211.212C374.914 210.419 371.555 208.297 371.555 208.297L371.538 208.293C371.464 208.294 371.113 208.402 369.585 209.692C368.795 210.358 367.449 208.752 367.449 208.752C367.449 208.752 367.197 208.961 367.008 209.351C366.856 209.658 366.746 210.08 366.833 210.601C366.955 211.335 366.563 212.698 366.25 213.621C366.06 214.18 365.9 214.576 365.9 214.576C365.9 214.576 365.808 215.037 367.457 215.243Z" fill="#233862"/>
<path d="M344.234 163.458L332.476 177.394C324.987 175.458 317.216 173.125 313.505 168.572C305.528 158.792 318.515 146.773 318.515 146.773C318.515 146.773 332.322 154.98 344.234 163.458Z" fill="#1E3D70"/>
<path d="M333.561 156.173C333.561 156.173 332.613 159.162 331.07 163.659C329.119 169.345 326.212 177.441 323.06 184.95C322.367 186.599 321.662 188.222 320.953 189.783C318.331 195.561 315.647 200.513 313.285 203.03C309.039 207.555 298.718 236.644 298.718 236.644L296.146 235.932C296.146 235.932 292.56 211.093 305.262 196.959C305.398 196.808 305.505 196.634 305.519 196.431C305.521 196.429 305.521 196.428 305.521 196.426C305.69 194.333 306.295 184.964 307.61 175.47C307.933 173.141 308.299 170.806 308.711 168.568C308.736 168.425 308.764 168.283 308.789 168.142C310.722 157.796 312.572 153.193 314.96 150.879L332.521 155.878L333.561 156.173Z" fill="#2B478B"/>
<path d="M295.841 240.219H297.758C298.4 240.118 298.874 239.932 299.533 239.846C300.533 239.715 300.994 240.125 301.085 240.219C301.098 240.231 301.103 240.238 301.103 240.238H309.247C309.452 239.946 309.255 239.268 309.063 238.769C308.933 238.43 308.65 238.173 308.3 238.072C307.436 237.822 305.734 237.6 304.175 236.188C303.298 235.395 299.939 233.273 299.939 233.273L299.922 233.269C299.848 233.27 299.497 233.378 297.969 234.668C297.179 235.334 295.833 233.728 295.833 233.728C295.833 233.728 295.581 233.937 295.392 234.327C295.24 234.634 295.13 235.056 295.217 235.577C295.339 236.311 294.947 237.675 294.634 238.597C294.444 239.156 294.284 239.552 294.284 239.552C294.284 239.552 294.192 240.012 295.841 240.219Z" fill="#233862"/>
<path d="M299.616 122.397C299.616 122.397 296.678 129.586 293.29 136.583C290.441 142.465 287.275 148.211 285.267 149.438C282.436 151.167 274.638 156.045 269.579 159.684C269.579 159.684 265.631 159.654 265.018 160.409C264.405 161.165 262.99 164.561 263.403 164.904C263.816 165.248 266.954 165.089 267.717 164.307C268.382 163.626 269.863 163.135 270.23 163.021C270.253 163.014 270.276 163.008 270.299 163C270.308 162.998 270.315 162.996 270.315 162.996C276.462 161.105 286.104 157.165 289.023 155.238C291.536 153.579 297.107 146.716 301.551 140.608C301.552 140.608 301.552 140.608 301.552 140.608C304.774 136.181 307.403 132.15 307.842 130.792C310.719 121.891 302.439 119.551 299.616 122.397Z" fill="#FFB27D"/>
<path d="M315.016 94.2087C314.667 93.7003 314.315 93.2513 313.963 92.8487C314.399 92.858 314.87 92.8152 315.26 92.6538C316.292 92.2274 316.762 88.953 316.607 87.9818C316.452 87.0112 315.02 84.2021 313.253 83.9221C311.486 83.6419 309.661 85.6042 309.661 85.6042C309.987 84.1876 312.976 83.3712 312.976 83.3712C306.819 84.5063 307.133 88.6129 307.176 88.992C301.539 86.9843 298.231 97.5977 298.231 97.5977L312.83 106.201C312.83 106.201 312.868 103.857 314.261 104.008C316.434 104.243 318.241 98.9096 315.016 94.2087Z" fill="#2C3A64"/>
<path d="M315.906 116.471C312.556 118.05 308.111 115.776 308.135 115.752C308.422 115.465 308.321 114.605 308.058 113.48C307.795 112.308 307.173 110.705 306.024 108.791C305.785 108.384 305.546 107.977 305.258 107.546L305.641 107.403L312.149 104.795C312.149 104.795 313.202 106.685 314.303 108.407C315.236 109.843 316.217 111.135 316.648 111.087C316.672 111.064 320.978 114.031 315.906 116.471Z" fill="#FFB27D"/>
<path d="M312.17 105.445C312.002 107.766 311.212 111.953 308.078 113.485C307.815 112.312 307.192 110.709 306.044 108.795L312.17 105.445Z" fill="#ED975D"/>
<path d="M305.65 111.439C305.65 111.439 314.123 108.1 311.962 102.855C309.801 97.6111 309.439 93.6478 303.938 95.5583C298.437 97.4687 298.217 99.9003 298.512 101.826C298.808 103.752 303.39 112.173 305.65 111.439Z" fill="#FFB27D"/>
<path d="M308.814 101.658C312.725 101.106 313.867 99.5248 313.867 99.5248C313.867 99.5248 310.265 98.4909 308.147 94.9624C308.147 94.9624 303.75 93.4796 300.492 95.9585C300.294 96.2164 300.151 96.5201 300.08 96.8774C299.333 96.6326 298.209 96.6963 297.562 98.8071C296.588 101.978 300.051 105.441 300.051 105.441C300.891 105.203 299.944 102.377 299.812 100.869C299.714 99.7587 300.313 98.3381 300.636 97.6643C301.051 98.2022 305.178 103.389 310.217 103.596C310.217 103.596 307.555 102.673 305.132 100.866C306.337 101.458 307.618 101.827 308.814 101.658Z" fill="#2C3A64"/>
<path d="M332.064 127.283C331.992 127.03 331.915 126.768 331.834 126.498C333.092 124.093 333.711 121.925 333.973 120.09C334.547 116.214 333.566 113.821 333.566 113.821C333.566 113.821 327.689 110.705 325.094 110.308C325.083 110.304 325.072 110.299 325.062 110.298C325.031 110.294 324.996 110.291 324.958 110.289C322.338 109.927 316.667 111.085 316.667 111.085C316.667 111.085 317.761 113.998 314.674 115.939C311.588 117.88 308.292 115.442 308.292 115.442C308.192 115.509 308.086 115.583 307.978 115.659L307.977 115.659C307.977 115.659 299.856 121.017 299.127 122.242C298.398 123.466 295.275 129.529 295.275 129.529C295.275 129.529 296.265 134.619 307.236 135.045C308.137 137.232 308.828 139.365 309.053 141.145C309.924 148.054 308.913 153.504 309.928 157.537C310.944 161.57 329.248 159.27 332.563 158.494C335.877 157.718 335.132 154.179 335.387 150.74C335.707 146.419 333.143 131.095 332.064 127.283Z" fill="#699DEE"/>
<path d="M333.973 120.086C333.71 121.928 333.088 124.106 331.82 126.522C331.533 125.254 330.36 120.612 328.47 118.506C328.47 118.506 331.653 118.794 333.973 120.086Z" fill="#4A82D3"/>
<path d="M259.432 165.368C259.432 165.368 262.842 161.235 263.576 160.747C264.31 160.258 267.531 159.402 267.715 159.575C267.899 159.747 267.908 159.997 267.509 160.349C267.109 160.702 265.586 161.591 265.803 161.691C266.021 161.791 270.616 159.503 271.279 160.273C271.942 161.042 270.904 164.219 269.133 165.741C267.362 167.264 262.076 167.914 261.743 168.126C258.924 169.929 259.432 165.368 259.432 165.368Z" fill="#ED975D"/>
<path d="M199.412 155.829C199.412 155.829 204.311 161.641 210.55 159.21C210.55 159.21 211.892 155.964 211.911 153.571C211.913 153.276 211.917 152.991 211.921 152.72C211.955 150.025 212.045 148.513 212.045 148.513C212.045 148.513 212.044 148.512 212.039 148.512C211.755 148.393 202.502 144.594 202.509 144.91C202.668 152.198 199.412 155.829 199.412 155.829Z" fill="#FFB27D"/>
<path d="M203.423 146.651C204.315 148.305 207.377 151.541 211.905 152.723C211.939 150.028 212.029 148.516 212.029 148.516C212.029 148.516 212.028 148.515 212.023 148.515C211.767 148.446 203.157 146.163 203.423 146.651Z" fill="#ED975D"/>
<path d="M213.972 148.232C213.972 148.232 203.565 150.679 202.142 144.175C200.718 137.671 198.416 133.606 205 131.769C211.583 129.932 213.422 132.131 214.425 134.186C215.429 136.242 216.642 147.429 213.972 148.232Z" fill="#FFB27D"/>
<path d="M202.49 145.94C202.348 146.031 200.108 146.719 195.868 138.271C195.203 136.945 194.749 134.077 196.301 131.542C197.852 129.007 203.354 127.014 207.926 126.146C212.497 125.279 213.594 127.851 214.671 130.437C215.801 133.15 219.064 135.384 219.064 135.384C215.123 137.587 210.375 134.437 208.73 134.955C207.085 135.473 206.504 138.065 206.381 138.896C206.257 139.727 206.068 140.417 203.999 139.675C201.931 138.933 203.064 142.607 203.395 143.309C203.395 143.309 203.676 145.18 202.49 145.94Z" fill="#A9453D"/>
<path d="M175.698 308.35H169.397C168.076 308.35 166.608 307.009 166.24 304.555C165.873 302.1 163.158 300.761 162.57 298.753C161.982 296.744 164.993 293.916 164.993 293.916L165.496 293.26L166.02 292.577L171.011 293.767C171.011 293.767 171.134 294.971 171.211 296.506C171.265 297.613 171.294 298.894 171.232 300.017C171.085 302.695 171.972 305.579 174.32 306.101C176.67 306.622 175.698 308.35 175.698 308.35Z" fill="#2C3A64"/>
<path d="M219.545 308.411H202.842C202.683 308.379 202.561 308.343 202.488 308.306C201.373 307.731 201.722 303.335 201.856 301.976C201.882 301.725 201.9 301.578 201.9 301.578C201.9 301.578 207.773 296.741 208.582 300.444C208.607 300.56 208.636 300.673 208.668 300.785V300.787C209.687 304.252 214.245 305.826 216.878 306.265C218.889 306.601 219.411 307.808 219.545 308.411Z" fill="#2C3A64"/>
<path d="M216.196 211.823C216.196 211.823 215.304 222.951 214.256 236.329C212.831 254.501 211.117 276.823 210.948 281.051C210.655 288.394 209.479 300.14 209.479 300.14C209.479 300.14 206.69 302.93 201.109 301.754C201.109 301.754 196.136 284.987 194.716 267.246C194.694 266.956 194.671 266.663 194.65 266.37C193.328 248.31 191.273 210.281 191.273 210.281L216.196 211.823Z" fill="#EE9849"/>
<path d="M216.196 211.823C216.196 211.823 215.304 222.951 214.256 236.329L194.716 267.247C194.694 266.956 194.671 266.663 194.65 266.37C193.328 248.31 191.273 210.281 191.273 210.281L216.196 211.823Z" fill="#E58638"/>
<path d="M212.107 213.143C212.107 213.143 196.029 253.447 185.457 272.388C174.886 291.329 171.582 296.616 171.582 296.616C171.582 296.616 165.526 294.193 164.975 292.541C164.975 292.541 169.018 255.974 176.097 247.06C180.098 242.024 184.797 226.909 185.017 221.623C185.237 216.337 186.449 205.875 186.449 205.875L212.107 213.143Z" fill="#EE9849"/>
<path d="M175.296 206.432C175.296 206.432 174.879 211.466 174.574 212.239C174.269 213.012 172.237 215.408 172.001 215.373C171.766 215.339 171.625 215.15 171.745 214.663C171.864 214.175 172.564 212.668 172.343 212.707C172.12 212.746 169.794 216.99 168.867 216.751C167.941 216.512 167.035 213.494 167.586 211.363C168.137 209.232 171.88 205.885 172.023 205.542C173.234 202.63 175.296 206.432 175.296 206.432Z" fill="#ED975D"/>
<path d="M173.587 207.703C175.366 208.274 175.651 208.145 175.651 208.145C175.651 208.145 184.313 192.375 185.191 190.932C186.068 189.488 203.58 173.248 203.58 173.248L199.08 156.466C199.08 156.466 179.161 182.259 177.01 185.961C173.456 192.077 171.373 206.282 171.373 206.282C171.373 206.282 172.189 207.254 173.587 207.703Z" fill="#1E3D70"/>
<path d="M219.577 179.843C219.514 183.29 219.314 187.164 219.044 191.099C219.028 191.332 219.011 191.566 218.995 191.799C218.822 194.237 218.634 196.68 218.419 199.063C218.333 200.019 218.241 200.963 218.146 201.89L218.131 202.015C218.124 202.363 218.081 202.739 218.043 203.083C217.165 212.007 216.244 219.058 216.074 219.166C215.87 219.302 215.64 219.37 215.388 219.341C213.048 219.047 206.065 219.578 200.348 218.334C195.524 217.317 191.37 215.388 186.968 212.786C186.384 212.441 185.052 211.526 185.161 210.843C185.267 210.091 185.464 209.005 185.714 207.64C186.581 202.893 188.078 194.727 188.589 185.171C188.688 183.39 188.833 181.633 189.02 179.904C189.511 175.401 190.297 171.124 191.352 167.325C193.312 160.267 196.192 154.862 199.806 152.748C200.278 152.483 202.819 154.1 205.152 155.597C207.307 156.978 209.576 157.36 211.782 157.167L213.724 159.315C216.076 162.049 218.579 165.688 219.263 170.861C219.315 171.244 219.359 171.649 219.395 172.081C219.584 174.189 219.63 176.856 219.577 179.843Z" fill="#2A4E96"/>
<path d="M219.572 179.844C219.509 183.29 219.309 187.165 219.039 191.1C219.022 191.333 219.006 191.567 218.989 191.8C205.621 183.432 203.561 168.119 203.561 168.119C210.138 168.408 215.363 169.92 219.39 172.082C219.579 174.189 219.625 176.857 219.572 179.844Z" fill="#1E3D70"/>
<path d="M261.471 165.783C260.782 163.919 259.71 164.041 259.71 164.041C259.71 164.041 239.833 168.994 238.049 169.206C236.266 169.419 216.644 161.545 216.644 161.545C216.644 161.545 208.922 158.079 205.304 161.244C202.161 163.994 202.017 167.478 202.753 170.403C203.63 173.89 206.58 176.465 210.146 176.92C218.151 177.939 234.122 179.858 237.469 179.392C244.92 178.355 261.8 168.61 261.8 168.61C261.8 168.61 262.012 167.248 261.471 165.783Z" fill="#2A4E96"/>
<path d="M457.469 202.213C457.469 202.213 460.23 204.773 459.692 206.591C459.153 208.41 456.661 209.622 456.324 211.845C455.987 214.068 454.64 215.28 453.427 215.28C452.215 215.28 447.647 215.28 447.647 215.28C447.647 215.28 446.755 213.716 448.91 213.244C451.065 212.773 451.879 210.161 451.744 207.736C451.609 205.311 451.946 202.078 451.946 202.078L456.526 201L457.469 202.213Z" fill="#2C3A64"/>
<path d="M423.051 214.98C422.771 215.121 421.786 215.218 420.435 215.283H407.364C407.408 214.894 407.712 213.508 409.85 213.163C412.265 212.771 416.448 211.367 417.38 208.278C417.411 208.18 417.438 208.078 417.461 207.976C418.201 204.676 423.589 208.986 423.589 208.986C423.589 208.986 423.605 209.118 423.628 209.343C423.755 210.557 424.073 214.47 423.051 214.98Z" fill="#2C3A64"/>
<path d="M410.471 126.707C410.471 126.707 411.289 136.917 412.251 149.191C413.558 165.863 415.13 186.342 415.286 190.222C415.555 196.959 416.634 207.735 416.634 207.735C416.634 207.735 419.192 210.295 424.312 209.216C424.312 209.216 428.875 193.833 430.178 177.557C430.198 177.29 430.219 177.021 430.239 176.753C431.452 160.183 433.337 125.293 433.337 125.293L410.471 126.707Z" fill="#35488B"/>
<path d="M410.471 126.707C410.471 126.707 411.289 136.917 412.251 149.191L430.178 177.557C430.198 177.29 430.218 177.021 430.239 176.753C431.451 160.183 433.336 125.293 433.336 125.293L410.471 126.707Z" fill="#2C3A64"/>
<path d="M414.23 127.919C414.23 127.919 428.981 164.897 438.68 182.274C448.379 199.652 451.41 204.501 451.41 204.501C451.41 204.501 456.967 202.278 457.472 200.763C457.472 200.763 453.764 167.215 447.268 159.037C443.598 154.416 439.286 140.548 439.084 135.698C438.882 130.849 437.771 121.25 437.771 121.25L414.23 127.919Z" fill="#35488B"/>
<path d="M368.702 107.859C368.702 107.859 364.701 106.944 364.028 106.99C363.354 107.037 360.998 108.022 360.967 108.213C360.936 108.403 361.048 108.559 361.454 108.586C361.861 108.614 363.201 108.442 363.116 108.604C363.031 108.766 359.172 109.525 359.13 110.301C359.087 111.078 361.202 112.521 362.988 112.618C364.774 112.715 368.286 110.639 368.587 110.613C371.141 110.39 368.702 107.859 368.702 107.859Z" fill="#FFB27D"/>
<path d="M366.999 108.877C366.426 107.05 366.56 106.759 366.56 106.759C366.56 106.759 382.778 97.989 384.263 97.0997C385.749 96.2105 402.509 78.3738 402.509 78.3738L419.677 83.0992C419.677 83.0992 393.11 103.337 389.303 105.516C383.011 109.117 368.441 111.155 368.441 111.155C368.441 111.155 367.45 110.313 366.999 108.877Z" fill="#E58638"/>
<path d="M407.708 69.7042C407.708 69.7042 401.69 80.2935 395.807 81.6758C395.807 81.6758 396.052 78.1193 397.484 75.6855C396.898 74.9936 396.383 74.3581 395.937 73.7893C394.456 71.8917 393.752 70.7302 393.752 70.7302L395.748 65.3628L397.103 61.7212C397.754 62.9029 398.472 63.9102 399.22 64.7713C403.075 69.2039 407.708 69.7042 407.708 69.7042Z" fill="#FFB27D"/>
<path d="M399.22 64.776C399.22 64.776 399.938 70.0826 395.937 73.7941C394.456 71.8965 393.752 70.735 393.752 70.735L395.749 65.3676C397.889 64.7154 399.22 64.776 399.22 64.776Z" fill="#ED975D"/>
<path d="M392.168 71.5144C392.168 71.5144 401.161 68.0087 398.891 62.4424C396.622 56.876 396.254 52.6747 390.417 54.6775C384.58 56.6804 384.337 59.2566 384.643 61.2984C384.948 63.341 389.771 72.2828 392.168 71.5144Z" fill="#FFB27D"/>
<path d="M438.608 124.046C434.979 129.261 407.858 136.23 408.18 132.619C408.303 131.238 408.469 128.802 408.176 125.499C408.108 124.725 408.013 123.906 407.888 123.039C407.199 118.296 405.562 112.196 401.912 105.136C401.638 104.607 401.353 104.074 401.057 103.534C399.555 100.801 398.274 97.9108 397.297 95.0855C395.418 89.6552 394.661 84.4598 395.608 81.063C395.612 81.0464 395.618 81.0319 395.623 81.0152C401.293 78.3937 403.49 68.2269 403.49 68.2269C403.49 68.2269 422.832 71.6991 433.666 97.4808C433.666 97.4808 441.764 119.506 438.608 124.046Z" fill="#EE9849"/>
<path d="M408.192 125.496C408.124 124.722 408.028 123.903 407.903 123.036C407.214 118.293 405.577 112.193 401.927 105.133C402.554 101.334 403.419 98.1745 404.368 96.7522C408.226 90.9708 410.473 90.0671 410.473 90.0671C410.473 90.0671 416.259 114.464 408.192 125.496Z" fill="#E58638"/>
<path d="M377.701 119.695C377.701 119.695 372.35 119.976 371.521 120.275C370.692 120.574 368.086 122.653 368.115 122.904C368.144 123.154 368.34 123.309 368.861 123.199C369.381 123.088 371.002 122.393 370.953 122.627C370.905 122.861 366.331 125.192 366.554 126.183C366.778 127.173 369.949 128.23 372.226 127.713C374.504 127.197 378.172 123.336 378.541 123.195C381.667 122.003 377.701 119.695 377.701 119.695Z" fill="#FFB27D"/>
<path d="M376.688 121.723C375.616 119.991 376.389 119.201 376.389 119.201C376.389 119.201 392.918 106.259 394.213 104.952C395.509 103.645 401.51 82.8266 401.51 82.8266C401.51 82.8266 403.576 74.4013 408.413 73.4723C412.617 72.6649 415.522 74.7445 417.423 77.1824C419.688 80.0877 419.911 84.0951 418.03 87.2631C413.81 94.3743 405.296 108.49 402.811 110.902C397.278 116.269 378.765 123.77 378.765 123.77C378.765 123.77 377.53 123.083 376.688 121.723Z" fill="#EE9849"/>
<path d="M400.195 52.101C400.258 51.9767 400.44 51.8436 400.887 51.707C400.887 51.707 400.469 51.5663 399.982 51.6732C399.729 51.0572 399.116 50.0081 397.965 50C397.965 50 398.624 50.1718 398.868 50.8328C397.291 49.8329 394.367 49.5427 387.068 51.9739C377.449 55.178 382.255 60.7621 383.713 61.2097C385.171 61.6574 387.855 58.7842 390.269 58.3918C392.683 57.9996 393.988 61.3622 394.909 61.641C395.829 61.9198 395.306 61.155 396.27 60.3885C397.233 59.622 397.787 61.425 397.766 62.6911C397.745 63.9572 399.624 65.1574 399.624 65.1574C399.624 65.1574 399.624 65.1574 400.726 63.1358C401.828 61.1144 401.528 53.7755 400.475 52.4547C400.382 52.338 400.289 52.2196 400.195 52.101Z" fill="#2B478B"/>
<path d="M248.142 308.132V319.019L222.373 308.132H248.142Z" fill="#4271BC"/>
<path d="M468.675 215.281H383.453V327.216H468.675V215.281Z" fill="#4A75CB"/>
<path d="M442.406 215.282H357.183V327.217H442.406V215.282Z" fill="#699DEE"/>
<path d="M468.662 215.282V232.02L442.386 215.282H468.662Z" fill="#4271BC"/>
</g>
<defs>
<filter id="filter0_f_48_1208" x="3" y="74.7899" width="590.5" height="271.925" filterUnits="userSpaceOnUse" color-interpolation-filters="sRGB">
<feFlood flood-opacity="0" result="BackgroundImageFix"/>
<feBlend mode="normal" in="SourceGraphic" in2="BackgroundImageFix" result="shape"/>
<feGaussianBlur stdDeviation="10" result="effect1_foregroundBlur_48_1208"/>
</filter>
<clipPath id="clip0_48_1208">
<rect width="582" height="328" fill="white"/>
</clipPath>
</defs>
</svg>
