<svg width="590" height="336" viewBox="0 0 590 336" fill="none" xmlns="http://www.w3.org/2000/svg">
<g clip-path="url(#clip0_305_2)">
<g filter="url(#filter0_f_305_2)">
<path d="M70.932 336.091C70.932 336.091 6.79454 267.146 60.0854 192.503C107.368 126.275 162.496 130.803 202.942 157.678C220.168 169.125 269.835 159.089 312.107 91.6993C369.754 -0.201626 569.581 55.5366 533.147 196.929C515.515 265.352 586.807 267.84 550.481 336.236L70.932 336.091Z" fill="#FCECDB"/>
</g>
<path d="M360.263 171.618L365.051 166.984C363.553 158.605 355.692 154.572 350.516 154.023C336.576 152.544 329.471 162.127 326.481 177.498C321.023 205.553 327.894 323.357 327.894 323.357C328.408 320.228 366.267 201.927 365.296 169.424L360.263 171.618Z" fill="#96D9C9"/>
<path d="M169.719 264.125L169.125 268.52L167.703 263.437C163.705 262.177 160.232 261.746 157.48 262.371C132.884 267.961 175.386 301.787 175.386 301.787C175.386 301.787 161.84 293.283 148.722 287.899L148.556 292.354L146.878 287.32C136.684 283.329 127.228 281.485 125.338 287.247C123.559 292.67 127.139 297.805 133.3 302.377L140.381 302.625L136.207 304.376C150.434 313.489 173.97 320.007 182.094 321.49C174.322 320.269 155.324 317.797 144.064 320.227L145.831 323.167L141.385 320.944C137.444 322.216 134.996 324.32 135.26 327.634C135.764 333.97 163.256 336.252 163.256 336.252L263.688 335.32L264.247 335.599C264.247 335.599 202.096 275.985 169.719 264.125Z" fill="#3C8F7C"/>
<path d="M498.093 321.21C496.155 312.215 476.487 309.571 451.417 314.502C460.343 311.452 472.608 304.508 478.959 301.335L474.615 298.571L483.34 298.977C490.476 294.799 494.044 290.695 491.713 286.982C489.972 284.209 486.152 283.056 480.975 283.07L478.248 287.95L478.814 283.138C465.755 283.892 462.792 281.76 445.175 288.882C456.184 283.166 457.775 281.394 458.497 279.099L452.535 276.491H459.522C465.169 270.415 474.13 258.396 470.414 252.856C467.347 248.284 453.883 254.63 445.289 257.926L441.634 266.149L442.374 259.123C415.051 271.025 424.313 261.476 424.313 261.476C424.313 261.476 452.835 202.473 436.032 203.799C429.399 204.323 422.265 208.321 415.26 214.727L415.083 220.591L412.998 216.87C407.895 221.871 402.843 227.93 398.02 234.432C404.559 220.697 409.52 207.205 410.013 197.16L405.021 196.555L409.947 193.128C409.483 188.053 407.473 184.214 403.4 182.185C397.153 179.073 390.597 183.782 384.142 193.14L385.735 201.586L381.731 196.853C358.618 234.523 337.484 327.263 337.484 327.263L335.808 332.293L403.711 335.646C403.711 335.647 502.005 339.377 498.093 321.21Z" fill="#50BFA5"/>
<path d="M384.909 297.668H225.65C219.567 297.668 214.636 293.194 214.636 287.675V281.734C214.636 276.215 219.567 271.741 225.65 271.741H384.909C377.624 278.965 377.498 290.006 384.616 297.366L384.909 297.668Z" fill="#86B1F2"/>
<path d="M382.678 274.712H302.536C297.017 274.712 292.543 279.186 292.543 284.704C292.543 290.223 297.017 294.697 302.536 294.697H382.685C378.94 288.567 378.947 280.826 382.678 274.712Z" fill="#FAE0B2"/>
<path d="M377.737 243.398C378.086 242.798 377.556 242.105 376.75 242.105H249.918C239.977 242.105 231.918 248.755 231.918 256.959C231.918 265.162 239.977 271.813 249.918 271.813H376.785C377.595 271.813 378.126 271.114 377.774 270.513C372.751 261.927 372.764 251.945 377.737 243.398Z" fill="#355389"/>
<path d="M376.727 245.301H291.63C285.344 245.301 280.248 250.397 280.248 256.683V257.536C280.248 263.823 285.344 268.918 291.63 268.918H376.908C373.095 261.35 373.053 252.867 376.727 245.301Z" fill="#FAE0B2"/>
<path d="M223.382 240.785H305.233C312.491 240.785 318.376 234.439 318.376 226.612C318.376 218.785 312.491 212.44 305.233 212.44H223.382C229.638 220.297 229.882 231.823 223.966 239.979L223.382 240.785Z" fill="#FAE0B2"/>
<path d="M317.297 226.612C317.297 218.785 311.345 212.44 304.004 212.44H221.893C221.51 212.44 221.2 212.107 221.204 211.699C221.208 211.296 221.515 210.971 221.893 210.971H352.15C360.253 210.971 366.821 217.974 366.821 226.612C366.821 235.25 360.253 242.253 352.15 242.253H221.893C221.515 242.253 221.208 241.929 221.205 241.526C221.201 241.117 221.511 240.785 221.893 240.785H304.004C311.345 240.785 317.297 234.439 317.297 226.612Z" fill="#466EB6"/>
<path d="M323.099 257.203H314.34C312.456 257.203 310.929 257.787 310.929 258.508V258.625H323.099V257.203Z" fill="#FF4C16"/>
<path d="M330.571 260.475C330.571 258.668 328.283 257.203 325.462 257.203H314.221C316.361 257.203 318.096 258.314 318.096 259.685L318.043 294.761L324.254 290.25L330.584 294.761L330.571 260.475Z" fill="#F47458"/>
<path d="M450.39 297.615H213.749C206.4 297.615 200.443 303.572 200.443 310.921V322.113C200.443 329.461 206.4 335.418 213.749 335.418H450.39L450.267 335.289C440.143 324.752 440.197 308.085 450.39 297.615Z" fill="#B75742"/>
<path d="M446.201 303.211H319.696C312.348 303.211 306.391 309.168 306.391 316.517C306.391 323.865 312.348 329.822 319.696 329.822H446.198C441.548 321.583 441.555 311.444 446.201 303.211Z" fill="#FAE0B2"/>
<path d="M384.087 316.586H373.829C371.622 316.586 369.833 318.374 369.833 320.58V320.938H384.087V316.586Z" fill="#13375B"/>
<path d="M374.248 316.6C376.7 316.599 380.362 318.674 382.428 321.236L406.761 351.414L421.053 351.405L397.911 322.704C395.188 319.327 390.36 316.591 387.127 316.593L374.248 316.6Z" fill="#355389"/>
<path d="M160.109 332.105L165.095 330.941C165.095 330.941 169.14 331.196 172.914 330.431C172.914 330.431 173.293 331.433 173.457 333.503C173.485 333.86 172.973 335.638 172.619 335.692C171.336 335.89 169.076 335.666 165.069 335.758C165.069 335.758 158.759 336.504 155.383 335.39C152.007 334.275 160.109 332.105 160.109 332.105Z" fill="#B75742"/>
<path d="M215.199 250.488C215.476 253.382 217.905 254.403 220.17 256.234C221.69 257.463 221.429 260.785 220.267 262.848C217.323 268.072 219.831 268.717 222.203 272.554C227.917 281.796 210.211 283.838 208.11 284.527C206.009 285.215 204.584 286.049 203.341 285.911C199.595 285.497 196.168 280.172 194.266 275.247C192.364 270.322 196.982 270.063 197.217 267.234C197.453 264.406 192.05 263.798 193.652 258.456C195.385 252.676 197.831 247.778 201.081 246.021C206.457 243.114 212.992 246.154 214.478 248.489C214.921 249.185 215.138 249.856 215.199 250.488Z" fill="#184655"/>
<path d="M215.615 313.758C216.08 314.916 218.642 319.016 218.642 319.016L182.687 319.373L182.126 311.997C191.998 311.917 201.756 307.552 210.851 304.43C211.082 304.987 215.389 313.196 215.615 313.758Z" fill="#FAE0B2"/>
<path d="M190.127 285.467C190.127 285.467 192.058 271.838 195.163 270.422C198.268 269.007 215.085 270.968 217.602 272.506C220.119 274.043 215.927 290.049 215.284 294.527C215.245 294.794 215.204 295.062 215.16 295.328C214.098 301.792 214.712 308.405 216.992 314.52C207.79 317.315 205.403 318.851 195.535 318.576L191.851 297.02C191.851 297.02 188.921 286.588 190.127 285.467Z" fill="#50BFA5"/>
<path d="M208.519 261.453C208.519 261.453 209.292 268.956 209.955 270.797C210.617 272.637 208.179 276.381 204.202 277.418C200.224 278.454 203.118 273.42 203.025 271.474C202.931 269.529 202.546 260.32 202.546 260.32L208.519 261.453Z" fill="#F7A491"/>
<path d="M208.612 262.315C208.117 262.878 207.519 263.387 206.794 263.814C205.292 264.7 203.915 264.895 202.727 264.622C202.629 262.302 202.546 260.319 202.546 260.319L208.519 261.453C208.519 261.453 208.553 261.782 208.612 262.315Z" fill="#F47458"/>
<path d="M207.125 247.747C207.125 247.747 209.473 248.368 210.855 250.658C212.236 252.949 213.002 259.573 208.077 262.475C203.153 265.378 199.566 260.893 199.656 256.648C199.746 252.402 200.856 246.773 207.125 247.747Z" fill="#F7A491"/>
<path d="M198.162 254.869C198.216 255.972 198.779 256.839 199.42 256.806C200.06 256.773 200.536 255.853 200.482 254.75C200.428 253.648 199.865 252.781 199.224 252.814C198.584 252.847 198.108 253.767 198.162 254.869Z" fill="#F7A491"/>
<path d="M210.719 256.558C210.331 257.649 210.611 258.746 211.346 259.01C212.08 259.273 212.991 258.603 213.379 257.512C213.768 256.422 213.488 255.325 212.753 255.061C212.019 254.798 211.108 255.468 210.719 256.558Z" fill="#F7A491"/>
<path d="M217.602 272.506C217.602 272.506 214.735 274.01 212.976 278.207C211.218 282.404 217.206 303.821 218.483 305.193C219.76 306.565 223.293 306.78 223.896 303.425C224.498 300.071 222.467 273.565 217.602 272.506Z" fill="#3C8F7C"/>
<path d="M200.452 269.638L205.396 299.33L186.15 302.433L180.041 274.658C180.041 274.658 195.874 268.247 200.452 269.638Z" fill="#9BC1F9"/>
<path d="M163.306 270.554C165.145 269.83 167.15 269.646 169.09 270.025C172.692 270.729 178.417 272.189 180.715 274.658C184.183 278.385 187.392 303.039 187.392 303.039L172.431 299.685L163.306 270.554Z" fill="#9BC1F9"/>
<path d="M214.776 321.345C212.26 314.358 183.752 288.923 176.206 290.88L180.258 306.392C180.258 306.392 188.728 331.643 197.028 334.9C205.328 338.157 213.099 334.481 213.099 334.481C213.099 334.481 217.291 328.332 214.776 321.345Z" fill="#F7CC7F"/>
<path d="M204.539 280.539C204.185 281.248 206.451 282.515 207.11 282.995C207.769 283.475 210.501 282.981 210.501 282.981C210.501 282.981 204.934 279.748 204.539 280.539Z" fill="#F7A491"/>
<path d="M180.183 313.781C180.183 313.781 172.939 328.835 172.915 330.402C172.88 332.66 162.44 332.041 164.708 331.075C165.23 330.853 166.872 330.021 166.998 329.912C167.672 329.331 173.685 310.637 173.685 310.637L180.183 313.781Z" fill="#F48C7F"/>
<path d="M182.494 295.771C182.144 295.385 178.473 293.926 175.646 297.448C172.82 300.969 167.401 328.378 167.401 328.378L174.063 329.031C174.063 329.031 190.644 304.761 182.494 295.771Z" fill="#F7CC7F"/>
<path d="M160.945 275.218L169.514 300.203C169.858 301.206 170.713 301.926 171.731 302.07C179.766 303.206 183.958 303.784 183.958 303.784C183.958 303.784 185.525 303.865 187.187 303.887L205.579 301.924C207.179 301.753 208.296 300.203 207.997 298.567L203.52 274.035C203.244 272.52 201.85 271.509 200.38 271.756L182.686 274.73C181.122 274.688 179.599 274.647 178.035 274.604L164.115 271.487C162.011 271.016 160.224 273.119 160.945 275.218Z" fill="#F47458"/>
<path d="M198.377 287.371C198.377 287.371 203.313 288.286 204.999 288.235C206.685 288.185 208.871 288.717 208.871 288.717C208.871 288.717 214.38 301.673 215.171 303.118C217.53 307.432 224.073 306.923 223.964 303.325C223.878 300.466 212.703 282.539 209.732 282.628C206.761 282.718 197.46 280.778 197.181 281.96C197.031 282.595 205.747 282.893 204.372 283.432C203.518 283.767 196.696 283.001 196.721 283.803C196.745 284.606 202.883 284.682 203.544 285.305C204.206 285.928 197.012 284.543 197.053 285.906C197.074 286.592 203.39 286.097 204.082 287.138C204.37 287.571 197.854 286.021 198.377 287.371Z" fill="#F7A491"/>
<path d="M165.092 285.257C164.705 285.089 164.254 285.307 164.159 285.718C164.062 286.139 164.041 286.645 164.353 286.98C164.972 287.646 169.29 288.283 169.312 287.641C169.33 287.148 166.433 285.837 165.092 285.257Z" fill="#F7A491"/>
<path d="M164.252 286.933C164.252 286.933 163.819 288.552 164.194 288.565C164.568 288.579 169.24 289.042 169.448 288.486C169.655 287.931 164.853 286.607 164.252 286.933Z" fill="#F7A491"/>
<path d="M164.05 288.604C164.05 288.604 163.918 289.323 164.304 289.738C164.691 290.154 169.041 289.882 169.2 289.191C169.359 288.5 164.203 288.074 164.05 288.604Z" fill="#F7A491"/>
<path d="M164.714 290.124C164.714 290.124 164.708 290.673 164.927 290.908C165.146 291.144 168.36 290.817 168.679 290.132C168.999 289.447 165.088 289.413 164.714 290.124Z" fill="#F7A491"/>
<path d="M175.611 328.123C175.611 328.123 174.077 333.674 172.536 337.346C171.528 339.749 171.268 342.145 170.6 343.345C168.912 346.378 166.152 346.499 163.96 344.677C161.767 342.856 164.708 335.17 164.708 335.17L171.628 325.433L175.611 328.123Z" fill="#F7A491"/>
<path d="M170.601 343.345C171.194 342.279 171.468 340.269 172.228 338.148C171.169 338.763 169.393 339.226 168.428 338.967C164.886 338.021 164.708 335.17 164.708 335.17C164.708 335.17 161.017 343.047 163.209 344.869C165.401 346.691 168.913 346.378 170.601 343.345Z" fill="#F47458"/>
<path d="M182.688 274.73L188.355 304.06L184.944 303.855L183.958 303.784L178.038 274.606L182.688 274.73Z" fill="#B75742"/>
<path d="M202.428 333.186C204.369 336.755 208.236 337.31 211.717 337.018C215.567 336.694 219.806 334.588 220.944 330.168C222.159 325.448 220.56 319.606 217.757 315.902C203.409 296.944 203.298 295.075 197.587 292.557C191.42 289.838 168.519 328.961 168.519 328.961L174.808 332.175C174.808 332.175 184.241 324.291 190.268 317.378C190.976 316.565 192.993 312.359 192.993 312.359C192.993 312.359 201.146 330.826 202.428 333.186Z" fill="#FAE0B2"/>
<path d="M386.235 243.795C386.235 243.795 398.188 249.004 399.243 249.235C399.904 249.38 407.501 241.507 411.642 238.432C411.835 238.289 412.57 237.242 412.776 237.138C415.241 235.9 411.074 243.031 411.074 243.031C411.074 243.031 402.262 254.238 400.268 255.198C397.764 256.404 385.388 250.285 385.463 249.932L386.235 243.795Z" fill="#F48C7F"/>
<path d="M384.339 232.608C384.854 229.086 387.299 221.588 385.043 218.59C381.872 214.374 375.171 214.556 372.005 218.607C370.554 220.464 369.768 222.741 369.003 224.97C368.509 226.408 368.01 227.856 367.314 229.212C366.691 230.423 365.979 231.938 364.795 232.675C359.533 235.952 353.64 238.064 353.26 245.447C352.81 254.204 362.403 265.159 374.182 259.856C378.691 257.826 384.597 251.261 386.526 246.72C387.395 244.672 386.979 244.887 386.499 241.767C386.07 238.974 383.925 235.444 384.339 232.608Z" fill="#184655"/>
<path d="M377.932 237.846L393.933 246.65L390.159 252.379C390.159 252.379 378.112 247.788 375.676 247.131C373.24 246.473 375.159 237.606 377.932 237.846Z" fill="#355389"/>
<path d="M377.657 230.207C377.657 230.207 377.241 236.301 376.93 238.009C376.609 239.774 376.414 247.124 380.085 248.021C383.756 248.919 382.378 238.967 382.438 237.182C382.499 235.398 382.858 229.601 382.858 229.601L377.657 230.207Z" fill="#F7A491"/>
<path d="M377.605 230.938C377.881 231.348 378.212 231.742 378.605 232.113C379.958 233.389 381.349 233.803 382.618 233.637C382.733 231.617 382.857 229.6 382.857 229.6L377.657 230.207C377.657 230.207 377.638 230.484 377.605 230.938Z" fill="#F47458"/>
<path d="M381.451 218.544C381.451 218.544 379.219 218.616 377.511 220.379C375.804 222.142 373.761 227.903 377.581 231.508C381.401 235.111 385.179 232.015 385.967 228.203C386.756 224.392 387.271 218.96 381.451 218.544Z" fill="#F7A491"/>
<path d="M383.545 218.724C383.545 218.724 381.215 224.733 375.715 224.225C373.223 223.995 372.659 227.397 372.659 227.397C372.659 227.397 374.698 219.318 377.256 218.118C379.814 216.918 383.545 218.724 383.545 218.724Z" fill="#184655"/>
<path d="M376.424 225.678C376.549 226.732 376.073 227.656 375.361 227.74C374.648 227.825 373.969 227.039 373.844 225.985C373.719 224.931 374.195 224.008 374.907 223.923C375.62 223.839 376.299 224.625 376.424 225.678Z" fill="#F7A491"/>
<path d="M417.307 227.653L403.761 255.332C403.437 255.993 403.537 256.759 403.981 257.019L413.877 262.814L426.247 238.286C426.247 238.286 420.858 230.222 418.836 227.198C418.462 226.639 417.691 226.868 417.307 227.653Z" fill="#B75742"/>
<path d="M405.5 254.423L417.287 230.339C417.671 229.554 418.441 229.324 418.815 229.883C420.457 232.339 422.94 236.053 424.723 238.722L413.621 260.737L405.72 256.11C405.276 255.851 405.176 255.084 405.5 254.423Z" fill="#FAE0B2"/>
<path d="M411.938 236.609C412.078 236.367 412.719 235.84 412.99 235.768C413.562 235.616 414.253 235.638 414.366 236.006C414.532 236.542 412.843 237.135 412.843 237.135L411.923 238.468C411.923 238.468 411.494 237.38 411.938 236.609Z" fill="#F48C7F"/>
<path d="M377.192 236.365C377.192 236.365 381.364 239.81 382.561 241.007C383.749 242.195 385.827 243.645 385.827 243.645L382.456 238.981L380.32 236.987L377.192 236.365Z" fill="#F7A491"/>
<path d="M428.963 291.579C428.316 291.039 427.724 289.503 427.488 288.828C426.086 281.574 419.459 261.952 412.24 261.952C405.951 261.952 386.526 277.185 377.442 285.989C374.819 288.531 374.996 286.374 376.604 286.967C377.564 287.321 384.049 298.109 385.087 298.156C388.259 298.301 391.192 296.177 393.839 294.699C397.876 292.446 400.682 289.876 403.027 286.375C408.968 277.506 411.195 272.287 412.985 268.893C412.985 268.893 414.673 275.874 415.5 277.557C417.37 281.359 422.957 290.724 425.143 294.373L433.714 294.14C433.714 294.141 429.801 292.277 428.963 291.579Z" fill="#F48C7F"/>
<path d="M412.799 266.005C412.799 266.005 384.011 279.421 382.194 284.032C380.377 288.644 381.775 295.492 385.967 296.889C390.16 298.286 416.153 276.067 416.153 276.067C416.153 276.067 419.506 282.216 424.258 286.408C426.791 288.643 431.073 290.466 433.516 292.102C435.657 293.536 436.136 294.932 436.136 294.932L442.146 295.212C442.146 295.212 441.133 294.865 439.316 292.417C433.179 284.149 418.944 264.926 412.799 266.005Z" fill="#F7A491"/>
<path d="M401.689 264.328C401.689 264.328 410.935 274.296 412.752 287.433C412.752 287.433 398.265 293.675 391.138 297.448C384.011 301.221 376.045 297.308 373.53 293.116C371.014 288.923 373.53 277.114 373.53 277.114L388.343 274.809L401.689 264.328Z" fill="#13375B"/>
<path d="M423.629 291.882C422.892 291.601 422.635 295.328 422.513 296.159C422.377 297.095 422.824 297.728 422.937 297.806C423.242 298.017 435.113 298.252 437.384 297.643C437.537 297.602 437.858 297.409 437.915 297.359C439.582 295.905 431.868 292.047 430.314 292.371C428.931 292.658 426.943 293.144 423.629 291.882Z" fill="#355389"/>
<path d="M376.953 237.985C376.953 237.985 374.695 237.964 372.28 243.167C369.312 249.561 373.547 273.961 373.24 277.443C373.24 277.443 374.286 278.646 380.38 279.526C385.779 280.306 388.832 276.451 388.832 276.451C388.832 276.451 387.458 267.03 389.539 258.167C390.668 253.365 391.262 248.708 386.806 244.39C382.349 240.073 376.953 237.985 376.953 237.985Z" fill="#466EB6"/>
<path d="M433.595 292.112C432.858 291.831 432.223 295.422 432.278 296.299C432.336 297.243 432.576 297.929 432.689 298.007C432.994 298.218 444.878 298.391 447.148 297.783C447.302 297.741 447.622 297.548 447.679 297.499C449.347 296.045 440.769 292.405 439.214 292.728C437.831 293.016 436.909 293.375 433.595 292.112Z" fill="#466EB6"/>
<path d="M425.649 226.507L403.197 259.2C402.679 259.953 402.802 260.871 403.452 261.113L418.637 266.773L436.596 241.029L427.635 226.181C427.232 225.512 426.218 225.678 425.649 226.507Z" fill="#F47458"/>
<path d="M420.312 251.294C420.024 250.737 417.691 251.974 417.691 251.974C417.691 251.974 415.616 252.335 415.469 252.257C415.303 252.17 416.864 252.04 416.864 252.04C416.864 252.04 419.413 251.169 419.384 250.882C419.268 249.706 417.671 251.17 416.42 251.224C415.464 251.265 414.426 251.223 413.506 251.092C413.139 250.886 414.074 250.423 414.074 250.423C414.074 250.423 415.3 249.872 415.104 249.55C414.628 248.767 411.76 250.255 411.157 250.808C410.752 251.178 410.247 251.897 409.543 252.295C406.479 254.028 402.808 257.001 398.474 259.088C397.039 257.882 383.194 245.455 382.846 245.153L375.284 251.109C375.294 251.117 396.977 267.631 398.183 267.592C399.697 267.542 408.727 258.012 411.171 255.741C411.541 255.397 413.862 255.139 414.5 255.228C415.919 255.426 418.578 254.312 418.578 254.312C419.398 253.446 415.558 254.321 415.922 254.096C416.083 253.996 417.021 253.9 417.956 253.767C418.907 253.63 419.769 253.086 419.885 252.825C420.111 252.317 417.746 253.047 417.746 253.047L415.774 253.169L417.661 252.784C417.66 252.784 420.593 251.837 420.312 251.294Z" fill="#F7A491"/>
<path d="M380.72 241.374C378.275 238.871 373.574 239.236 372.202 242.807C371.821 243.8 371.837 246.65 372.272 247.698C374.011 251.89 384.151 258.738 384.151 258.738L389.741 251.122L380.72 241.374Z" fill="#86B1F2"/>
<path d="M280.243 168.529C280.243 168.208 280.639 166.137 280.639 166.137C280.639 166.137 279.717 163.199 279.623 163.193C277.726 163.056 276.295 164.346 276.616 166.079L276.634 166.137C277.616 169.271 280.258 171.6 283.492 172.18C284.229 172.312 285.009 172.45 285.808 172.59C285.432 171.332 285.201 170.046 285.213 168.724C282.441 168.702 280.243 168.648 280.243 168.529Z" fill="#F7A491"/>
<path d="M312.32 155.569C312.267 155.412 295.643 166.225 295.643 166.225C295.643 166.225 288.548 166.295 283.306 166.25C283.292 167.833 283.549 169.373 283.965 170.881C289.144 171.862 295.046 172.897 296.389 172.793C298.89 172.601 311.435 166.342 311.435 166.342C311.435 166.342 312.359 155.686 312.32 155.569Z" fill="#355389"/>
<path d="M312.506 195.945C312.472 195.673 308.959 183.628 308.593 172.84C308.309 164.474 310.899 156.975 312.226 155.604C312.716 155.092 317.28 153.997 317.28 153.997L315.619 156.755C313.93 159.944 313.472 162.767 312.739 166.365C310.613 176.798 320.164 197.673 319.68 197.808C319.138 197.958 312.641 197.013 312.506 195.945Z" fill="#466EB6"/>
<path d="M276.073 153.839L273.156 155.744L281.88 170.426L284.621 158.504L276.073 153.839Z" fill="#9BC1F9"/>
<path d="M277.877 151.53L281.543 163.716L284.481 158.452L277.877 151.53Z" fill="#9BC1F9"/>
<path d="M302.093 150.123L304.913 160.355L284.132 158.469L302.093 150.123Z" fill="#9BC1F9"/>
<path d="M290.24 193.415C290.24 193.415 281.408 204.204 281.383 205.772C281.349 208.03 270.909 207.41 273.177 206.444C273.699 206.222 275.341 205.39 275.467 205.281C276.141 204.701 283.1 191.08 283.1 191.08L290.24 193.415Z" fill="#F7A491"/>
<path d="M268.578 207.474L275.292 205.385C275.292 205.385 277.609 206.566 281.383 205.8C281.383 205.8 282.368 207.381 282.532 209.451C282.56 209.808 282.736 210.867 282.382 210.922C281.099 211.119 277.545 211.035 273.538 211.127C273.538 211.127 268.138 211.19 264.762 210.076C261.386 208.962 268.578 207.474 268.578 207.474Z" fill="#07345A"/>
<path d="M333.003 195.991C333.003 195.991 325.056 194.176 317.631 188.864C309.038 182.718 299.37 176.325 295.551 176.846C292.476 177.265 274.588 201.861 274.588 201.861L283.253 205.634L298.904 189.563C298.904 189.563 314.893 206.046 320.146 207.171C332.11 209.734 335.933 200.912 333.003 195.991Z" fill="#B75742"/>
<path d="M272.746 155.746L284.796 181.274C284.851 181.39 284.956 181.474 285.081 181.503L293.128 183.741L282.844 158.452L273.262 155.171C272.911 155.05 272.588 155.411 272.746 155.746Z" fill="#F7CC7F"/>
<path d="M313.754 131.629C313.754 131.629 315.98 128.594 318.465 131.628C318.465 131.628 319.944 130.532 321.263 131.983C321.263 131.983 324.03 130.752 325.274 134.965C325.274 134.965 326.719 134.498 327.138 136.233C327.556 137.968 326.811 139.254 326.811 139.254C326.811 139.254 327.722 139.773 327.549 141.438C327.402 142.855 326.29 143.208 326.29 143.208C326.29 143.208 326.277 145.565 325.36 146.391C324.443 147.217 323.032 147.055 323.032 147.055C323.032 147.055 322.828 148.358 321.641 148.395C320.454 148.433 318.859 147.499 317.611 148.168C316.361 148.838 312.887 148.739 312.887 148.739C312.887 148.739 308.844 147.52 309.493 143.465C309.493 143.465 307.252 141.904 308.736 139.502C308.736 139.502 307.019 136.258 309.306 133.925C311.593 131.591 313.754 131.629 313.754 131.629Z" fill="#07345A"/>
<path d="M301.489 227.714C301.489 227.714 301.979 240.99 302.282 243.239C302.583 245.477 296.648 252.219 297.406 249.874C297.581 249.334 298.03 247.549 298.031 247.382C298.035 246.492 295.83 231.348 295.83 231.348L301.489 227.714Z" fill="#F7A491"/>
<path d="M295.167 254.021L297.994 247.583C297.994 247.583 300.405 246.608 302.303 243.257C302.303 243.257 304.142 243.551 305.812 244.786C306.1 244.998 307.015 245.56 306.824 245.863C306.131 246.961 303.737 249.588 301.178 252.674C301.178 252.674 297.683 256.79 294.628 258.608C291.572 260.425 295.167 254.021 295.167 254.021Z" fill="#07345A"/>
<path d="M295.69 241.549C296.31 240.919 289.408 206.955 292.755 203.677C296.103 200.399 318.469 195.572 318.469 195.572L321.404 185.231C321.404 185.231 330.755 187.973 334.54 193.616C336.61 196.702 334.494 203.739 334.121 204.516C330.927 211.168 323.034 211.503 317.293 211.445C312.01 211.39 302.631 211.317 302.631 211.317L302.608 241.34C302.608 241.34 300.302 241.898 298.485 241.829C296 241.733 295.69 241.549 295.69 241.549Z" fill="#F47458"/>
<path d="M316.423 154.724L322.48 152.547C322.48 152.547 322.663 152.557 322.718 152.55C323.368 152.468 330.516 175.853 332.848 184.7C335.18 193.546 332.125 191.868 332.125 191.868C332.125 191.868 326.782 195.198 320.565 195.432C314.101 195.676 315.395 187.886 315.395 187.886C315.395 187.886 311.991 171.621 312.39 166.085C312.789 160.55 316.423 154.724 316.423 154.724Z" fill="white"/>
<path d="M316.52 149.968L316.496 152.949L316.492 153.478C316.492 153.478 316.08 158.582 317.542 159.371C319.004 160.159 322.476 152.548 322.476 152.548L320.904 143.89L316.52 149.968Z" fill="#F7A491"/>
<path d="M321.413 146.705C320.684 149.828 318.279 151.996 316.497 152.944L316.52 149.968L320.905 143.89L321.413 146.705Z" fill="#F47458"/>
<path d="M316.642 135.095C313.803 134.504 311.132 136.679 311.072 139.536C311.047 140.778 311.078 142.331 311.259 144.011C311.697 148.051 314.281 151.709 316.111 151.477C317.942 151.245 322.67 147.994 322.127 142.249C321.792 138.702 319.622 135.716 316.642 135.095Z" fill="#F7A491"/>
<path d="M320.836 142.872C320.949 143.761 321.63 144.408 322.357 144.315C323.084 144.223 323.582 143.428 323.469 142.539C323.357 141.649 322.676 141.003 321.949 141.095C321.221 141.188 320.723 141.983 320.836 142.872Z" fill="#F7A491"/>
<path d="M308.458 134.095C306.757 135.832 306.383 138.192 307.623 139.366C308.862 140.539 311.245 140.082 312.946 138.345C314.647 136.607 315.021 134.247 313.782 133.074C312.542 131.901 310.159 132.358 308.458 134.095Z" fill="#07345A"/>
<path d="M313.557 134.697C313.64 135.347 314.493 135.775 315.462 135.653C316.431 135.53 317.151 134.902 317.068 134.251C316.985 133.601 316.133 133.173 315.163 133.295C314.194 133.418 313.475 134.046 313.557 134.697Z" fill="#07345A"/>
<path d="M308.969 140.367C309.075 141.204 309.832 141.798 310.66 141.693C311.487 141.588 312.072 140.824 311.966 139.988C311.86 139.151 311.103 138.557 310.275 138.662C309.448 138.767 308.863 139.531 308.969 140.367Z" fill="#07345A"/>
<path d="M322.476 152.548C322.476 152.548 328.405 151.585 330.397 152.433C331.664 152.973 333.277 163.722 333.277 163.722C333.277 163.722 333.342 174.595 334.083 177.661C336.595 188.054 340.104 197.155 339.71 197.668C337.132 199.788 326.345 201.753 325.526 200.742C316.475 189.591 322.476 152.548 322.476 152.548Z" fill="#466EB6"/>
<path d="M332.374 163.57C332.374 163.57 326.436 181.921 323.839 183.845C321.242 185.769 309.56 167.762 309.56 167.762C309.56 167.762 304.389 164.827 304.022 164.796C302.555 164.674 307.079 163.919 307.079 163.919L307.638 159.237C307.638 159.237 307.86 159.271 309.21 160.792C311.037 162.848 312.623 166.037 313.368 166.574L321.194 172.513L325.176 159.796L332.374 163.57Z" fill="#F7A491"/>
<path d="M282.844 158.452L285.302 158.213L295.835 184.426L293.128 183.74L282.844 158.452Z" fill="#FAE0B2"/>
<path d="M306.269 152.065L312.609 182.927C312.713 183.437 312.333 183.918 311.813 183.934L295.836 184.427L285.302 158.214L305.177 151.44C305.655 151.277 306.168 151.57 306.269 152.065Z" fill="#F7CC7F"/>
<path d="M312.704 165.456L310.678 169.893C310.678 169.893 320.635 186.279 323.709 185.371C326.784 184.462 332.583 166.714 333.492 161.823C334.4 156.932 332.513 152.879 329.998 152.25C327.482 151.622 325.526 155.884 324.757 157.701C323.989 159.517 321.194 172.514 321.194 172.514L312.704 165.456Z" fill="#86B1F2"/>
<path d="M277.304 165.701C277.304 165.701 276.931 165.045 276.811 164.645C276.692 164.245 279.143 162.855 280.113 163.489C281.083 164.122 278.492 165.088 277.304 165.701Z" fill="#F7A491"/>
<path d="M277.407 167.304C277.407 167.304 276.791 166.658 276.672 166.258C276.552 165.858 279.814 164.217 280.784 164.851C281.753 165.485 278.594 166.691 277.407 167.304Z" fill="#F7A491"/>
<path d="M278.525 168.422C278.525 168.422 277.91 167.776 277.79 167.376C277.67 166.976 280.121 165.585 281.091 166.219C282.061 166.853 279.712 167.809 278.525 168.422Z" fill="#F7A491"/>
<path d="M308.162 161.054H307.653C307.412 161.054 307.172 161.029 306.936 160.977C305.996 160.772 303.424 160.262 303.225 160.775C302.98 161.404 306.928 162.137 306.928 162.137C306.928 162.137 302.596 161.578 302.596 162.312C302.596 163.046 306.998 163.43 306.998 163.43C306.998 163.43 303.155 163.29 303.085 163.71C303.015 164.129 307.801 165.317 307.801 165.317C307.801 165.317 303.923 164.478 303.539 164.967C303.155 165.457 309.618 167.815 309.618 167.815L308.162 161.054Z" fill="#F7A491"/>
<path d="M278.525 168.422C278.525 168.422 280.644 167.227 281.203 167.599C281.762 167.972 279.386 169.765 279.386 169.765L279.671 170.42C279.671 170.42 278.152 169.245 278.525 168.422Z" fill="#F7A491"/>
</g>
<defs>
<filter id="filter0_f_305_2" x="8.91895" y="16.7149" width="582.03" height="349.521" filterUnits="userSpaceOnUse" color-interpolation-filters="sRGB">
<feFlood flood-opacity="0" result="BackgroundImageFix"/>
<feBlend mode="normal" in="SourceGraphic" in2="BackgroundImageFix" result="shape"/>
<feGaussianBlur stdDeviation="15" result="effect1_foregroundBlur_305_2"/>
</filter>
<clipPath id="clip0_305_2">
<rect width="590" height="336" fill="white"/>
</clipPath>
</defs>
</svg>
