<svg width="16" height="16" viewBox="0 0 16 16" fill="none" xmlns="http://www.w3.org/2000/svg">
<g clip-path="url(#clip0_289_9)">
<path d="M0 6H2V2H6V0H0V6Z" fill="#EEEEEE"/>
<path d="M0 6H2V2H6V0H0V6Z" fill="#EEEEEE"/>
<path d="M10 0V2H14V6H16V0H10Z" fill="#EEEEEE"/>
<path d="M10 0V2H14V6H16V0H10Z" fill="#EEEEEE"/>
<path d="M14 14H10V16H16V10H14V14Z" fill="#EEEEEE"/>
<path d="M14 14H10V16H16V10H14V14Z" fill="#EEEEEE"/>
<path d="M2 10H0V16H6V14H2V10Z" fill="#EEEEEE"/>
<path d="M2 10H0V16H6V14H2V10Z" fill="#EEEEEE"/>
</g>
<defs>
<clipPath id="clip0_289_9">
<rect width="16" height="16" fill="white"/>
</clipPath>
</defs>
</svg>
